<mxfile host="65bd71144e">
    <diagram id="RLGceX5mT4ren903WGwd" name="Page-1">
        <mxGraphModel dx="1344" dy="979" grid="1" gridSize="10" guides="1" tooltips="1" connect="1" arrows="1" fold="1" page="1" pageScale="1" pageWidth="850" pageHeight="1100" math="0" shadow="0">
            <root>
                <mxCell id="0"/>
                <mxCell id="1" parent="0"/>
                <mxCell id="2" value="" style="shape=image;verticalLabelPosition=bottom;labelBackgroundColor=default;verticalAlign=top;aspect=fixed;imageAspect=0;image=data:image/png,iVBORw0KGgoAAAANSUhEUgAAAjoAAAIECAYAAAAQOIQdAAAAAXNSR0IArs4c6QAAIABJREFUeF7snQd4VMX6xt/0AiT00EIJJUjvHZQmIEgTAWkqqKAi8kdFUBG4CNivKGJBUaQJIiK9SJEqvffeOyGE9PZ/vuGeeLLZTXY3u8mWd57nXsCdM+U3c855zzfffOMBoDAeJg/5v2LFitXz8fHp5eHh0QxAGQ8PD+///c4/SIAESIAESIAESMChCKSmpiYBuJCamrolMTFx/vXr13f/r4GpmrgporU4NDT0E09Pz2cdqgdsDAmQAAmQAAmQAAmYSSAlJWXmpUuX3tKyixVHCZ3SpUvP9/DwaGlmOcxGAiRAAiRAAiRAAg5JIDU1dcPFixd7pVl0aMlxyHFio0iABEiABEiABKwkoFl2PIoVK/aEn5/fcivL4WUkQAIkQAIkQAIk4JAE4uPjO3qEhob+TL8chxwfNooESIAESIAESCAbBMSq41G6dOnTHh4e5bNRDi8lARIgARIgARIgAYcjkJqaekaETiK3kDvc2LBBJEACJEACJEAC2SQgW889ypQpo/aZM5EACZAACZAACZCAqxGg0HG1EWV/SIAESIAESIAE0ghQ6HAykAAJkAAJkAAJuCwBCh2XHVp2jARIgARIgARIgEKHc4AESIAESIAESMBlCVDouOzQsmMkQAIkQAIkQAIUOpwDJEACJEACJEACLkuAQsdlh5YdIwESIAESIAESoNDhHCABEiABEiABEnBZAhQ6Lju07BgJkAAJkAAJkACFDucACZAACZAACZCAyxKg0HHZoWXHSIAESIAESIAEKHQ4B0iABEiABEiABFyWAIWOyw4tO0YCJEACJEACJEChwzlAAiRAAiRAAiTgsgQodFx2aNkxEiABEiABEiABCh3OARIgARIgARIgAZclQKHjskPLjpEACZAACZAACVDocA6QAAmQAAmQAAm4LAEKHZcdWnaMBEiABEiABEiAQodzgARIgARIgARIwGUJUOi47NCyYyRAAiRAAiRAAhQ6nAMkQAIkQAIkQAIuS4BCx2WHlh0jARIgARIgARKg0OEcIAESIAESIAEScFkCFDouO7TsGAmQAAmQAAmQAIUO5wAJkAAJkAAJkIDLEqDQcdmhZcdIgARIgARIgAQodDgHSIAESIAESIAEXJYAhY7LDi07RgIkQAIkQAIkQKHDOUACJEACJEACJOCyBCh0XHZo2TESIAESIAESIAGnFTrtChdCswLBqJ4vL8oE+CPY21uNZmRSEi7ExuFQ1ANsiYjE6tt3HHqU29X1QbMq3qhe1gtlinoiOI/Hw35Ep+LCzRQcOp+MLUeTsHpPokP3w7tBXnjWCIRXmB88ivnAI4+Xam9qdDJSryci+Ww8Ug7GIGnnA4fuBxtHAiRAAiTgWgScSujk8/bC4NBS6FsiBAV8fMwaiYjERMy5egPfXbqMqKRks66xd6Z8AR4Y3MEPfVv6okDeh8ImqxTxIBVzNiTgu5XxiIpNzSp7jvzuEegJn84F4P14MDzyPRQ2WaXUqGQkrYlE4pIIpMakZJWdv5MACZAACZBAtgg4jdDpWTwEo8PKmC1wDKmI4Jl89gIWXLuRLWDZvbhnc1+M7ulvtsDJ0I8HqZi8IA4LNidktynZut67VRB8+xU2W+AYViaCJ2H2bSStv5+tdvBiEiABEiABEsiMgFMInQkVw9C/ZHGbjOSsK9cw5tRZm5RlaSET+gegfytfSy8zmn/W+gSMmRVrk7IsLcT3haLwaRds6WVG8yeujkTCDzdtUhYLIQESIAESIAFDAg4vdL6sUgmdixax6cgtuXkLw46etGmZWRX25ZBAdG5o3nJbVmVpvy/ZkYhh38aYm90m+fxeLwbvZvlsUpZWSNKWKMRPuW7TMlkYCZAACZAACQgBhxY6trTkGA53Tlp2bGnJydCPHLTs2NKSY9gPWnb4QCIBEiABErAHAYcVOuKT83F4BXv0Oa3MkSdO291nR3xyPh4YYN9+zIi1u8+O+OT4vRxi137Ef3ODPjt2JczCSYAESMD9CDik0JHdVZsa1rXa8djcYRQH5RY79thtN5bsrtr0cT6rHY/N7seDVLQYGWW33ViyuypgalmrHY/N7Yc4KMcOPc/dWOYCYz4SIAESIIEsCTik0HmzXBkMLVMqy8bbIsPUC5fx6bkLtigqQxlvdvfH0Cf97FK2YaFTl8bj00VxdqnLt3ch+DxV0C5lGxaa+PtdJPzq2LGPcgQEKyEBEiABErAJAYcUOvuaNrC7NUejJ1ad2lt32gSmYSH7vgqyuzUnrR8PUlH7Nfts1Q6cEWZ3a47WD7HqxAzMnV1xdpkELJQESIAESCBXCTic0JGIx99Vq5yjUAYfPm7zCMoS8fi7oYE524+pMTaPoCwRj/3ess3WfnNhxH9yjRGUzYXFfCRAAiRAApkScDihY8+dVqZI2GMHlj13Wpnshx12YNlzp5WpfnAHFp9aJEACJEACtiLgcEJncZ0aqBVk2zgtWcHafz8KXfcezCqbRb8vHpMXtcLMOxbBooIzybz/bDK6TrDtWVIBk0LhWdHfVk00q5yUU3GIfeeSWXmZiQRIgARIgAQyI+BwQicn/XM0MPbw08lJ/5y0ftjBTycn/XO0ftBPhw8tEiABEiABWxFwOKFz9tEm8PQw76BLW0FISU1F2N/bbFWcKufsjGB45mw3kJIKhA2MtGk/8syvCHjatMisC0sBonudyjofc5AACZAACZBAFgQodABQ6JieJRQ6fIaQAAmQAAk4MwGHEzpcurJ+OkVw6cp6eLySBEiABEjAJQk4nNChM7L184zOyNaz45UkQAIkQAKuScDhhA63l1s/0WZxe7n18HglCZAACZCASxJwOKHDgIHWz7PBDBhoPTxeSQIkQAIk4JIEHE7oCOWc9NOxx9Zybabk5BZze/jnaP3IyS3m3Fruks8ZdooESIAEco2AQwodHupp+XzgoZ6WM+MVJEACJEACrk/AIYVOPm8vbGpY1+4He4o1p8WOPYhKSrbLSOcL8MCmj/PZ/WBPsea0GBmFqNhUu/TDI9ATAVPL2v1gT7HmxA49j9SYFLv0g4WSAAmQAAm4HwGHFDoyDD2Lh+Dj8Ap2HZGRJ05jwbUbdq2jZ3NffDwwwK51jJwRiwWbE+xah3erIPi9HGLXOuK/uYGk9fY5gd2uDWfhJEACJEACDkvAYYWOELPnDix7HORpapTtecCnPXZameqHPQ/45EGeDvuMYMNIgARIwKkJOLTQEbJfVqmEzkWL2BTykpu3MOzoSZuWmVVhXw4JROeGPllls+j3JTsSMezbGIuuyW5mv9eLwbuZbQ9dTdoShfgp17PbNF5PAiRAAiRAAhkIOLzQsbVlJyctOYa0bWnZyUlLjmE/bGnZoSWHTyUSIAESIAF7EnAKoSMAxGdndFgZqx2UxfF48tkLdvfJyWqwxGdndE9/qx2UxfF48oI4u/vkZNUP8dnx7VfYagdlcTxOmH2bPjlZgebvJEACJEAC2SLgNEJHeim7sQaHlkLfEiFmCx4ROHOu3sB3ly7bbXeVpSMgu7EGd/BD35a+ZgseEThzNiTgu5XxdttdZWk/ZDeWT+cC8H482GzBIwInaU0kEpdEcHeVpcCZnwRIgARIwGICTiV09L2TCMrNCgSjer68KBPgj2Bvb/VzZFISLsTG4VDUA2yJiMTq23cshpKTF7Sr64NmVbxRvawXyhT1RHAej4f9iE7FhZspOHQ+GVuOJmH1nsScbJbFdXk3yAvPGoHwCvODRzEfeOTxUmWkRicj9Xoiks/GI+VgDJJ2PrC4bF5AAiRAAiRAAtYScFqhY22HeR0JkAAJkAAJkID7EKDQcZ+xZk9JgARIgARIwO0IUOi43ZCzwyRAAiRAAiTgPgQodNxnrNlTEiABEiABEnA7AhQ6bjfk7DAJkAAJkAAJuA8BCh33GWv2lARIgARIgATcjgCFjtsNOTtMAiRAAiRAAu5DgELHfcaaPSUBEiABEiABtyNAoeN2Q84OkwAJkAAJkID7EKDQcZ+xZk9JgARIgARIwO0IUOi43ZCzwyRAAiRAAiTgPgQodNxnrNlTEiABEiABEnA7AhQ6bjfk7DAJkAAJkAAJuA8BCh33GWv2lARIgARIgATcjgCFjtsNOTtMAiRAAiRAAu5DgELHfcaaPSUBEiABEiABtyNAoeN2Q84OkwAJkAAJkID7EKDQcZ+xZk9JgARIgARIwO0IUOi43ZCzwyRAAiRAAiTgPgQodNxnrNlTEiABEiABEnA7AhQ6bjfk7DAJkAAJkAAJuA8BCh33GWv2lARIgARIgATcjgCFjtsNOTtMAiRAAiRAAu5DgELHfcaaPSUBEiABEiABtyNAoeN2Q84OkwAJkAAJkID7EKDQcZ+xZk9JgARIgARIwO0IUOi43ZCzwyRAAiRAAiTgPgQodNxnrNlTEiABEiABEnA7AhQ6bjfk7DAJkAAJkAAJuA8BCh33GWv2lARIgARIgATcjgCFjtsNOTtMAiRAAiRAAu5DgELHfcaaPSUBEiABEiABtyNAoeN2Q84OkwAJkAAJkID7EKDQcZ+xZk9JgARIgARIwO0IUOi43ZCzwyRAAiRAAiTgPgQodNxnrNlTEiABEiABEnA7AhQ6bjfk7DAJkAAJkAAJuA8BCh33GWv2lARIgARIgATcjgCFjpMNed6S4Qip3xkPLh/Hzb0rkJqS7GQ9YHNJgARIgARIIOcIUOjkHOts1xQYUg6V+02GT2AwkJqKy3/PwpXN87JdLgsgARIgARIgAVcl4PJCJyh/QVSv3RCFihRDUlIitv+9GhF3bjnleAaVrYlKvcbCyzdAtf/6zsW4sPo7u/clf4X6KNH0acDDCyfnj0NSbJTd63T3Cjy9PNGue0s82qExggrkQ2xMHH74ZA6O7T+ZKRo/f1906dcetRpVQ1D+fJByEhOScP3yDaxfugU7Nu51d7TsPwmQgJsRcFmhE5gnL6rXboSQEqHw8PBQw5qYmODUQsfT2xflOg5D4eqtEHv7Ek7+NgFxdy7bfcqWaTcYxRp0RcyNszg2axSFjp2JN2ldH52eaYvggkFpc9ccoRMaVhLPvd4LxUuHGG1hcnIyNq38B7/9uMTOPWDxJEACJOA4BFxO6PgHBOKR6nURWraCekncj4xAVOQ9lCxdzumFTm5NGwqdnCHf8LE6aN+jFYqWKKzm7o0rt+Dt441CRQtkadHJky8Qr773PMpWKg0RNPu3H8by+X8h4vY9NGpZFx2ebq0sQ4kJiVgyZzXWLdmcM51iLSRAAiSQywRcTuhUCK+GqrUaIDk5CaeOHcTp44dRoXI1VK5Wh0LHyslGoWMlOAsukyWmEROHICy8jBIj/2zYi0U/L8OIiS8jNKxElkKnbbdH8WSfdvDy8sS2v3ZhzrTf09UuS1l9X3kKIoiunL+GL97/HtFRMRa0kFlJgARIwDkJuJzQkSUrETonjuzH/Xt31aiEV63ltEInOKwOKvUcA08f/wwz7NyyKbi5b5XJmVe0dnuU6/R62pKTT578CG09CMFhtSHLYMkJsbh3ahcurJqGxJjItHK068yd0imJcTi5YAIiz9rO/yM4pCQadn8eYfVbILhoCfj4ByorR0pSEqLu3sTRDcuwadYUJMS6zsv6sSeaoHHrelj261oc2nVM4R/92etZCh29SLp3JxLfTJqJS2evZBi+QW/0Qd1mNZEQn4j50xdj+7rdRoc4ODgYI0aMQNWqVREZGYnp06fjn3/+MXc6MB8JkAAJOBQBlxM6xuhS6JzFnSN/o2SLvkrgGKboa6dwfM67ab43jiB0ek2YjkpN2pi8WVJTU3H1+AHMf+8FRN+741A3lS0bY47QqVClHF56uz/yBuXBwZ1H8e3kmRmaULtxdTw96EnkLxSsftuwbKtJX51nnnkG3bt3h6enp8p74cIFjB07FlFRdEK35diyLBIggZwhQKGTM5xtVovewmOuRSc1NQUeEGtIPC7/PQc3di1Rgqd02xdRpGZb1bZzy780aR3KjaWrp8ZMRYGSZXB6xwac2LYW104cgqeXF6o82hGtXnxbWXlSkpOwedZX2DTrS5vxdbSCzBE6LTo0xlPPdYK3jxf+WrwJf/yyIq0bYu3p1LstWnZqBtmRpaXDu49j2sSfjHa3f//+6NKlS5oj9LVr1zB+/HjcuuWcuxUdbUzZHhIggZwlQKGTs7yzXZs1QkcqTY6PwZnFHyPi5I60NvjkLYAqAz6Bf6GSuHt0M079Pslo+3JD6GQGqlqrzuj4f5PgG5gH5/Zuxey3+mWbq1bAl19+ifLly5tVXnR0ND788EPs3Wu7JTvDis0ROuLA3LF3G6SmpOKPX1Ziw7Itqph8wXnR/7WnUbVOuBItt2/cVWJH/vuls1cx+Y0pRvsZFhaGN954A8WKFUNiYiKWLl2KOXPmmMWEmUiABEjA0QhQ6DjaiGTRHmuETmpKEi6s/h43di/NUHrlPh8guHxdRJ7Zg+Nz33MKoVOkbCU8M2kGxI/n+ukjmD64k81G0RmFTvfnOqJNlxZISkxKEzqP1KyIni92QUjJIkhJTsGBHUcwe9rv+L8PBqNU2eKZCh2B6e/vjwoVKuDGjRu05NhsdrEgEiCB3CBAoZMb1LNRpzVCJzE6Akd/egNxEdcodLLBPjcuNceiYyh0PDw90LFXGwQE+qvdWuv+3IQVC9ap5mvlZWbRyY1+sk4SIAESsBcBCh17kbVTue4kdEpVrYu6nfqgWMWqCCpcDB7/c46Fhwd8/Pzh6eVtc4uOnYbN6mLNETr6pSuJvVM8NERFRL5z4y7mfrMIxw6cUvVLfJ7X3h+EQiEFs7ToWN1gXkgCJEACDkaAQsfBBiSr5riD0BGnY/HBqdG2Ozy9vTNFYuulq6z45/Tv5ggdcTTuNqCDCi4oSXakyVER875brMSOlspWDMXgUQNUxGVTu7Nyun+sjwRIgATsTYBCx96EbVy+OwidZn2HosWAYfDy9sGdS2exZc5UHN+yOi1mDn100k+q8BoV8OJb/RCYN0AFG/x7xXYsnr1S+ebok8To6fViV/j4emfYnWXjacriSIAESMBhCFDoOMxQmNeQ3BQ6CVF3cPTnNxF/77p5jbUy13NTfkNotXqIibyLRR8MUzur9IlCJz1YiXY8/D8voWTZ4rh17Q6+HP9DOkuOllsLGBgXE4fZX/+OvdsOmhwhCRoYGhqKS5cuqaCBTCRAAiTgrAQodJxs5HJD6ITU64SyHV5FSlICTi2chHun/t2ibg98L363DMUqVEXkzav49Z2BuHnuRFo1sqz12HMj0PCpgfD286ePzv/IPD2oMx59ojGQCmxatR0Lfkh/cKf+CIizJy7g83e/zWDx0SCHh4eryMiFCxdGXFwc5s2bh2XLltljqFkmCZAACdidgMsJHYnm6uuX/riE8pWqokLl6khKTMSefzbiXsS/kXQT4uOQkpLexG936tmoIDeETmBIOVTuNxk+gcGIu3tVBReMungYqSnJ2eiJ6Uu1qMgSEPDIhqVY+81EJMbHolrrLmjU4wUULFUuLZidK/noFCxSQG0H16cez3dSp5GLFWbx7FXKYiNJDu68cOoS4uMS1L/FAfnld59D4ZCCapv5zk37sGL+OkRHRac71FPOt5JzsPb/c9jkAHTr1g29e/eG9//8oxgw0C7TnIWSAAnkEAGXEzoFChVB40fbwccn41EHhkwTExOw/e/ViLjjuBFftTg35swHw0jJ2lEO2d1eDnigzOMvoViDLpAdT4bJ1mddVW7eHp1GTEJAUAGj3Y6NuofoiNsoXLqCS1l0tG3i5oy1bBv/4ZM5yulYS2K1eWZINxUQ0FgSUbR07mqsX/owoKCpVLduXQwdOhRBQUEqS0xMDD799FMcOHDAnKYxDwmQAAk4FAEKHQqdLAMGPpyxHij4SFOUatEXfgVLpDszy9ZCR2qr1Lg1mvcfhqLlwuHt6wc5xiImMgKntq/D5tlT0e7V99VZWK5k0cmu0BFusnW8a/8OqFKrIvwD/ZXlKz4uHhdOXcbCGUtx+XzGWErGnkh9+vRB165d4eXlRaHjUI9sNoYESMBSAi4ndCwFwPwkQAIZCdSsWRNvvvkmAgMDcfv2bUyaNEkd7slEAiRAAs5GgELH2UaM7SWBHCDQpk0bDBo0CL6+vti/fz8mTJiQA7WyChIgARKwPQEKHdszZYkk4NQEWrVqhb59+yJ//vy4f/8+pk6dij179jh1n9h4EiAB9yVAoeO+Y8+ek0A6AsOHD0eDBg3g5+en/ruInFmzZmH9+vUkRQIkQAJOS4BCx2mHjg0nAdsSGDVqFOrUqYMHDx5g9+7dWLhwIW7evGnbSlgaCZAACeQwAQqdHAbO6kiABEiABEiABHKOAIVOzrFmTSRAAiRAAiRAAjlMgEInh4GzOhIgARIgARIggZwjQKGTc6xZEwmQAAmQAAmQQA4ToNDJYeCsjgRIgARIgARIIOcIUOjkHGvWRAIkQAIkQAIkkMMEKHRyGDirIwESIAESIAESyDkCFDo5x5o1kQAJkAAJkAAJ5DABCp0cBs7qSIAESIAESIAEco4AhU7OsWZNJEACJEACJEACOUyAQieHgbM6EiABEiABEiCBnCNAoZNzrFkTCZAACZAACZBADhOg0Mlh4KyOBEiABEiABEgg5whQ6OQca9ZEAiRAAg5DoGbNmnjzzTcRGBiYoU23bt3CxIkTcenSJZu3N7N6z507p9rERAK2JEChY0uaLIsE7EggrF5z9Hj/a/jlyYeT2/7C/DEv2rE2xym614TpqNSkDeKjo7DwP6/i7O7NjtM4J26JXnDEx8cjOTk5rTcidD799FNcvXrV5j2sVq0aXnvttXQCy8/PD15eXnBFodP9uY5o06UFYmPi8MMnc3Bs/0mbM2WBmRNwWaHjHxCISlVqokSpsvDzD0BqaipiY6Jx4exJnD15BElJiZwbJOBUBCh0HFPoNGnSBN27d0dQUBC+/vprHDhwwCnmlV7oLFmyBDNnzsy1douoKleuXI4InSat66PVk81QpHhh+Ph6IyU5BZER97F7ywGsmP8X4uMSMuXQuHU99HqxK3z9fFS+EwdPY8rY6SavodDJtWmVVrHLCR0PDw+UD6+GytVqw8vL2yjhqPv3sGPzWkQ/iMr9EWALSMBMAhQ6jil0nn32WXTu3BkxMTHKCkKhY+aE1mXLCaHj6eWJ54f3Ru3G1SF/N0zyMXzh1CV8M2kmoiIfmOzEc//XGw1a1E77PfLufXz34S84f8r4Mh+FjuXzwdZXuJzQKRxSHI2at4WnpxcunT+NE0f2ISb6Aby9fVChcjVUfKTGw98unMH+nZuRkpJia6YsjwTsQoBCh0LHlhPL3Sw6Tz3fCS07NoWHpweuXriOpfPW4ODOowivUQGd+7ZD2YqhCu/BXccw/eNZytJjmPLkC8SIiUNQPDQED+5HIzDvw9WC5b/+hVUL1xsdHgodW85a68pyOaEjGETMJMTH48LZE+moeHp6olaD5ggtUx7x8XHYtmEl7kdGWEeOV5FADhOg0KHQseWUcyehExpWEi+/8yzyFwrG1YvXMeX96emsNvmC8+KV955DmQqhiIuJw+yvf8febQcz4K7btAb6vtpDLXltWbMT8u+8QXlwdN9JTP3PjxQ6tpygNizLJYVOZnzEZ6d+01ZKhe/cug7Xr1y0IU7bFRUaGop3330XefLkwRdffIEqVaqgffv2EKe9kydP4qOPPkKFChXw0ksvoVChQoiKisKCBQuwcuXKDI0oWrQoevTogXr16ik/AlneE8dDcTjcsGED/vjjj3SOiOJz8PLLLytnwRMnTmDMmDHpftdXMHbsWNSoUUOZ7b/55hts27bNdhDctCTfgEC0GjQSlZu3Q54CheHp5Y3U1BQkxsXCxz8AHh6eac7IpavXx9PjvkVg/oLYuehnrP56fKbU9GLpn9+mY+23k9Llr/F4dzTo/jyKlKkIb18/dZ+IE/DV4wfw1/eTcePMsQzlG5a5bvpHaPrMy6jTsQ/yFioCD08vVcaRjcvw17cTkRAbY7SNlRq3RtM+r6BouXD4BuRReZIS4tWf0hZbOyNrS07aDqOQkBA8/fTTKF26NHx9fdWcP3v2LGbMmKHuOS117NgR/fv3h4/PQx8Nc5KhD4yhyJg9eza6deuGtm3bokCBApCPMrmntm7dqnxn4uLizKnGojzWCp0iRYpAGNSqVQvyd3kmac+UiIgI1WZ5FlnSZnsvXXXp3x5tuz6KlJRULJ27Gmv/+DsDq6ZtG6DnC53h4+uDnZv24ef//pohT99XnoLkE2vOD5/OUZagsPAyuHcnUi15XTp7JcM1hhYdbx8vPNGzNUqVK6EcsBMTEnH2xEXM/34xrl++adEYMrN5BNxW6AieXVvX4+rl8+aRyuFcmtDJnz8/duzYgQYNGqiHryRZblu9ejXq1q0LETFaunLlCj744APcvPnvzdKsWTMMHDgQwcHBRnsgL7LTp0/j888/T7suX758GD9+PMqUKYP79++r3w4dOpTh+kceeQQjR45U4ikrQZTD+Jy2uoqNWuGJ4R8gqEjxTPug7boqVKoc+nw0E/mLhZq1E6tel/5oO+Rd9WL66/sPsXPRT6oeEVddR3+BSk1aKyFlLCXGxWDTL19i2/zv0v2sFzp7ls1FifAaKFahqqpDn2SuSbsXjn8ZKbodPp5eXug6+r94pHkHeHob96uTcuwldG7fvo29e/eiZcuWRsXLvXv3MG3aNOzZs0d1x9ZCZ82aNeqjRZxxjTHbtWuX8v3R74qyxQS3VuiMGjUK9evXN9kE7ZkyefJkREZGmtVUewudNya9jPKPlMXdWxH4esJPuHbpRrp2FQopiP5Dn0bFqg/H4PL5a/jwzS/TLV/pl63OHDuPz975BrIcJo7NyckpJgWUXuhs+2sXmj3eEH7+D5/l+nT7xl18M/HnDG0E5tUwAAAgAElEQVQzCyAzZUrA7YROydJhqNf4MSQlJmL736tx945jKmhN6Ii1JikpCQ8ePFAP265du0K2Z4oFRywuInjk72KxSUhIUHk0q4rkGzFihBI58nW4fv16LFq0SJXVuHFj9fVasmRJdWPv3r0bH3/8cdrDtF+/fujSpYv6TR7E33//fYaJpOWRH/7880/IVymT9QSKV6yGHuOmKdGSFB+HQ+sWY/PsqYi8cQVFylZC9dZd0PCpgfD2808nal78bpkSFtdPH8H0wZ0ybUCzPq/i0WeHIzEhDn9MfB2n/nnoV9DtnS9QtVVn9fdrJw9h8+yvVB3BISXRvN9QVG/dVdUbFxWJZZ+PxrFN/1oO9UInMT4WPn4BiLpzA1vmTMPBNQtRIrymEm+FQsMQH/MAyz59G0f/XpHWzvZDx6Fu577K8nPn0hlsnvUVjv69XFlxytZqjBYDXkfxStXtJnTkxSxJPiD27duH+fPn486dO3juuefQtGlT9dUtDsYSV8aY2LDGGdlwa7dYRe7evavuT7GyatZauT/tZS21Vui88cYbKFasmBKHO3fuxJkzZxQjeaaIpatw4cKK02+//ab+Z06yp9ApWqIwXnt/EETMXDh9GR+99VW6JlWv/wh6DuqsftfS3Vv3MG3iT8qXR0vaspXstlq7+G/8OWsVqtWtjOf/rzcC8gSYXL7ShI5+nu3ZchBL5qxW/kJ9hnRD5ZoVVTXrl27B7z8tMwcZ81hAwK2EjpiDReQUL1UW9+7exraNq5CYmPlWQgtY2jSrJnTENCwPjcWLF2Pu3LkYMmSIMm9L0qwoImgkyJaY0mfNmoXly5er37UvLxFAcu3SpUvTtVEE0HvvvYewsLAMD1O9tebChQuQJSoRVFqSB9uECRMQHh6uHtDy9SZmfibrCWhiIzkhHhtmfIZ/Fv6QrjBTPjpanJm7V85j9lv90oTRM5NmIG/BIuksN22HvINGT7+ohMiC9werJSmJUdN55CcIyJcfV08cxK/vDET0vTvp6pZrWg16E14+vjizaxPmjno27Xd9u+RhLmUu+mAY7l3/dxeKJrA8vLywfcH3WPf9h+p6ETLdx3yFPPkLmazbXnF0NIEi7UhMTMSKFSvwyy+/GJ3jmVk2syt0jFlVpRFPPfUUevXqpZax5ENC7m1bJmuFTmZtEAuyPKMCAgJw8OBBZRk2J9lT6IiT8eBRAxBcMEg5H387+d9t9B17t1UxbsTCInFuZAdVsVJFjca80ZatYqNj8dN/f8XhPcchVp7h/3kJJcsWN2kt0oSOcEhKTMKG5Vvxx8x/hb6+fZqlyBxmzGM+AbcSOqVKh6F2w+bKNH94/04VT8dRk17oXLx4EePGjVNmYO2hKuvfP/30E/766y9oDyy90KlYsaJaVipYsGCmy0piIXrmmWfg7e2NtWvX4ttvv01DIr45sg4fGxubzlIkGfR+PGJa//DDhy8uJusIiBWn78e/oGDJsrh8dC9mDu+ZbnlHSjUldNq9OhYNuj+HyJtXlUi5ee4Eanfsjfavjs1g/TEmijqOmIw6HXsrK9Kqr8dj3/KMvgkBQQXQ/7O5CAmrnE4kGbbr2qnDmDfquQxCyZRvUKsXRqJJr5eQnJhosm57Cx35kBDL6I8/ZnQmlXtDYuSIGBFLz++//55hgLMrdOQDQZacDZd57CFE9I23R/n655Ylwf/sKXQeqVUJL7zVFwGB/mlCR5yP+7zyFKrXray2mstS1uypC1GveS207NQ0g9DRL1uJH85HI6emLWs9M6SbWo5KTkrGH7+sxIZlW9LNEU3oyC6uTau2Y8EPSzLModGfvY7QsBK4dPYqJr8xxbqHCK8yScBthE7BwkXRsHlb+Pr64eb1K9i5ZR2Sk5McdmroHxh6IWHoQCkh2o0JnVatWuGFF15QjoKZBQPTW27EB2HSpH+dU9u0aYNBgwYp3yBxMBRfHS2JE/Tjjz+uvoTlBSGCi8l6AuKb0+3dKfALzGvSqdiU0GnYYxBavzBSOe5qkYO7vvNftdwkSZa+5r0zELfOn0S/T2ajXJ2mynry4ytd1O/PTfkNodXqpctnrCdambL8pF/2ys5usN4Tf4T0XS/SDOu2t9DJLP6NOfdRdoVObn0ouKvQWf37BvQb2kNtERfxcWjPccyd9rvahWVqK7i2bCWWH8PlJe03/wC/DBYjmcvmbC+n0LH+2WnOlW4hdPLmC0ajFm2RJ28QnCVYYHaFjuYwKZNAv5xlOCky+wITR2dZspL1+OvXrysztDg6i7OyLFvJtcaWtcyZeMyTnoDsdGrz0ii1NGRsN1RmFp0qj3XEk298BC8fH7VMdWLrGiVo8hcrhdT/xYnSHI81fx79ERLm+vhoy17JiQnplsOyI3S0uvVizJGEjl4MbNq0CVOmZPzadkehI0vW8qEjy95iNZblNS1Zc5yDPS06+qUh2dUkS1hi3ZEIyH/9uQnLf1377wfc2/1Rq1G1DBYdbdnK2NZzvbXHmLMzhU7uP+1dXujoRU70g/vKAdkZIiI7gtCR6alZbsQhWhNM2leuWHpMOSrn/tR2rhZkR+hoW8wDgoKxZe40tXQlwic26p5aZipVpY5yLF7/4ycQvx1xMNaLKQod0xGN9UJHfN9kq7lhciehI755gwcPxmOPPaYckDNLjrJ0JZabV8c8j4JFCqQ1986Nu1jw4xIc2pU+XMLr419UAQT1gkUvZG5eu41FPy9HYkL61YDHOjZB9XqPKB8cw+UrCp3cfxa7tNAJCi6Ahs3bIDBPPqex5GhTwlZCR/x2zF26MmZCr1OnDoYPH67i+ezfv19ZcmQnl+xGycxBM/entnO1QNv2LTuNLLXo6LeYSywdsezU6dRHHX559cQBNOvzCu7fuo5VU8ep3U+BQQXSWWTMsaoIzbSlK4PDNbNj0Rk07U+1Hd1RLToSu0qEjNxHphyC3UnoiIN0z549lU+fhLMQnyUJf6HFzHFEHx2Zu29/8hrKVCilfK1OHTmHWVN/g4gdfRIhNGz8CyhavHC63Vl1mtRAv1efgn+gv1kPlT1bDuDHz+am5aXQMQubXTO5rNBxZpEjI55doaP3vcls94PmjCymZ9naOm/evHQTznB31dSpU5WVR5azLNlVYddZ7AKFi9+MnEzuny/YZDycTm9MRq0OvdSWf8PTy9OWpLavQ77CISro3sYZnynHZgko6JcnL3YtnonaT/QGPDzS+dhoAiYhJhpLP3sbRzc+3LWnT3pnZP3uLsmTHaHz9LhvULl5e8Q9uI8/Jg3H6R0b0tVbqmpd9Bj7NfIVCrHb9vLMfHS0XY7GHPK1hmpCR3Y3SnC/VatWZTkj9ZYiZ/LRkS32lStXNvmRk5NCx9/fX23DFydu8VXMLGkOw2JxEWfgrWt3ZsiuBQz09pGoxzsw79s/VB7tWsMYR6bqu3XtDr4c/0OakKLQyfJ2sHsGlxQ6epETGXEHO7asQ2yM6UPa7E7ZigqyK3T0AkUe0rKbasuW9LsBZHu57OaSSLCZbRHXxJB0Y/v27WjYsKFakxdRJNvembJPQITEs1/MVxGJjVk32rw0Wu2sEh8eSYZCR7+byj9vEJKTEtO2j2vOxrcvnkGB4qGIuR+R9puUpd+hdXbPFswb/VyGHV/N+g5FiwHDVJTmvcvmYsUX76V1OjtCJ23buacHdi2elS6ys8QV6jLqMxVDSJK9AgaaEjrif/L222+ruDASK0asmfoQCxqAJ598En379lVWDnOXcp1V6Gi+NBJkUTYuiI+eluSZ07t3b3Tq1EltYLDn0pX4D8quUgmyKLvmRFwaW1bU2lajQRX0f+1p5MkbiAunL2HaBz+bPAJCoh6LRUZOJddvH5dlqy/H/qCWtYylIaOfhdQjkY71YopCJ/vPx+yW4HJCx9CSs3fHJsSZCDkv8BIT4m0ecTS7gyLXZ1foSBmya+r555+HfPnIw1weBsuWLUsLGCgmaAlIJg8KiSHy888/G226PPBHjx6tnA7j4+PVTi69c7It+ssyANkmXr9rf8DDE5eP7Mayz95RWFq/NAoV6j+K+JgotbMqX+FiGYSOtsU8JSlJBSE7v/8fFVNH0mPPj1DLV6kpqeq3iGuX0uLtyO8SmXjA5/MQWq2+Mu1fPbYfG376DOf2blX+PC36D0P1Nl2VyIq4dhHz33tR7eDSUnaEjogYzW9IhMzmOVOxZ8lsVG/TDc37v4a8BYvizqWzSqDpd5XZYr7oLTEi2sUHRwsIKLGpZNei3If6UA7G6tXfH/r7LLOowM4qdLTYXMJJdmLKM0OeCc2bN4cIvhIlSqRFd7an0GnUqBGGDh2q4vVIkmV0CXh67FjGI0q0MXvp7f6o2bCq+qecNC4B+0TM6A/1lHtEvwVcv2xl6lgIrfyWnZqh24AOEIuQPi+Fji3u1uyV4XJCJ7xqLVSuVsdsKo56DIQthI5AGDBgAJ544gmT5/LIA2vjxo347rvvMhV8ml+OBtbUDhSzwTNjBgISNK/3pBnKZ8UwyfELEkRQzqKSKMiGFh3NMiJHKKSmJCun5I0/PQwHIMti3d/7EoHBDyO/6reWa/UYWk+MDY8EAFz++TsQq48+ZUfoSDmNeryAlgPfUDF/9EkLPnh88yol1uwldLQ65V6Ql7ZYK7Xzm0TkSHTfrCyXEoahXbt2Jh10MzvrypmWrkRgyHKe7Lw0liTquhyZUapUKbtadOT5KB9fcj6ZJAlzkdnuUskjsXPkYM8yFUMzHLUhv8t8O7DjiDrDSju53JwlL42D/uBQvfWHQif3H/YUOg563pWthI5MMfl6lCMi5MtTrDuS5AEuZmex8JhzEKcECHzllVfUF5S9QtLn/u2Q+y2QwIGPv/IeytdroV78YqG5fuYoNs/6Eie3r4Ox7eHS6lrtn0b7YePV8Qsx9+7it3FDcPHQLtUhsdg8+8UCtftKkqFI0not51216P86qrZ8Uh3GKctUKclJiI64jeNbVqujGQwjJsu12RU6qv0deqqjHoKKFAPggbioeziyYRnWTf9Q+SXJ1nt7CR15wYnIkaUn7YUnFoLjx4+rwynPnzfvPDzZjSgHc8pSl3YuncbWVYSO9EcOB9Yffir8hJccI7Nw4UJ1tp6chWVPi460Q2+xNkfoPLwXPNGue0s0e7wBggsEqX/L2N+5EYE1izZi27qH94wkc6IeGz4xtF1bCfGJmD99Mbav2804Orn/WIXLCR0HYMomkAAJOAEBa3ZLOUG3zG6iPQIGml25QUZr4ujoPwbl4+uLL75IO3jV2nbwOtckQKHjmuPKXpEACWRBgEKnpjojTw4HziwERU5MJGuETvXq1VWoi6CgIAYuzYlBcuI6KHScePDYdBIgAesJUOg4r9CR5TPxP5TNFLKtXw5jXblypfWTgVe6NAEKHZceXnaOBEjAFAEKnX+FjjhhazvOhNetW7cgVparV6/afALJjrbXXntNWZK0ZO6xERK8VPx/9M7iYo2SA1eZSMAUAQodzg0SIAG3JECh86/QMZwAInQkOGBWgfismTh63yDD67NyYJbt7WLNiY6OxtGjR5XAMddZ3Jq28hrXIECh4xrjyF6QAAmQAAmQAAkYIUChw2lBAiRAAiRAAiTgsgQodFx2aNkxEiABEiABEiABCh3OARIgARIgARIgAZclQKHjskPLjpEACZAACZAACVDocA6QAAmQAAmQAAm4LAEKHZcdWnaMBEiABEiABEiAQodzgARIgARIgARIwGUJUOi47NCyYyRAAiRAAiRAAhQ6nAMkQAIkQAIkQAIuS4BCx2WHlh0jARIgARIgARKg0OEcIAESIAESIAEScFkCFDouO7TsGAmQAAmQAAmQAIUO5wAJkAAJkAAJkIDLEqDQcdmhZcdIgARIgARIgARcUuj4BwSiTFgllCwdhjx588HT0wspKcmIfhCFMyeO4PKFM0hOTuLokwAJkAAJkAAJuDgBlxM63j4+aNzicRQsHGJy6CIj7mDHlnWIjXng4sPL7pEACZAACZCAexNwSaFTp2EL3L8XoSw30Q/uIzU1FWLlqVC5OsIqVoGHhwfOnzmOA7u3uffos/ckQAIkQAIk4OIEXE7oZDZenp6eqNf4MRQvVRYx0VHYvG454mJjXHyI2T0SIAESIAEScF8CbiV0ZJjDq9ZC5Wp11LLVpr+WUei479xnz0mABEiABNyAgNsKHVp03GB2s4skQAIkQAJuT8CthI6XlzcaNW+LwiHFce3yeezevhEpKSluPwkIgARIgARIgARclYDbCB0fH19Uq90AoWUrKv+c7X+vVtvNmUiABEiABEiABFyXgMsKHT//ADRs1hr+AXnULiv5t/x589pl7Nu1hb45rjun2TMSIAESIAESSCPgskJHtpO3aNMJAYF50w23bDW/deMqDu7ZRosObwQSIAESIAEScHECLit0DMfNz88fRYuXQnjV2ipackJCPHZsXou7t2+6+BCzeyRAAiRAAiTgvgTcRuhoQywip/Gj7ZAnbxAdkt133rPnJEACJEACbkLA7YSOjGu1Wg1QPrwagwa6ySRnN0mABEiABNyXgFsKnZr1mqJs+XBE3LmJ7X+vQWJigvvOAPacBEiABEiABFyYgNsJHVm6avJYewTmyYdTxw7i6MHdLjy87BoJkAAJkAAJuDcBtxE6AYF5UCK0HCpVqQlfXz912Cdj6bj35GfvSYAESIAEXJ+AywmdEqXKon7TVpmOXMTdW9izfSO3l7v+/GYPSYAESIAE3JyAWwgdiZ0TFxuNWzeu4cLZk8o3R/4bEwmQAAmQAAmQgGsTcDmh49rDxd6RAAmQAAmQAAlYQoBCxxJazEsCJEACJEACJOBUBCh0nGq42FgSIAESIAESIAFLCFDoWEKLeUmABEiABEiABJyKAIWOUw0XG0sCJEACJEACJGAJAQodS2gxLwmQAAmQAAmQgFMRoNBxquFiY0mABEiABEiABCwhQKFjCS3mJQESIAESIAEScCoCFDpONVxsLAmQAAmQAAmQgCUEKHQsocW8JEACJEACJEACTkWAQsephouNJQESIAESIAESsIQAhY4ltJiXBEiABEiABEjAqQhQ6DjVcLGxJEACJEACJEAClhCg0LGEFvOSAAmQAAmQAAk4FQEKHacaLjaWBEiABEiABEjAEgIUOpbQYl4SIAESIAESIAGnIkCh41TDxcaSAAmQAAmQAAlYQoBCxxJazEsCJEACJEACJOBUBCh0nGq4gLwlwxFSvzMeXD6Om3tXIDUl2cl6wOaSAAmQAAmQQM4RoNDJOdbZrikwpBwq95sMn8BgIDUVl/+ehSub52W7XHsW0Lp1azz11FMoWbIkvL29kZSUhLNnz+KXX37Bvn377Fk1yyYBEiABEiABuI3QqVmvCcqWr6yGPDExAdv/Xo2IO7ecagoEla2JSr3Gwss3QLX7+s7FuLD6O7v3IX+F+ijR9GnAwwsn549DUmyUWXV269YNAwYMgK+vb4b89+/fx1dffYVt27aZVRYzkQAJkAAJkIA1BNxC6BQOKY5GzdrCy9vbqYWOp7cvynUchsLVWyH29iWc/G0C4u5ctmbcLbqmTLvBKNagK2JunMWxWaPMEjrly5fH2LFjUahQIdy6dQs//PADtm/fjn79+qFr165K/Bw+fBhvv/22RW1hZhIgARIgARKwhIDLCx1fP380frQd8hcohJjoKATmyee0Fh1LBtaWea0ROr169UKfPn3g6emJ33//HT///LNqkpeXFz7++GNUrlwZN2/exLhx43DhwgVbNpdlkQAJkAAJkEAaAZcXOpWr1UZ41dqIun8P504fR406jSh0LLwBrBE6gwYNQvfu3ZGYmIiffvoJf/75Z1qt77//Pho2bEihY+E4MDsJkAAJkIDlBFxa6OQvWFhZc8QJdueWdfDy8kb9pq2cSugEh9VBpZ5j4Onjn2F0zy2bgpv7Vpkc9aK126Ncp9fTlpx88uRHaOtBCA6rDVkGS06Ixb1Tu3Bh1TQkxkSmlaNdZ+50SkmMw8kFExB5dm/aJc8//7xyQk5OTsbcuXMxf/589Vv+/Pnx0UcfoVSpUrh48SJGjhyJqCjzfH7Mbc+zzz6Lzp07IyYmBp9++imuXbuG/v37o2bNmggMDERKSgru3r2LBQsWYP369RmKLVKkCDp27IhatWpB/u7n5wcPDw/Vl4iICGzdulVdGxcXZ26THD6fWNrq16+Ptm3bomzZssiXL5+yvqWmpiI2Nhbnz5/HwoULceDAgSz70qFDB/Tu3RsBAQHYtWsXPv/8c8WOiQRIgARyg4DLCh0RNQ2atUbRYiVx8dwpHNi9FcVKlHZboXPnyN8o2aKvEjiGKfraKRyf826a740thE6zZs3w+uuvK2Fx6tQpjBkzRgkPETZNmjRRL1B5ccruK1snvdBZsWIFHn/8cQQFBWWoJiEhQYmwpUuXpvtt1KhR6qVvKknbT58+jcmTJyMy8l+BaOt+5GR5IgLffPNNNV6mkgi7efPmYdmyZSbziDAU36zixYurPLLLTq5ZvHhxTnaHdZEACZBAGgGXFTphlaqiWq0Gyi9HdlhFP4hCiVJlnU7oGM5VvYXHXItOamoKPOCBlKR4XP57Dm7sWqIET+m2L6JIzbaqinPLvzRpHbJm6UqsASIEqlatqr7mN27cqLaYh4eHq/p2796Nzz77zObWHClbEzpSr1hvxKJ38uRJ9cI9evSosvaItUksDuIfJC9mvVXpjTfeQLFixbB3717s3LkTZ86cUdaNxo0bK8tQ4cKFVZ9+++039T9XSNWrV8eQIUOUgJOxOXjwoBJxIlzE16pp06aKwZUrVzBhwgTlYG4slShRQonaokWLqp+F/6JFixR7JhIgARLIDQIuKXTy5gtG05YdII7I+3dtwaXzpxVbdxU60vfk+BicWfwxIk7uSJtnPnkLoMqAT+BfqCTuHt2MU79PMjoHrRE6UpBYbl577bV01hTx2Vm3bp3ahSVLIvZImtBR/U5Oxpo1a5SfkH75RMRNjRo18ODBA7W8dejQIbOaIpYqEQQikkQMjB8/3qzrsspUpkwZ5ZitCYSs8uekI7cInHfffVct/cmYTZs2LdOwAAMHDkT79u2VMJLlSVm6unTpUlZd4u8kQAIkYBcCLid0ZJdP7YYtUKp0GK5fuYhd29arr0p3FjqpKUm4sPp73NidfolGmFTu8wGCy9dF5Jk9OD73PZsKHdlGLr4a4u8hKTo6GtOnT8fatWvtMpm1QjWhI+MudX3//fcZ6jP04zHH90QKCQ0NVS99sXScO3dOLffYIjmy0JH+abxEqM6aNQvLly/PtNvCKW/evMqSRv8cW8wQlkECJGAtAZcTOiVCy6Juo0eREB+PrRtW4kHUvz4U7mrRSYyOwNGf3kBcxLUM88ReQkesHk888YT6qpeXoywfiUOvvPjECnLv3j3UqVMH4g+TJ08etbzx448/WjuP011n6UvZkkrtJXQsaUNu5LUn09zoD+skARJwHwIuJXT8/APUkpUsXR3evxNnTx5JN5IUOjkjdJ588knI8oUEBRRH5ClTpmDYsGGoVKmSckLesWMHJk2ahE6dOkF2Z4kYkl1MYimwRbLFS1l8icSJOSwsDAULFlTxgLQku7Ckzba06Nii39ktw9/fX/W5Xr16yplY/q0l6a/021yLTnbbwutJgARIwFYEXEroaMc83L55DTu2/IWkxEQKnU6vI6ctOp988gmqVKmitnCLoDl27Jha8pEoyOXKlVNLGbIbSpayevbsqV6e33zzjc2WtLIjdOSFPnjwYDz22GNKzGSWXEnoiP+NWOGy8hGi0LHVo5flkAAJ5BQBlxE63j4+aNzicRQsHGIRO2c798qaXVc5KXT0viayW0ksOVqSYyHEvyUkJASytVuWr+TFeufOHbWcJfltkbIjdGQ3logvWWqTHUYS1VksUFrMHHstXeWmj05wcLByhC5durQSnZs2bVJb7vUOxNlhaosxZRkkQAIkYC0BCh0nO+AzN4VOQtQdHP35TcTfu25yvmUmdOQiYzuxZBu3bEm2VcrOS3nixInqeAo5dFR2CxnuxnJFodOqVSu88MILamlKgiFKvw2TpUxF1EqylXi11dxgOSRAAu5HwGWEjjlDRx8d63x0Qup1QtkOryIlKQGnFk7CvVP/blE35C47rOQsK7EOSGya//73v8oiok89evRQh3v6+Pgoy853332HVatMR3g2Z2z1eSx9Keuvla3msrx2+/ZtteymP4dLlrJkF5n4Fon/kassXUkUaIkPJOMhu6lmzJiRDrlESpYwAfKnOUtXsgTWpk0bVYarBVa0dC4yPwmQQO4ToNDJ/TGwqAW5YdEJDCmHyv0mwycwGHF3r6rgglEXDyM1xXhY/1dffRVyDIDsshI/HTn+QWLniMVAnF3FWVkcfLWk34llEQwTmbMjdLSoyOJHJNYNOYw0Pj4ezZs3V+2WgHjSL0muInRk99vw4cPV7jcReDNnzlRxcsQRW0SQWOFE2EnKSuhIGR988IESupIYMNAWM5plkAAJZIcAhU526OXAtdr2b3OqMoyUrB3lkF0fHcADZR5/CcUadAH+95LXt8fwrCs5z0oO7pRdVpooMGy/+LxI0Dt5Iep3Ytki5kp2hE6jRo2UU64W+8ew3RJgUHyL5KwuVxE6YqmSeEBy7IWx8ZLxkcB/4lslebOKoyPHfDRo0CCtLDnv6sMPPzRnCjMPCZAACdicAIWOzZHatkDHEDrSJw8UfKQpSrXoC7+CJdKdmWXsUE95IT799NNo3bq1cjgW5155YcqxAnIMg5wxJVu2NedkbSfWt99+m22A2RE6Urlsr5a2iwgTS4a0W3x25GgEOZ9Lts6LKHAVoSN9lq3ksnwlx1zIuWAieGRZ8fLly2o5Sw4zFTEky1tZCR0Z7/fee08d+SGJQifbU5oFkAAJZIOAWwmdbBX8yO8AACAASURBVHDipSRAAhYQ0B+Maszvx4KimJUESIAEskWAQidb+HgxCZCAIQGx5snBnxJ0UU6slxhJ4vPDRAIkQAK5QYBCJzeos04ScFECsmw1aNAg1K5dWy1NyunvsguPiQRIgARyiwCFTm6RZ70k4EIEqlWrpoJDiiO6WHTEr2nfvn2YOnWq8stiIgESIIHcIkChk1vkWS8JuBABOUJCnJVF5EhEafHL2bhxowv1kF0hARJwVgIUOs46cmw3CZAACZAACZBAlgQodLJExAwkQAIkQAIkQALOSoBCx1lHju0mARIgARIgARLIkgCFTpaImIEESIAESIAESMBZCVDoOOvIsd0kQAIkQAIkQAJZEqDQyRIRM5AACZAACZAACTgrAQodZx05tpsESIAESIAESCBLAhQ6WSJiBhIgARIgARIgAWclQKHjrCPHdpMACZAACZAACWRJgEInS0TMQAIkQAIkQAIk4KwEKHScdeTYbhIgARIgARIggSwJUOhkiYgZSIAESIAESIAEnJUAhY6zjhzbTQIkQAIkQAIkkCUBCp0sETEDCZBAThAYNWoU6tevb7SqJUuWYObMmXZphql6ExMTMWvWLHUSOxMJkIDzEqDQcfCx69ixI/r37w8fH58MLbXnw9/BsbB5LkhAExzJycmIj49P18MVK1Zg3rx5dun18OHDUbdu3bSyPT094efnh6SkJAoduxBnoSSQswRcTuh4+/igcYvHUbBwSKYk796+ge2b1iApMTFniVtYW9u2bfHMM8+kCR3tIezh4QEKHQthMrtDE9CEzq1btzBx4kRcunQpV9qrfVxI5bTo5MoQsFISsCkBCh0HFzqGo6238FDo2PReYGG5TIBCJ5cHgNWTgIsScGmhc/zwXpw4st+lho5Cx6WGk53REaDQ4XQgARKwBwEKHXtQtWOZFDp2hMuic5UAhU6u4mflJOCyBCh0nGxorRE6Xl5e6NatG8Tfp0CBApB/i8PnjRs38Mcff2D9+vVGKfj7+6N58+Z47LHHUKpUKQQEBKhrU1NTER0djaNHj2L+/Pk4f/68k1F0zOaG1WuOHu9/Db88+fDPb9OxbvpHaPrMy6jTsQ/yFioCD08vxEdH4cjGZfjr24lIiI1J15HgkJJo2P15hNVvgeCiJeDjHwjx5UpJSkLU3Zs4umEZNs2akuG6bu98gaqtOqu8lw7vwi8jnkFKcnK6ssvWaozuY75CnvyFEHs/Ass+fwfHN6+yKUhrhU7xitVQt3NflKvTFHkKFIaPX4BqV1JCPCJvXsXeZfOwc9GMDH0y1Xj66Nh0WFkYCeQ6AQqdXB8CyxpgqdApWrQoRowYgQoVKqgXmexmEZEju0o00bJz50589tln6r/rU2Y7vrR8kZGR+P777/HPP/9Y1hHmzkBAL3T2LJuLEuE1UKxCVTVu+iRC8+S2v7Bw/MvpXt69JkxHpSZtTJKV664eP4D5772A6Ht30vKJeOk9aYaqLyU5Cdt+/RYbZnyW9runlxcGfD4PodXqIzkpEZt++RJb5ky1+QhaK3Re/G6Z4mQqpaam4MTWtfj9P6+aJXYodGw+tCyQBHKVAIVOruK3vHJLhI4ImXfffRc1a9ZEQkICli1bhl9//VUJGhFAgwcPVr+lpKRg8eLFmDt3broGtW/fHk8++SQOHz6MXbt2qT/j4uIQFhaGfv36oUaNGuolLJadMWPGWN4ZXpGOgF7oJMbHKstE1J0b2DJnGg6uWYgS4TXxxPAPUCg0DPExD7Ds07dx9O8VaWU8NWYqCpQsg9M7NuDEtrW4duIQRKRUebQjWr34trLyiJDZPOsrbJr1Zbq6Kzdvj04jJiEgqABiIu9iycdv4dQ/Dy19LQe+gSa9hyiLkjGBZathtFboPPvFAogWPL55Dc7s3oRb50/CNyAQtZ/ojRb9h8E/XzASYqOx8sv3cXDNoiybS6GTJSJmIAGnIuDSQkc/EsnJSYh+EIUrF8/i/JkTSIiPc6qB0hpridBp06YNBg0apLamr1u3Dt988026PgcHB2PcuHEoXbo0rl+/jvHjx+PmzZtmcdFfe/fuXXz88cc4deqUWdcyk3ECeqGjWV8WfTAM967/u826WZ9X8eizw+Hh5YXtC77Huu8/NAtntVad0fH/JsE3MA/O7d2K2W/1y3Bds75D0WLAMHh5++DKsf2Y985AhIRVTluyirh2EfPfe1EJCXska4VOZm3R92nv8l+x/PPRWTadQidLRMxAAk5FwG2EjqHo2bdzixI9zpYsETpiZalVqxYyEyIDBw6ElBkbG4tp06Zh27ZtZiPRXkwxMTH49NNPceDAAbOvZcaMBPRC59qpw5g36rl0S0xyhaEfz9pvJ5mFskjZSnhm0gyIH8/100cwfXCnDNeJ9afH2G/U8ldqSjL2rZivloRKPlILcVGRWPb5aBzbtNKs+qzJZA+ho+cl1qj5Y17MsmkUOlkiYgYScCoCLid0TNEPCMyD0uUqIqxSVfj6+iEhIR7b/16Ne3dvO9WAmSt0ihQpgrFjx6J48eI4d+4c3nzzTaP91MqTQITiWPz777+bzYNCx2xUZmW05qVsVsEAzBE6Upbk6/XBdBQoXlqJHVkTSk1JwZ4lc7Bq6jhzq7MqH4WOVdh4EQmQQBYE3EboaBwkYnKjFm3h4+OrlrAO7N7qVJPEXKETGhqq/HNE8BgLqa91OqtIy7JEJXVWq1YNISEh8PX1TePl7e2t/k2Ljm2mkC2ETqmqdVG3Ux8Uq1gVQYWLwcPT82HjPDzg4+cPTy9vkxYdrRePtOiATiMmK98WSWf3bMG80c+Z5cibHRLZETpiharZrgcKl66AfIWKpjXDw8MTPgEBkD9p0cnO6PBaEnBeAm4ndMRBt2GzNihSrCSc5RgI/fSyRuiYMz3FIXnRokXpzhNq1aqVOmcrKCgo0yIodMwhnHWe7AgdWXYSH5wabbvD09s708pMLV1pFzXq8YJyQPb281ehBOzpgKxvqDVCR3aMdR75Cco3eFSJmcwShU7Wc5A5SMAVCbid0JFBrN+kFUqElnUboZPZ0pWpSR0eHq6WuwoWLKgsNqtXr1b/k3OItMSlK9s+ErIjdPROt3cunVXbv49vWZ0WM8fcpSuJSdNj3DTkLxYK2ZYNyNJVssMuXXV6YzJqdeilBuLqsf34+5cpOLd3S5r1yRqm9NGx7bxmaSSQ2wTcTuj4BwSiacsOyJsv2KWXrmRiyU6o8uXLK3Fi6SGJcpBo9+7d1fz8888/MXv27AxzlULHtrevNS9lrQXPTfkNodXqqa3hslNLdlbpkzlCRx9PJyk+DtsXTEe1Nl2Uv05iXAxWf/0f5aCcVZJAkxK3SWIsWXIwp6UWHXGs7vfJbBQsWRZ3r5zHnJED0u1Qk3Zaw5RCJ6sR5u8k4FwE3E7ohFethfCqtdUX3z9b1uL2jWtONWLmLl1JpyTWTZcuXdTyg1hjfvzxR7P7+uyzz6Jz585ITEzEnDlzsHTp0nTX1qtXDy+++CIKFy5MHx2zqWae0ZqXslaiFjRPIgH/+s5A3Dx3Iq0yWdZ67LkRaPjUQLUcZWrpqsPrE1C30zPA//xZJCChxODRtqXLNveF416B7AgzlSQ+08iRI1GuXDnlG7Zq1SrMmDHDLEKWCh29eLtx5hh+ePnJdH5EEkunw7AJqNa6s/JN4tKVWcPATCTgcgTcQuiIw22+4AKoUr2u8s2RdOLIPqc88NMSoSMOyaNHj1ZOxPLSOXTokAoaePDgQfVv+V0ES8OGDdVxEP/973/TJri+HjniQaIfnzhxAtWrV1fiSYIFir+TJPro2Oa5kB2ho0VFloCARzYsxdpvJkKCDlZr3QXic1OwVLm0CMvGhI7eL8cwXk77oePUEQsiFq6eOKiElD6ysr73jRo1wtChQ9VxIZLu37+vLIvHjh3LEpKlQkcE3MCvF0OW28QCtXPxTGye9aUKtFjriV6o33UA8hUKSauXQifLIWAGEnBJAi4ndGRpqkWbTggIzGt0wCRw4PHD+3DmxGFl6XD0JPFp5OvYnLRkyRLMnDkzXda6detiyJAhytcmsyRHOHzyySdpWWS31TvvvKOWIIwlEUqyLFGyZEll9WEcHXNGKPM82RE6+sjGxmqJjbqH6IjbaleSodCRnVo9xn6tRIGxJSr9kpbcM/tXzseyz4wH3tOLa2mHzI1Zs2Zh+fLlWQKyVOhIgXqBZqyC+7euqftcokJT6GQ5BMxAAi5JwC2ETkpKsoqKfPnCGaeLipxdoSOzVpYTxN9GRI8IGO2MKwkSeOXKFRUkcM2aNep4B32S62TXlRwTERj48IBIyXP27FksXLhQHfQpv1Po2ObZkB2hIy2o1Lg1mvcfhqLlwuHt66eciWMiI3Bq+zpsnj0V7V59XwUD1AuddCJGnI6XzcPKKRmP86jYqJXa3RQYXFBZT+QsrH8W/mC04xKR+/nnn4f46thb6EgDanXoqY6oKFAsVO04E6vWgzu3lGVLDjGVIyIk8CGFjm3mKUshAWcj4HJCR17GEiNHAgIykQAJ5DwBfQwnWdb84osvsGfPniwbYo1FJ8tCrchAZ2QroPESEnBgAi4ndByYNZtGAm5BQPy4RowYoeIvXbhwQUXojoqKyrLvFDpZImIGEiABKwhQ6FgBjZeQAAkYJyDO7QMGDFC+WwkJCfjll1+wcqV552NR6HBWkQAJ2IMAhY49qLJMEnAzAsOHD0f9+vXh5+eX5sslzvFyfpq5SRM6xo4sWbFiRbqo3eaWaU4+abv4r2lJOxYlKSnJbEdqc+phHhIggdwhQKGTO9xZKwm4FAERKWLNiY6OxtGjR5XAkbAEliRN6Bi7xtiOQkvKziyvqXotcaS2VVtYDgmQgO0JUOjYnilLJAESIAESIAEScBACFDoOMhBsBgmQAAmQAAmQgO0JUOjYnilLJAESIAESIAEScBACFDoOMhBsBgmQAAmQAAmQgO0JUOjYnilLJAESIAESIAEScBACFDoOMhBsBgmQAAmQAAmQgO0JUOjYnilLJAESIAESIAEScBACFDoOMhBsBgmQAAmQAAmQgO0JUOjYnilLJAESIAESIAEScBACFDoOMhBsBgmQAAmQAAmQgO0JUOjYnilLJAESIAESIAEScBACFDoOMhBsBgmQAAmQAAmQgO0JUOjYnilLJAESIAESIAEScBACFDoOMhBsBgmQAAnkJIFnn30WnTt3Nlrlrl278OGHH+Zkc8yu69NPP0W5cuUy5I+JiYH8duDAAbPLYkb3IECh4x7jzF6SgNMSGDVqFOrXrw++yGw7hJrQSU1NRVxcHORPLe3ZswdffPGFbSu0UWkffPABypQpk1aal5cX/Pz8OD9sxNcVi3F5oePt7YOSpcshtGwF5AvKD18/fzWOiYkJ2P73akTcueWK48o+kYDLEHB0odOkSRN0794dQUFB+Prrr53GoqAJHWcXkK7SD5e5YR2wIy4tdETcVKvdEL6+fhnQU+g44Gxkk0jACAFHFzrO+qJ11nYbThFX6QdvfvsRcFmhE161FsKr1lbkIiPu4MSR/bhz+wYSE+LtR5MlkwAJ2JwAhY7NkaoCXUUguEo/7DPKLFUIuKTQCSleCg2atVYjfHjfTpw/czzd+jOHngRIwHkIUOjYZ6xcRSC4Sj/sM8os1SWFjpeXNxo1b4vCIcVx+vghHDmwyylHOjQ0FO+++y7y5MmjnAKrVKmC9u3bK6e7kydP4qOPPkKFChXw0ksvoVChQoiKisKCBQuwcuXKDP0tWrQoevTogXr16ik/Ag8PDyQnJ+PWrVvYsGED/vjjD/VvLYnPwcsvv4zAwECcOHECY8aMSfe7voKxY8eiRo0ayhHwm2++wbZt25yStyM1Ojg4GE8//TQaNmwI+bs4W8r4PHjwABEREShcuDCOHDmCjz/+GI888ghGjhypxnX58uWYMWNGpl2pWbMm3nzzTTW2S5YswcyZM9Plf+yxx9CxY0eUKlUKvr6+6gNBxvbUqVOYNWsWzp8/n6F8wzJnz56Nbt26oW3btihQoAA8PT1VGVu3blX1ieOrsSTzU3xdxNHU3/+hL11CQoL6U9pia18S7QUp98HEiRMREhKiuJcuXVrVJ8zPnj2rmMo9pyXh079/f/j4+Jg9bQxZ24qZ2Q0wktEagaA9l4oUKQJtZ1arVq3UeAs/masyvgcPHsRPP/2EmzdvpqtZfhfHcpkbZcuWRb58+dQ1Ms9iY2PV/Fq4cKFFfk7W9MNSboZ1XLt2Tc0BGUe5l1JSUnD37l31DF6/fn2G4oWXzJtatWpB/i7Pce05LPe03Btyrf7eEC7jx49X97jw2bJli1EH8TZt2uD5559X94zw/uSTT9S8ZfqXgMtZdAoVCUHjFu2QnJKMbRtWIvLeXaccb+2Bkj9/fuzYsQMNGjRQD19JclOtXr0adevWhYgYLV25cgWyI0H/cGnWrBkGDhyoXpjGktxAp0+fxueff552nTx85AaTF879+/fVb4cOHcpwuf4lm5UgcspByIVGy5gOGTIEBQsWVLXHx8erF663t3fa+Mt/114yJUqUUEJU5oE5W4JFLMtDWx6yIlxEHEmSh+Trr7+uXkLym7EkD+HffvsNixcvTvez/qW9Zs0aJcBl+69hOTLXpI2yBVgvrOWBPmzYMDRu3Fi99Ewlewmd27dvY+/evWjZsqVR8XLv3j1MmzYNshNJkq2FjjXMbDE1rREIeqEjzCTVrl3b6JyR58qkSZMQGRmZ1lz9XDHVB5ln8+bNw7Jly8zqpjX9MKtgXSZ9HStWrMDjjz+uPi4MkwjzuXPnYunSpel+0qySpurVnsOTJ09OxyssLAxvvfWWur+Fi4jHv/76K60Y+e/vvfceSpYsqYTit99+qwQRU3oCLid0Kj5SA1Vq1EPEnZvY/vcatbvKGZP2QBFrTVJSkvqal4dt165dUa1aNWXBkS8JETzyd7HYyE0meTSriuQbMWKEEjnykpAvjUWLFqmy5KUiX69yg8gLaffu3cpCoL2A+vXrhy5duqjf5EH8/fffZ8Co5ZEf/vzzT8iXPJP1BPQPNXm5zpkzJ93XYbt27TBgwAAlSvSiRosrcu7cOWWtySw99dRT6NWrlxJQYinUXt7Dhw+HiGJJZ86cUV/VUod8fcrcatGihRJaMnfEcvfPP/8YfXlJufK1Kl+3MtfEYqhZHmWuGbP8DRo0CNI3sfyIWBcxtX37diU6ZA737NkT5cuXt5tFR9tWLR8Q+/btw/z583Hnzh0899xzaNq0qRJfEptFrD56gaYBsOZFq3/hW8PM+ln275XWtFsvdKTdMieio6PVM0KEiXwkiTW4cuXK6rklgkUvjKtXr66EvIggeeaI5UeEkMyzPn36pPGWeTBhwgRldc4qWdOPrMo0/F2rQ8Zf5ol8eIiVT/p39OhRFY9I7q2AgABcuHABYumW57KW3njjDRQrVkwJ6p07d6p7TOaVPIfFMiRWWilb5r78T5+efPJJxUZY37hxAyKGLl26pLJo96328fvjjz9a2jW3yO9yQqdOo0cRWqY8rl2+gMsXzqBchUcQXLAQfHweWkPi42Jx9fJ5nDx6AHGxMQ47yPoHitwA8rCQLwV5SIjZV5JmRZGXgbzg5MWg/0rXviJMfWWIAJKvAXnBGr6A9NYaYzeu3KTyIAoPD1cvNbn5aC7N3nTSHlry5Wbsy0z/ctQLHW2cxZwuljh5Oegtgvo5oT2wZcxE2MqSlFhxhg4dirx586oXkOFXuPRKHuTysJU5tn//fjX2WtK3y5iFUPJpAkvEjIhiaZMkvRg3Vbe9fHT0AfMSExMhX+q//PJLWr/0czwzy6Y1L9rsMMveLLOd0JGSrl+/jilTpqRb2pOl71deeUW99EUQy1KKOUl4y3K9sBHrhP6jLbPrreFvTnv0efRzRZ7HIuzEuqIXvtoyvnwMyMeHMSu4sXrlA0Oe68JLhJ/cw4ZJxGPr1g/9TkUoyb2rX7KS+1iEuF5cWdpHV87vUkJHHqL1m7ZCsRKl042ZWHWSEhOVgtbi6MTHxWHHlr+U5ccRk17oXLx4EePGjVNfPtoNpzdjag9NvdCpWLGi8t2QJZDMlpXEQvTMM8+oL5S1a9eqF6yWZElE1pSNPXT0fjzmLJk4ImNHapN80cqDsnjx4ibHy5TQkaVJWU6RJRgRKSJM5SEolhL5CsxKFGniWQSxfBHqTeMaI/1ypl4kye/6donYleVT/XKFYR69v4pmFZSvf1N121voyMtKLKPGvobl3hC/IRFwYun5/fffM0wba1602WFmq3lrTbv1zyWZb+IraPiBY8yPx9w2a20S4akX6I4idMRyIs9JYxZua3hKv/S8TFll5aP0nXfeUdZRuU/lY0GsrOIXZWoczGXuDvlcSuh4+/igcYvHUbBwCJKTk3Dm5BGcO3UsneWmUOEQ1G38GAIC8+De3dvYtnGVQy5vmXpYGDpQignTmNARB8EXXnhBLSMYczrVJrfeciPLGPKi1JL+ZSnOcuKroyVxgpZ1ankgmXpBucMNZKs+im+OWHRkOdKUU7EpoSOm7b59+6qx0ELgi7+NPAglac62Mle0r04xnYsQliRfgrLUoM9nrF9amWL90y97mWqXOWzk4S1914s0w+vsLXQy8/0x5z6y5gWXHWbmcDUnjzXtNuelbE7dpvI4utCxRICZy8FcpnKfiOVVfINEnMuHvbTHmE+QuXW7Sz6XFTpXLp7D7u0bjI6jBBKs3aC5+krbueUv3Lh22eHGO7tCR3OYlI5l9mWU2U0mjm7yYpS1ZTFRi0lVHJ3l616WLuRaY8taDgfTCRqkd3A1JUxNvRy1pQKxyslYi2lbxk3GT75A9XNA8+exxsfH1EsoOy9trT2ZiazcFDr6vm3atEkt0xgmawRDdpjZajpb025zX8qZtVF8zOQjSXbZiQVT22En12jHOVgiKKzph6UMrRFghnXIMr/0W1wFxNIuQkVL8kEqfc/Kz06/hCzvr3Xr1imfOabMCbiU0JGJ0rBZGxQpVhKZCZ08+YLQrOUT8A8IxNGDu3Hq2EGHmyeOIHQEima5kaUFTTBpX7myLGLKUdnhgDp4g7IjdDSrnPjYiAOwiE/xkRBfAVlmkgesCBtxbhYfCFkm04spc52Z3V3omLK0WfOidVehI/2WpVL9blFjt6YrCR15Lw0ePBgSuiGzXYXCISuhoznuayEnTC25OvjjLseb51JCR+jVa9xSnW119/YNbN+0RvnmGCYROC3adEJAYF4cP7xXRU12tGQroSN+O+YuXRnztalTp45aUpF4PpoTquzkkt0omTloOhpPR2+Ptu1bxKOlFh39FnN5GYtlR74cZaeQOPiKj4nsIpIlRhGuYpHTW/nMsaoIP/3Slf6U6Oy8tMWpUnZUOapFRxsXuY/0TtT6+UShY97dJX4m4msocYpEyIiFTLZhazuIpBRrLCfW8Devxf/msqZd2tXiiC87B+W+lN1k4uclIUO0mDnmWskaNWqkRKLcv2KpFYuQqY0mlvbP1fO7nNAJq1QF1Ws3QmxMNDavW47YmAcZxjAouACatOwAPz9/7N6+EVcuOl5wpewKHb3vjSlPfgGjOSPLTSPWANkuqU+Gu6umTp2qXpaynJVZua5+49i6f7LtVnbOiVXG0FdK6pJxkN+1ODeGolQTK7JlV8zi8jKRsRRHdPHFkR0dEkxS/K4k6X1sNAGT2U4XvTOyfneXlJUdoSMxQuQBLluUpU1abBaNr1ijpN/SJ3vF0cmsXM1ROzM22ktQXjoSEHHVqlVZTo/sMMuycDMzWCMQzH0pG2uC3t/J0OdPy2+NoLCmH1Kf9EXEl3wMmApimZ12addqPnCmPgzNYaoPPSE7q+RjSHzzxF9HHP/Ff/Lw4cNmjrz7ZXM5oROcv6ASMbKd/MDurbhw9t+IpmkPz6q1ULlaHSWGtm5YiegH9x1u5LMrdPQCxVQgKf0XVmZbxDUxJJAkvolE7BVhZBgjw+EgOlGD9H5PMhYiXESkaElvspb/Zih0ND8W8aUSh2ZZatS2j2sPWvmalCUDeVBqv0lZeqdzU/FitK9SmVeGy5XZeWlr284lXpMIMX1kZ3m4SyBBuRck5bTQkfrffvttFeNEnLfFL83Y9l3NGVy+2M1dys0OM1tNa2sEgjkvZVPt0y/PGlsGlEjJr732moqYbO+lK5l3EkdMLHVyz3z22WeZhsewRoBpHLSPEGMO93I/9e7dG506dVI7JI0tXUke+VgRnyb9DkG9pchUaAZbzRVnL8flhI68gGvWa4rS5SoiISEe+3ZswvWrD4MrycO0bPlwVK3VAJ6eXjhxZJ9DLltpXxuaP4X+pWburivtBaaFBpeXhHxpSlAvLWCgmFMliJvcPBJD5OeffzY6n+WBP3r0aPVVrQU30zsnO/tN4Cjt1/yhpD3Hjx9P2+ovAcUk+qwkcUCUF6qh0NG2mMtYyjyXrzstHod+i7T8JkHHtHg7UqZhqHmJySE7OSQOiPjzyAtBdnDJS8EwYJlcn52Xtv7FKXNUAhWK38Gjjz6qAhXKERJXr15VAk2/q8wWY6a3xIhol5evFhdF4vvIrkVpn7GItPr69feH/j4z3GKvvyY7zGzRdykjp4WOfhlcXvpi/ZLgpsJPRJA41WvR3+0tdLTQGRpLU47m2u/ZETraR4jMLbFkyXNWnqPNmzdXVhlZetaiiBsTOvqPHH28HL2VV/v4MYw6bqu54uzluJzQkQERHxyJp1Ow0MPjEbQ4Or7Ks91bvSzOnTqqzsHSdqU42kBm16Kj9Uci6T7xxBMmz+WRm2/jxo347rvvTJ5nJWVpfjnmPhgcjacztEcfK8OwvfLgl8jW8rLQnzOk5dMsI/LwkzmtX4aUZTEZPy1kvX5ruXa9ofXEGC/ZcSdxlsTqY8uXtj7yq75cLfigBJ2Tr157CR2tTrkX5AUkR2Pp1QAAIABJREFUH0vaWUSmjr0w5GNocTP8PbOzrnIrDlVOCx3D5VdDRjLeEjNMOzPLnnF0JOq1PBc15+CsnICzI3T0vjXG7iv58JRI6HK+nGE79MEEjS1R6Ze0xIor52UZi/XkDM8/e7bRJYWOABNBU7ZCOMqEhf9/e+cBXlWxvf2VHkJP6CGhS5EmEHoTqVJFUFCKYK947aL80Ytdr+V+FtQroghcEVERBAQE6b136RAgtACBkJ7veYc7cefknGTnlLCz887z3Edyzy4zv5m9591r1lojJUqWVooZguds3EnZu2uLXIw/50uuHl/bW0IHFcHXI76O8VDoUE68wBGdAwuPmY04jdlOuYGnx93r8gKwXMAKh0SNemNJvPyQFh7WFGdWPlzM6P8AXwAsTe3evVvdx7iMib9dTawYG7DywdEclhQd2YEXLJwnUQdnVgpvWCdQf2xNgS1PUPDyx9cvJjtkhIVVy1dCBxOs3k8M98bfYAirGiYOZxuZOutAvbkllrq0ZUIfR6FzjQTGGPoSWx/oDYbh23T8+HFlUcMGl86yvOf2xLkj2IxWTFzbl0IH18eyk3HDWD3G4FMHKyYssvC/M9bDKGJ0vhyMI8fSq1cvtTUMxhyWVvExYtyixXdvq8JzZdsKncLTBawpCZgjYHRYvl5WAHM1LRxHuTNBFo6WmaulXdrvbjv0eaDlLADAHEUeVRgIUOgUhl5iHUnAQ18YAsxJwN0J0i4s7dJ+d9uhl+OdbT5qlz5mO64RoNDhSCCBQkLAG0tEhaSpBVJNdyfIAqlcAdzELu3PbzuwfAYfHSTwg4M9N8QsgMF2nW9BoXOdO4C3JwGzBCh0zJIyd1x+J0hzVy08R+n2w18EPnv4ry5YykFeIysWbBpbrVq1rKrpbSPySj+ASDqEr2v/MxWUcuiQ2tYDPkIs9iVAoWPfvmXLbEaAQse7HUqhM1Kwd5KzYmUfMJ2XxrHeeQkd/fwgPQPC27ELuTGlgHdHF69mJQIUOlbqDdaFBEiABEiABEjAqwQodLyKkxcjARIgARIgARKwEgEKHSv1ButCAiRAAiRAAiTgVQIUOl7FyYuRAAmQAAmQAAlYiQCFjpV6g3UhARIgARIgARLwKgEKHa/i5MVIgARIgARIgASsRIBCx0q9wbqQAAmQAAmQAAl4lQCFjldx8mIkQAIkQAIkQAJWIkChY6XeYF1IgARIgARIgAS8SoBCx6s4eTESIAESIAESIAErEaDQsVJvsC4kQAIkQAIkQAJeJUCh41WcvBgJkAAJkAAJkICVCFDoWKk3WBcSIAESIAESIAGvEqDQ8SpOXowESIAESIAESMBKBCh0rNQbrAsJkAAJkAAJkIBXCdhK6AQGBUmbjt0lvFxFU5BSU1Nk9Z8LJP7cGVPH8yASIAESIAESIIHCRYBCh0KncI1Y1pYESIAESIAE8kHAVkIH7Q4JCRU/f/9cEUTXqCP1GzWXq4lXZOWSeXLl8qV8IOOhJEACJEACJEAChYWA7YROXuCDQ0KlTaceUqZshOzfs112bl2f1yn8nQRIgARIgARIoJASKHJCJ6p6bbmpZQdJSU6W1X/Ol4sXzhfSrmO1SYAESIAESIAE8iJQpIROUFCwtO3cU8qEl5MjB/fJlvUr8uLD30mABEiABEiABAoxgSIldLQ1B9FWq5bMozWnEA9cVp0ESIAESIAEzBAoMkLHaM05duSAbFm3XDIyMsww4jEkQAIkQAIkQAKFlECRETrampORni6rly2Qc2fiCmmXsdokQAIkQAIkQAJmCRQJoWNMJHjy+GHZsHoprTlmRwiPIwESIAESIIFCTKBICJ3I6JrSrFVHyczIkDUrFsrZuJOFuMtYdRIgARIgARIgAbMEbC90jNYcCJw1yxdKenqaWT48jgRIgARIgARIoBATsL3Q0dYc9NH6lX/IqRNHC3F3seokQAIkQAIkQAL5IWBroRMQECitO3STchUry/mzcbJ62e+SlpqaHz48lgRIgARIgARIoBATsLXQqVQlWmLadRE/Pz/ZvG65HDu8vxB3FatOAiRAAiRAAiSQXwK2FTpGa86F82dl1dL5gkSBLCRAAiRAAiRAAkWHgG2FjtGas3XDSrXlAwsJkAAJkAAJkEDRImBLoWO05iRcuiArl8yT5KSrRatn2VoSIAESIAESIAGxpdBhv5IACZAACZAACZAACFDocByQAAmQAAmQAAnYlgCFjm27lg0jARIgARIgARKg0OEYIAESIAESIAESsC0BCh3bdi0bRgIkQAIkQAIkQKHDMUACJEACJEACJGBbAhQ6tu1aNowESIAESIAESIBCh2OABEiABEiABEjAtgQodGzbtWwYCZAACZAACZAAhQ7HAAmQAAmQAAmQgG0JUOjYtmvZMBIgARIgARIgAQodjgESIAESIAESIAHbEqDQsW3XsmEkQAIkQAIkQAIUOhwDJEACJEACJEACtiVAoWPbrmXDSIAESIAESIAEKHQ4BkiABEiABEiABGxLgELHtl3LhpEACZAACZAACVDocAyQAAmQAAmQAAnYlgCFjm27lg0jARIgARIgARKg0OEYIAESIAESIAESsC0B2wqdoKBgqXlDA4mucYMUCysufn5+kpGRLpcuxsuBvTvlxLFDkpGRYduOLeoNCw0NlTvuuEPatWsnZcuWlYCAAElPT5e4uDhZsGCBzJkzJ1dEFSpUkLvvvlsaNWokpUqVUuMnKSlJDh48KDNnzpStW7cWdcRsPwmQAAkUCgK2FDplIypIq/ZdJSQ01GUnnIk7IetX/iGpqSmFoqNYSfMEWrduLaNHj5aIiAinJ2VmZsq6devkX//6lxI/jqV58+by0EMPSXh4uNPzIXimT5+ep1gyX2MeSQIkQAIk4CsCthM6IaHFpN3NvaRkqTJy5lSs7Ny2QS5dOC+Y3EJCQqVGnfpSp35j8fcPkL92b5Nd2zb4ii2vex0IwHozfvx4iYqKksuXL8vSpUtl1qxZ6t9du3ZVVp4yZcpIamqqTJkyRebOnZutljjvxRdflIoVKyoLzpIlS+SHH35Qx/Tp00d69uwpYWFhkpCQIBMnTpQ1a9Zch1byliRAAiRAAmYJ2E7oVImqLi3a3CzJSVdlxZLf5ErCpZxf7G06S9XomnLuzClZs2yhpKWlmuXF4woBAVh0Bg4cKFOnTs2xxNS7d28ZPny4BAUFyZ49e+Sll17K1qIHHnhAunfvriw9M2bMkB9//DHb73379pW77rpLgoODZcuWLTJhwoRCQIRVJAESIIGiS8B2QqfujU2lXsNmcjXxsixbNEeSribm6N2GTVtKrboN5fzZOFm97HdJS7Wu0Bk5cqT069dPEhMT5b333pOTJ0+qibpJkybKsgA/o/Pnz6tJ+Y8//sjR1vLlywsm96ZNmwr+HRISovxNMJHHx8fLypUr1bmwXhSFAosNxA1YnD59WgmVEydOqKbDLwfWoEqVKsmRI0fUv2G5MRb4+uCcunXryqVLl+Sdd96R3bt3O0VXs2ZNeeyxxyQ6Olr12wcffKB8fFhIgARIgAQKjoDthA6cj29q2V4JAPjgnDpx1GGiCpTWHbpJuYqV1W84xspOyUah89tvvylrA5xjHUtKSopMmzZNfv3112w/vfDCCxITE+NyRGFJb//+/fLmm2/KxYsXC27kXac7GYXOmTNn5PXXX5djx46p2nTp0kXuu+8+Za2Bs/LkyZNz1BIWnUGDBkmJEiXU8hesRo7M9UljxoyRjh07Zl2DFqDr1Om8LQmQQJEmYDuhU7xEKeWjg0irq4lXZN3KxXLh/FnVybBkwOJzQ4OmkpmZIRvX/Cknjh229ADQQgcWGAiywMBA2bdvn3KG3bVrl7L23H777VKsWDGnVoinn35aWSg2bdqkHHAPHDigIpDatGmjLEPlypVT1h34oWhfFEsD8bBy1apVk7Fjx6p2Hz58WJ577rksh2Tw6N+/vxIw33zzjcyfPz/rbojiuv/++6VDhw6Kny7w8Zk0aZLTWj377LOCZTRdnC2Vedgcnk4CJEACJJAHAdsJHbQ3MrqmsuoEBARKenqacjo+cnCfNGzaSuDDg7J/z3bZs2OTpa05qKcWOvg3BMnvv/8uX3/9dbZoISyxNG7cWDncYnlr+/btpgZ++/btVXQRRNK2bdvk1VdfNXVeXgcZrSZ5HYvfHS0rZs5x95gBAwbI0KFDlVgByy+++CLrUmDRrVu3rGVCHUJetWpVgXWmRo0a6lhYgLDMBfGzfv16eeutt5xWByIHPj+lS5dW1/z2229l4cKF7lad55EACZAACbhBwJZCBxzCIypIs9adpHiJktmwpKQky47Na+XY4f1u4Cr4U7TQgTUHk6RxYta1cfTjMZvjxShIDh06JM8884xXGmhVoQOfGVhZIFKwTPf+++/Ljh07stqsl/m0PxQ4durUSUaMGJEVqQUrz7Jly+T5559XVqHchA4uDJEDHhBHRWFp0CsDiBchARIgAS8SsK3QQXh54+ZtJKJ8JbVkpQuSBh499Jfs3LK+UERbaRHjKhzak7HgK6HjSZ18dS4EB5asateuraxhP//8s/JpMhaj0IHjMKxkCCdHhNaFCxeURebPP/9UwkU7NOcldHzVHl6XBEiABEjAHAFbCp2q1WpJ05h2aunqQvw52bJ+hUhmpjRo3ELKV4pUwudi/DlZu2Kxis6ycvGG0EGEEJyYYdFAEjx/f/+sJiMKC8s43rToWI0nlpj+8Y9/CBIBorhKFqiXrhCBhogsCBoUsPnoo4/k+PHj6m9kS4b1Cw7JFDpW623WhwRIgASyE7Cd0EE0Vev23cQ/IED27doie3duUckCdYGPTtOY9oItIk6fipV1KxYrPx6rFk+EDgTMgw8+KJ07d87mQOusrXYVOo4iB8IEfkzOMiIb/aHACMcsX75cvvzyy2zh923btpVHHnlE+TbNnj1bOS6zkAAJkAAJWJOA7YRO8/8lA0Sk1aql851u8VC7bkO5sWlLSU1JllVLF8iF+GtRWVYsnggdRGMhEzAitWJjY1Xyu7Vr12ZN2r5aurKKjw6Wq5544gmVcyg3S47udyxTgTfCy+HYjT2tnIWOw5kZCQnT0tJyRGdZcQyxTiRAAiRQlAnYSugEBgVJm47dJbxcRRU2vn5VzgR66OwqVatLTLsuqt+RR+fEceuGmHsidJAjpl69eiqxHRxvHaOx7Cx08ityMBawtIftH7C8t3fvXhk3blwOy48xYSASNSL/UG5JAJGYENtJIFdRUUnKWJRfqGw7CZCA9QjYS+gEBknrjt2UA/KVywmyauk8SbyS0wfnxiYxUrteI9tbdLBEg5Dos2fPyhtvvKHy7OiCCXvIkCFq/yZYMOy0dGUUOYhWw35U8LFxtlzl+Ehqh2RXCRiNW0AgqzQEpKuCJa6HH35YZbBGxBUi5rg3lvVegqwRCZCAvQnYSuigq/QWEPj3pYvxsmXdCrl44ZzKlxNaLExq1mkgtereqDb1tLuPjp60McFjUkam3+TkZJX0DhN2lSpVsiLS7CJ0HC05GzduVIn/XGW/hqBBAkYtguCwjG0bkH0aYeY4F1mSUYybesJZ+d13383VmoMcOj169Mh6gzBhoL1fpmwdCZCANQnYTugEBgZJk5h2EhlVI1tYuSP+ohB1hYR1iCQqWTJ7LiHNAn4oCJtGQjy7CB344yAiClYUM8VZskIIGvjhwJHZWTFrnenVq5fKwQOLGUpBJkY003YeQwIkQAJFgYDthA46DeHjEeUqSp0GTaRsRHkVYYWSmpoiF8+fk0P7d6t9rqy8x5UefJ746OAaLVq0kMGDB6uNJTHhIgINPjsbNmxQzrajR49We2FR6Fzb70qX6tWry6hRo1TeHQgecIOFB0kEp0yZosLPzZQnn3xSkIEaY5JCxwwxHkMCJEAC3iVgS6HjXUS8Ggm4TwA7x2MPLSQddNxby/2r8kwSIAESIAGzBCh0zJLicSTgBoFhw4apjUJh0XHcW8uNy/EUEiABEiCBfBKg0MknMB5OAmYIIKpt0KBByoEZ/kJxcXEqFB17XrGQAAmQAAkUHAEKnYJjzTsVEQKvvfaa1KpVK8sJGf48EydOVP49LCRAAiRAAgVLgEKnYHnzbkWAAPIXwfk7Pj5ehfXPmDGDyQKLQL+ziSRAAtYkQKFjzX5hrUiABEiABEiABLxAgELHCxB5CRIgARIgARIgAWsSoNCxZr+wViRAAiRAAiRAAl4gQKHjBYi8BAmQAAmQAAmQgDUJUOhYs19YKxIgARIgARIgAS8QoNDxAkReggRIgARIgARIwJoEKHSs2S+sFQmQAAmQAAmQgBcIUOh4ASIvQQIkQAIkQAIkYE0CFDrW7BfWigRIgARIgARIwAsEKHS8AJGXIAESIAESIAESsCYBCh1r9gtrRQIkQAIkQAIk4AUCFDpegMhLkAAJkAAJkAAJWJMAhY41+4W1IgESIAESIAES8AIBCh0vQOQlSIAESIAECgeBF154QWJiYpxWdvbs2fLNN99YriFNmjSRZ555RsLCwnLU7dChQ+o3FtcEKHQ4OkiABEjAYgRqtuggg/7vEwkpXlL2rVok34+732I1LLzV0UInPT1dkpOTszXkt99+k+nTp1uucQ0bNpTHH388m9AJCQmRgIAAodDJu7tsK3SCgoKlToMmEhlVQ4qFFRc/Pz9JTroqsUcPyp4dmyU1NSVvOjyCBEiABK4DAasLnZIlS8o999wjjRs3lr1798p77713HSi5d0stdM6cOSOvv/66HDt2zL0LXeezwLxGjRoUOib6wZZCp0KlSGnWqpOEhIZKZmamEjgQOsEhoeq/VxOvyLqVi+XC+bMmEPEQEiABEihYAlYXOlFRUfLSSy9J+fLlZf369fLWW28VLCAP7kah4wG8Qnqq7YROmfBy0qZTDwkODpETxw7LlvUrsqw3YcVLSPM2nSU8ooJciD8nq/9cICnJSYW061htEiABuxKg0PFdz1Lo+I6tVa9sK6Hj7+8vTVt2kKhqtVwKmRIlS0u7m3tJSGgx2bxuuRw7vN+qfcN6kQAJFFECFDq+63gKHd+xteqVbSV0QouFSYdbektY8ZKyd+cW2bNjk1PusOpUja4pZ07FytoViwROaVYr2jRcvHhx+fDDD6VBgwbSs2dPgQPavn375O2335batWvLAw88IBEREZKQkCAzZsyQefPm5WhKhQoVZNCgQdKiRQspVaqUWr5Dm7FGvWTJEvnpp5+yMWjbtq08/PDDyvEN6+/jxo1zyWj8+PFqnT4xMVE+++wzWbVqldVQFpr6GCe3NT98KYu/fFvaDX1YmvW+S0pElBc//wBJvpIgO5fOkUUTX5eUq4nZ2la6YqS0GjhKasZ0lNIVqkhQaJjq64y0NEk4f1p2LZkjy6Z8lOO828Z+KDd26aeOPbZjvXz71FDJcHgmqjdtIwPH/T8pXiZCrl6Klznvj5U9y+d7lW2DTrdKq0H3SoUadSW4WHF17dTkq3Ix7oQEBgdLUEgx+fmtp+TghuXStOdg6fnEq+LvHyCL//OOrJ35Va51aTlwlHR94AV1zKIv3pJ1s77OOr5MpSjpMOwxqdPmFgkrXVb8/PwVswtxx2Xb7z/Kyumf5eCBk7s9NFZaD75f9cnMfz4q548fllvuf17Qj3AizsxIl4SzcbJsyr9ly7wZTusXXCxMutz7nNTr0EOKly0n/gGBkpmZIalJVyUotJiqi7edkfVEr51Yu3TpIrfddptUrFhRObempKTIrl275PPPP5fTp09n1Vv7hJjtdGc+MCNHjpR+/fqp9wWud/LkSRk+fLggqgjvm4yMDDl//rx6l/3xxx9mb5Wv49wROp7WG0t8vXv3lqZNm6rlPrzH9Xs4Pj5eVq5cqdqclGR+hYE+Oua73VZCp2xEebVsBUfk9Sv/kBPHDzslUad+Y2nQuIUkXkmQ5YvnSpLDhGEen++O1EKnTJkysnbtWmnZsqUEBwerG+JlsGDBAmnevLlAxOgSGxsrr732WraXU/v27WX06NFSunRpp5WFD9P+/fvl/fffzzoPjoavvvqqVKtWTS5duqR+2759e47z69evL88995wST3kJIt+Rss+VjUJn45xpUqVuY6lU+0b1QjQW9Bkmv5mvPpxtAr5zwpdyQ9uuLoHgvBN7tsr3L98nVy6cyzoO4mXIG5PU/TLS02TVfyfKkkn/yvrdPyBARrw/XaIaxkh6Wqos+/bfsmLqx14Dj+sPGPuh1O/QU030qENqcpL4iZ8EFbs22aNoQQGhU6NZOxWVFFqytEAULpz4Rq71ueWBF6TNHQ9ISuJlJUpwDZSGXfpJ90f/Twk4Z0Uzm/XaE3LhVHanVaPQWffTZGne924JKx2e4zJpyUmK55qZ/8n2W53WXeTWJ1+TUuUr51p3XwmdI0eOCN4ZrVq1UgLHsUCE4INKO+t6W+ggwql79+7q/eFYILamTZsmv/76q9fGmb6Qp0LHnXrnFtKOeun38JtvvikXL1401WYKHVOY1EG2EjqlSpeVtliWCgmV7ZvXyMF9u5ySqFK1usS06yKpKcmyaukCuRBvPadkLXRgrUlLS5PLly/Lp59+KgMGDBCEGsKCgy8gCB78GxYbvBxwjLaq4LinnnpKiRx8QeELadasWepabdq0kcGDB0tkZKSaSDds2CDvvPNOluVm2LBh0r9/f/Xb77//Ll988UUOlvoY/PDLL7/Id999Z37k8cgcBIxCB5YMWDASzsXJiqmfyrbfZ0qVuk3UxBgRVVOSEy/LnPeel11//pZ1ndvHfSxlI6vJ/rVLZO+qhXJy73aBiGjQqbd0uf95ZeWBiFg+5f8pK4Ox1OvQU/o89YYUK1VWEi+el9nvPCt/rbn2RX3z6Kel7ZCHlEXJmcDytCt7PvaKNO93t7rM/nV/yoKPX80SFRAgg8Z/KtGNW2YTOuWr3yBD35gksGKZEQK9n3pTmvUeIhdPn5D/jh0tpw/tFaOVCiJqy/wfZOW0T+VqwgXFrMPwxyUiqpZ6BvatXiw/jH8wm7DUQgdMMzMyxD8wUGJ3bZalkz+QI1vXKGtPh7sfk+Cw4hJ3cI9MefouZQ1DqVynoQx65VOBNQlCaPvin2X5dx/LxbhYQdsa3dJfWt0+WgJDQk21Lz99oCddTK4oeL8sW7ZMfvjhB2VpwIcRrLQoixcvVpZax+KuM7K2jMCijA+2wMBAZaFGSDesSLD23H777VKsWDGBEIPFGO83bxZPhI679X766aelUqVKsmnTJlm3bp0cOHBAiUu8h2HRKleunHr3og/wPzOFQscMpWvH2ErowAG5beeeUrpshJyKPSrrV/2hHibHkiV0UlOUQ3L8uTPmiRXQkcYXCR6An3/+WX3hPPTQQ9KtWzdVC21FgaBBwqigoCCZMmWKzJ07V/2uH2hXX0cQQC+//LLUrFkzx9KT0Vrj7IWDh3TChAlSt25dZWrGl8jBgwcLiI49b2MUOq4sCe3velQ6jXxS/AICZPWML2TxF+aiXWC56P2PN9Ske2jTSvnu2WE5ILa/+zHpOOIJCQgMktjdW2T62NFSsWa9rCWr+JNH5fuX75czh/d5rQOMYuPgxhUy/cV7ciwTaUuV0aKDCtz/+Rxl8Tq2Y4NMHjNY1al2q5sFS3EoP73xpBJ9KPoaZ478Jd88eacSHPr/c2Vxgcga+tZkJUqcCUstdHB9LHVtmjtNFnzyz2z1H/bud8r6lJRwUVmSwB5FLxempyQ7tfb40kfHaF3ABxDeK8Ylb1iJITAwMZ86dUpZd41LWKi/p0IH18B7DR9RX3/9dbalcb0cjg8yTObOrMmeDEBPhI4v6g2rO97rEHfbtm1TvM0UCh0zlGwodNCkujc2lXoNm0lGRrrKl3Ng744ssQNn5cqR1aR+4xZSvERJFY1VGITO0aNH5ZVXXlEmTf1FhLVcvCAWLVqk1rcdhU6dOnXUslJ4eHiuy0qwEA0dOlR9WS1cuFAmTpyYNXrgm4M15atXr2azFOEAox9PYQsvNf94FOyRxsnt5F87ZPoL92RbYkJtHP148lqy0S0wWkBO7d8pXz7YJ0fjYP0ZNP4ztfwF/5LNv32vhERk/aZqop7z/ouye1lOHzBPKHUe9ZS0v+sRSU9NlfmfvCqb5/43x+VcCZ0hr38lWP6JO7Bb/vNwXyUwutz3nLS98wERP3/lt7Nw4uvqeo6iqEq9JnLHPz+XkhEV5fiuTfLNk3c49cNpe+eD0nn000r8bZr7X5n7/otZ9dNCB6w2zpku8z4al6Pujn48WDKDFefud76V8MjqLu9dEEInt+WhMWPGSMeOHZ0++94QOvgAxfvGmaXY0R9m69atngyxHOd6InR8UW+jaMxP8j8KHfPDwlYWHTQb/jlYlipfsYqiAMGTnJSkzM+ItDL6OxQWoWMUEvolYHT0cyZ04GB43333KVN0bmnNjZabjRs3yhtv/O3r0LVrV7n33nuVbxCc5eCrowucoLG+npqaKl999ZUSXCyeEfDl5GZG6KD2OO7O176UspWjldgRPz+1LLNx9lSZ//ErnjXQydlarBiXlBwPcyV0ejw6XloOvEct98D6BEvTPR/9IFENW6hLQCxOenSAhBQvJSM//F7KV6ujHKh/eOXhLGdmLA/m5uMT3ShGBr8yUcLKhKulvP++dG8OoZOempLDwTk3UBBnt730kYSElZB1sybLgk9yfsH7ciyYmejx8TNw4EBlaTFaiXW7PLXo4L3h7LpeH2BOLmim/Y6n6feuL+pNoeP7Xred0AEyiJnI6JpyQ4MmgnByFXmSkS5XLifI8SMHJCU5WZq0aKsSB8IZ+WriZd+TzucdXL1IzAodePhj7RcltxdKbg+ZKxM2nJWxbIVzfbWOnk9ctjjcG5Nb1RubS/M+d0mlOjdKqXKVxM//miMvBEtQSKhy9nVl0dEQ63fsJX0k10p3AAAgAElEQVSeelM5+qK4WlLyBnRtaTGKFbNCRy/jwZ8Jy0JYgoIoCSlRUjkypyQlquUrXFv782hRk1sUlvH+uQlEba3Jr9DR9w4ICnYpsrwxFlz1j5mJXr8/sEQNvz7HbREodK65B+SnYJkfH4dwFYClHSsMuriznQMtOubp21Lo5NV8HXUVf+60rP7zd0tuB2EFoQOO2nIDh0UtmLS1CJYeV47KefUBf89JwJPJDctO8MFp3G2gcorNreQldFoPuk85IMMR1lWEl7f6zxOho0PMUZf5/x4vJcIrKP8l+OGAQbno2mr56sCGZSpCKzA4JMvyQqETo9JLuNoCwfihNHXq1BzRTxQ65oUOxOKDDz4onTt3dhrdZnyWuHTlrTdL9usUOaETEBAorTt0k3IVKyv/nR1b1vmGrIdX9ZbQgYOy2aUrZ742zZo1kyeffFKQz2fLli3KkoNIrnbt2uUaeu5h84vk6Z4IHaMj8bljB1X4954VC7Jy5phdujJGAyGfiwiWrtJ9tnR176e/qLB2dyw6OsQc+WaQS6dWi47Kh2nTnGnK6brRLQPU8tWaGV8qEYj26NByM1YVDELj0pVjdJe7Fp0W/YdLt4deUsLL1bKZJ2Mhr4fHjEUH1mBEXWKpBrt5z5+fPWcShY55oYMosjvuuEP5QSKc/8cff1QpQ3TOHC5d5TViPf+9yAkdJAq8qVUHyczIlNXLFsi5M3GeU/TBFTwVOkbfm9w8+bUzMsyozkzUjtFVH3/8sbLyICIjPxECPkBku0t6Mrlp3xSEhiPni47u0ZDMCB1jPh0sA62e8aU07Npf+eukJiWqiCI4KOdVQkNDVTJLOM/ntWHi4Fc+E4S2I6rpp9fHZIW063sYw94do66Mbdo0Z7rUiumoltsQdo+Eg0goCCdnJOuLGTBCLsefzQotNwoYV1FoqIN2RsbzsWLap7L067/91NwVOsYcQK5C4/s8/aY07XXntdB2L+9ebkbo6MgnRFQi7cRff/2VrduN7yeESiPwwUzxpa+LmfvjGDPtd7yWJ/WG1axevXouPwwpdMz2nPvHFSmhU7FyVWnWupPaB+voob9k64aVTsPP3cfpvTM9FTpGgYKoKURTrVixIlsFEV6OaK7o6OhcQ8S1GMLJq1evVgnG8OLHuj3C3lm8Q8AToZO1BGTIE6NrhWWtzvc8lZWXxdXSVa8xE6R5n6EqYknny0E+GR2WjoR5M195RFlJXBX4dWHSw67KcGSFJWDSpEkujzeGy2+Z973M+dffUU1G6xIu4Ch08P/pdiPyKqJqDYk/dUyFjyPjMEK7y1appqKyKtVuoJa0dGg5mIz8cIZUbdBMUhKvyNwPxsqOP2ZnqyeE37D3pqpMzQlnT6nQemPb3RU6yFWknaOdWbK6PvCicrKGDw9KQQud1q1bq8zoJUqUcLlhJ94vEEDVq1fPV3oJTwSDd56yghc62pfm7NmzKtgDfo26gOOQIUOkT58+KuiDS1fe6uXs17G90AkKDpGIchWl5g0NpFyFyuoL6dyZU7J2+SJL+ubo7vFU6OA6iJoaNWqU4Asb+TIw6cyZMycrYSDMqUgYiAkJ2T4nT57sdJTBee7FF19UDnTJyckqkstVfg3fDNOicVVPhI6OTELyup1LfpWFn72utk9oeEt/gc9NeNUaWRGHzoSO0S/HMV+OTugHR+YTe7cpq4gxs7KxdzBJPvbYYyonCAoya2NC3L17t9NOhJhBlFfJcpWUkFk+9WPZOPs7adT1Nuk4YoyUCC+v2oHoKGdCR0dtpaUkq6UgYwj4gLEfqOUr/Zsx3w4qc9Otd0qPR/9PbZWBa2/4ZYqs/XFSVsJA3B/JGcEU0VE6VF03xF2hg/MRMRYzYLgSlcd3bpA5/xqrLosMzrVjOklyYoKqN7j4SujA4oZnHskCdenQoYOMGDFCPev4HZGWO3Y4F7bafw/nwuKDfDx55bwpikJHW5DwnkX0KpjjPQrWffv2lSpVqmQ9mxQ6vnnX207oYL+rjl37SLGwEjmIwbHyyMF9snPLOklLS/UNUS9d1RtCB1XBS+vWW29VyQSdFTx8S5cuVfva5Lbnl/bL0dfAy/Gjjz7yUmt5GRDwROgYl3ic0US23yvxZ5WDrqPQQaTWoPGfqJwyzpaojEtaeIYcLS/G+2HcQhRj3yQUM+G4RpHlWHeEjB/fvVlu6nWnU6GjMx6reyVfVU7JyHCshEzvIdLz0fHKqRpFh5Yb7+FoPXG8PxIBbls4S1l8HPf/8kToGJk63hN9gC0jGncfqPIY+Uro6Psinw6CDWBdwEcMCkQOLHGOVmBjXfEB9Oyzz2bbhsb4e257XZkZF756KxT00hXEPxICIlrVWUFixAsXLkjVqlVp0fFRp9te6KQkJ0nilctqqSr22CHB34WheEvooK3Is4MtIvBignUHBY5wMKHCwmNmI04kCHzkkUfUlzo38PTNCPJE6KBGN7S5RToMf0IttcC6AefbxIvx8tfqxWp7AVgvkAzQKHSyiZhcEt8h90u/595Vezm5yiSsqRgtiWYntKa97lAWnFLlKykH6KSEC7JzyRxZ/OVbKpLKuHmm3qcK99MJB7E9xfnYwyrjM5aDUIyJ+fB3bo6/2KoBIfl6M9GUq1fUNhGI2jJus2HseU+Ejq5f90deVk7UEGMQVacO7JLlU/6ttpzQy3K+Ejr6w0bvc4W/IXCQTwv+eo7ZkJ2NeixVwnEZW0YgYMGYp4xC529i2FAZW+7ATQBLVPhggLUTW+/MnDlTbbsRExNDoeObV6u9toDwESNelgRIIB8EjCIdovjDDz9Uk6e7Jcth+X+7hBuFjrvXLMrnuWPRsBMvu7SfeXTMj0rbWXTMN51HkgAJ+IJAo0aNVAoC7ErtjYSSrjIj+6LuReGadpno3e0ru7SfQsf8CKDQMc+KR5IACeRBACZ6+IXByR2+H99++222DSPdAUih4w411+fYZaJ3l4pd2k+hY34EUOiYZ8UjSYAEXBBAUkn4GMCZFX4a8AFDosrvv887705eUCl08iKUv9/tMtHnr9V/H22MgkL0k7Eg+tRxuwt37+PN8xo2bCiPP/64hIWFZV3WnW0jvFmnwnQtCp3C1FusKwlYlAAmD1hzrly5Irt27VIC5/Dhw16pLYWOVzBmXYRC5wUlyp2V3LLIe7cX8nc1vXGzUejoK+QnJD1/d7XP0RQ69ulLtoQESIAESIAESMCBAIUOhwQJkAAJkAAJkIBtCVDo2LZr2TASIAESIAESIAEKHY4BEiABEiABEiAB2xKg0LFt17JhJEACJEACJEACFDocAyRAAiRAAiRAArYlQKFj265lw0iABEiABEiABCh0OAZIgARIgARIgARsS4BCx7Zdy4aRAAmQAAmQAAlQ6HAMkAAJkAAJkAAJ2JYAhY5tu5YNIwESIAESIAESoNDhGCABEiABEiABErAtAQod23YtG0YCJEACJEACJEChwzFAAiRAAkWQwMiRI6Vfv35OW75+/Xp56623bEeld+/eMnz4cAkKCsrRNru22Xad6EaDKHTcgMZTSOB6EGjSpIk888wzEhYWJkXppfzCCy9ITEyMJCYmynvvvSdbt269Hvhtd08tdDIzMyUpKUnwX102btwoH374oe3a3K1bNxk6dGg2oRMSEiIBAQG2fKYeenGkNG7ZQM6fiZdPJnwtJ4/F2a5PzTSoUAidgIBAqVGnvtSp31iCg0Mk9ugh2bB6SZ7t8/Pzk8ioGlKrXkMpVbqs+PsHSGpqisSdPC77dm2VhIvxeV6DB5CAVQhQ6FhT6LRt21YGDhwopUqVkk8++aTQCDEtdIqygIyKipKXXnpJypcvX2BCp+0tMdJzcBeJqFBW0tPS5adv58mSOSvy9Zrpd3cP6X5bZ/EP8FfnbVu3Sya++U2Oa1DoXENiaaEDoRJVvbY0aNxCQkKLZXWiGaETFBQszVp1lEqR0U4HUHp6mmxet0Jijx7M1wDjwSRwvQhQ6FhT6BRWwVBY6+3N568ghU6jmPrSf1hPqRxVUTC3oaSlpuVb6NSsV03uf3aYlA4vlYWCQif3UWFJoYNBULlqdSVwipcoKRkZ6XLs8H6pVCVaCZ68hI6/v780adFOomvUEQiaPds3yeEDe9W/S5eNkJtadlAWnpSUZFm7fKGcP3vam88Or0UCPiFAoUOh482BRaEjUhBCp37TG6Tv0G5SrU6UEjiX4hPkYnyCRNWskm+hAwvOo+NGS/0mdSQ5KVkCAgMlMDCAFp08HgxLCp3QYmHS7uZeUqJkabkQf042r1suKclJ0rFrHykWViJPoRNRvqK06dhD/AMCZOuGlXLk4L5sGCCe2nTqIcVLlJKTxw/LhtVLJSMjw5vvEF6LBLxOgEKHQsebg4pCp2CEzr1P3yXN2zeR9PR02bFxr8yc9KsMHt1X+c7k16LTtX9HwbIVPubXLt0kTds0lGJhoRQ6hVHooM616zVSDmL79+xQlhiIH7NCp2lMe6lW8wa5cP6srFo6X/nlOJbadRvKjU1bSnJykqxaMk8uWcxfR39pFC9eXDkFNmjQQHr27ClwnNu3b5+8/fbbUrt2bXnggQckIiJCEhISZMaMGTJv3rwcba1QoYIMGjRIWrRoofwI8FWBh+7MmTOyZMkS+emnn9TfusDn4OGHH1ZOr3v37pVx48Zl+914g/Hjx0vjxo2Vo+hnn30mq1at8ua7uEheKzQ0VO6++25p3bq1lC5dWj0HcBRNTk5W/Y/+087I9evXl+eee07169y5c2XSpEm5MjOKpdmzZ8s332Rf1+/cubMgMqVq1aoSHBys7ou+/euvv2TKlCly+PDhHNd3vOZ3330nt912m8Dxs2xZ+Mb5q2usXLlS3Q+Or84Kxid8XapVqyZggJKScu3ZRV287UuiJ3o8B6+//rpUrFhRBg8eLNHR0ep+eCYOHjyomOKZ0yW3yB1X8B1Ze4uZJw+IO0LHmQWkS5cuqr/BD2MV/btt2zb5+uuv5fTp7NZy/A7HcoyN6tWrS8mSJbPG99WrV9X4mjlzZg4/p65du8qoUaPUuLh48aK8//77smPHjmzNx7VfffVVwTOBvluwYIF89dVXuSIqCIsOBE3fod1lyZyVsmrxelUf7TuTH6GDJa+HX7pHylUMlwO7D8uCH5fIqKeG5kvo1LghWrrf3lnKVQhX/j1JiUmyc9NemfGf2ZJw8bInw8nS51rSouOMmFmhExIaKu1v7i0lSpWWPTs2yd6dW3JcDhad5m06S9nw8uo3WHSs5qujH8AyZcrI2rVrpWXLlurliwLrEx7i5s2bC0SMLrGxsfLaa69le7m0b99eRo8erSZMZwUT2f79+9WLQ7+U8PLBCwMTzqVLl9Rv27dvz3G6cZLNSxBZ+imwUOXQpw8++KASr7kVLXSqVKmihCjGgZlILIhlTHAQSxAuEEcomEDGjBmjJiHtP+B4f0xgP/zwg/z888/ZfjJO2r///rsS4DVq1MhxHYw11BGRU0ZhjQnqiSeekDZt2qhJz1XxldA5e/asbNq0SW6++WanYccXLlyQTz/9VBCJhOJtoeMOM28MWU+FDpih3HTTTU7HDN4rb7zxhhImuhjHiqs2YJxNnz5d5syZk+2Qe++9V3r06KHGyO7duwUfWcZxdNddd8mAAQPU74jMg3g1/u7sfgUhdJzd1x2hM+ofQ6VFhyZyJSFRvv33DElPz5D7nr3btNDZu+2AtOx8k9Nn7PC+o/LJa1+ra9ux2E7olClbTtp27iGBQcGybuViORV7NFu/VaxcVW5q2VEgiHSBGIIoslLRDyAmvLS0NLl8+bJ62eJBbtiwobLgwOICwYN/w2KDr18co60qOO6pp55SIgeTxB9//CGzZs1S18Kkgq/XyMhI9ZLasGGDvPPOO1kvhmHDhkn//v3Vb3gRf/HFFznw6GPwwy+//CL4kmdxn0DNmjXl2WefVaIFfbls2TL1dQuLA8ZDx44dpU+fPkrwGkUNhAOExaFDh1T4eW7l9ttvlzvvvFNZh2Ap1JP3k08+KRDFKAcOHFD3xT0QjYKxhXvjvhg7sNytWbPG6eSlrU7nz59XYw0WQ215xFhzZvnTExgsPxDrEFOrV69WogNj+I477pBatWr5zKKjw6rxAbF582b5/vvv5dy5c3LPPfdIu3bt8pw43REMxgnfHWbuj7K/z3Sn3kZhgHpjTFy5ckW9IyBM8JEEa3C9evXUewuCxSiMGzVqJA899JD6uMI7B5YfCCGMMwgVzRvjYMKECWrs64L32NixY9V4goD57bffZPLkyepn47sOH2zvvvuussblVQqL0GnXraUMGt1XgoICZdn81coCA98fs0JHj/GU5FRZNm+1LPplmZQuW1JGjLlTqlavnO8ltLy4Wu132wmdchUqS+uO3ZTVY/WfCyT+3LUHBS/RujfepELUMXmfPX1KiZ2Spcrk6fNzPTrN+ADiocbLYtq0aeolAbMvirai4CHHBIeJwfiVrvOPYNLEub/++mu2puDF8fLLLwsmWMcJyGitOXLkiPp6gqDSBV9NeBHVrVtXMKm9+eabpl4s14NlYbmnFhupqalO+8uVj47u55MnTypLnBZGCJuFRdA4JvTkhj6DsMWSFKw4jz32mJQoUUJNQI5f4eCHxHKYiDDGtmzZovpeF2O9nFkIcZwWWHgOIYpRJ8cJytW9fZVHx5gwD8wxcX777bdOx3hulk13BIMnzLw1nt2pt/G9hHqcOnVKPvroo2xLe1j6fuSRR6RYsWJKEEN0mCl4p2DMgg2WsYwfbfp8vG/wrgsPD1fW5o8//liNR71khXcd+tDZEr6zOhQGoVOydAkZ88/7pUp0JTl2MFY+/ucktcyUH6GDtl9NTJLZ382XP+etzkLRvF1jufvRQRJaLETWLdsskz/4r5muKnTH2E7oVKlaXWLadVF+OVroYNnrppj2UqFyVRXBhSis/Xt3Sos2naVKVHXLC52jR4/KK6+8or589MsJ5l2sgS9atEi9GByFTp06dZTvBl4IuS0rwUKEBFqBgYGycOFCmThxYtYgxpJI06ZNnb50jH48ZpZMCt2TUcAVhhUHYrJSpUou+8uV0MHSJJZTsAQDkQJhCp8GWEocrT/ORJEWz5gk4NOAMeVYjMuZRpGE44z1wlc0lk+NyxWOxxj9VbRVEF//ru7ta6GTmz8Hng34DUHAwdLz448/5mDjjmDwhJm3hqY79TYKA4w3+Ao6Wk48EQ+6ThCeRoFubHPfvn2V6MbYhjiGWO/evbv6gMU7zJn12RUzT+rqST/kZ+lqyIO3SfvuLQXWmGmfzZINy6+5Y+RH6KSmpMrsqQtk8ezl2aoNv59Hx42S8PJlXTo0e9JOq5xre6HjJ37Sou3NUiysuFxNvKIiuM7EnVD8W7S5WSKja1he6BiFhKMD5bFjx5wKHTgI3nfffcp51ZnTqR6ARssNljEwUepinCzhSApfHV3gBI2XC15IriYoqwzywlAP+ObAooPlSFdOxa6EDl78cF5GX+jMwfC3wXITina2xVjRzuNYnoIQRoEvA5YajMc5Y6avCeufcdnLk2gwLEWg7UaR5nhvXwud3Hx/zDxH7ggGT5h5azy7U2+jMDCzVJrfupoROrgmxi78FlEgQmEpdGURzK0OVhc6DZvXkxFP3CHFS4bJqkXrZeqnfwvt/AgdV5mRKXTyO0J9fLxZZ2S9dJWZkSmn42KlUpUolRH53JlTyuk46eo1Z6vAwCC1xBVRvpIthY52mERbXX0Z4bfcXlxGKwNM1DAPY/0bX/dYusC5zpa1fDwUbHl5o4OrK2HqanLUSwWwyqGv161bpwQN+k+nTdBjQPvzuOPj42oS8mTS1vXJTWRdT6FjbBt8prBM41jcEQyeMPPWA+BOvb0hdOD4jo8kRNlVrlw5K8IO7cLyFT7OcrPo4Djjsjv+hpURYwnW6/wUKwsdREX9Y8KDUqt+dYmLPSMfT5gk5+LOZzWPQsd8T9vOolM2orzKkYPMyFrt/7Vnm+zbuVWFqeuCrSTadu6pEgi6is4yj9H7R7p6AM1adLwhdNAqbbnB0oKeLPVXLkzHrhyVvU/E3lf0ROhoqxx8bOAADPEJHwk4DmMCgF8DhM3UqVOz0t0bxZRZZ+aiLnRcWdrcEQxFVeig3VgqNUaLOnuy8xI6Rsd9nJ8fB2Tj/awsdPQ2D1ha/emb32Tpb9lTd1DomJ8TbCd0YPnpcEtvCSteUmU+3rJ+hZw8fiQHEWRGbntzL7V3lrPoLPMIfXOkt4QOnEfNLl0587Vp1qyZWlJBPh/thIpILkRH5Oag6Rsq9r2qDvuGeMyvRccYYo7JGJYdfDEjxBbmfPiYIIoIS4wQrrDIGa18ZqwqIG9cujJurunJpA2HaERUWdWio/sFz5HRido4Eil0zD2XsMLA1xB5iiBkYCFDgASWVHUxs3QFqw98EuFErwv8c+y2dKX9eMzR/fso43YQee11xaWr/NL18fFml66wVgsnY2whcTbupKxZvjCbJUdXUycMhN/OyiXz5MrlSz5uQf4u76nQMfreIIQTy07OinZGBjdYAxAOaiyO0VWIcsBkCafZ3K6bv9byaITd4uUNq4wr526E7d5yyy3ZEgZqclqsIGQXDuiYTNCXMOXDnwERMIhEgd8VitHHRgsYV5EuON7ojGyM7sJvnggdhNMjMSJClFEnnZtFt8sYZeOrPDq5XVc7aufGRk/OcOZGQsT58+fnOaA9YZbnxU0e4I5A82Tpyujv5Ojzlx+hY0xHgGcFRYueFStW5GvXdXctOgiHxzsQgSKOjvdm8JtxRqbQMUPS3DG2s+ig2ZHRNdWGniKZsnntcjnusHGncQsIbA8Bq4/ViqdCxyhQ8JJGNBVeAsZi/MLKLURciyGci/wmrVq1Us5/jjkyrMawMNXH6PfkzLoxYsQIufXWW7MS2jmKIe3HAl8qODRjqVGHj2tnY+QmwZIB0gTo38DI6HTuKtEawsORzwbjynG50pNJW4ed44scQsyY2RnLE0gkiGcBpaCFDu7//PPPS7ly5VRuIfilGVMs6PGlncFhSTO7lOsJM2+N64IWOsblWWfLgMiU/Pjjj6uMya6WriCKIfjxQaCXq2Ct1JYiV6k0XDFzR+h06tRJRTTCyg2RgygvY14pM/1jRujkdR0uXeVF6O/fLSt0goJDsmVwDA0Nk1YduqqtIJAEcOvGv9crsYaZmpKc1arAoCBp1b6rwDEZYeY7t6yX40f2K8dM46aesOIgBP3K5b/zw5hH59sjPRU6egLTadMxSeBLE0m9dMJATFxI4uaYfMuxZXjhv/jii8pSoJObGZ2TfUui6FwdYeK9evVSFps9e/ZkhfoPHz5cZZ9FH2ICQD84Ch0dYo6+xPlIj6+teMYQafwWFxeXlW8HdI2p8xHBgnBd5F1CNmx8uSKxJCK4sHyDc5Ezybjc4MmkbRznaB8SFSIJJiYTJCrEFhInTpxQAs0YVeaNUWG0xEC0Y/LVmXSRmwpRi6ifMZWDs/sanw/jc5bbl74nzLzRdlyjoIWOcRkcUXawfiG5KfhBBMGpXmd/dyZ0HBNqGvPlQADB+oYPBohRfNiZER/uCB1YtJGhWRc8q8j/46ogD06VapXUx6EuXQd0VBtzYgsIhHzv23EtuSHmqBNHTpnajoFCx/yTYFmho0O/zTTF2W7msNq06tBNJQR0VpKTkmTtikUSf86aO5d7Q+ig3Y6WAEcWeLEvXbpUPv/881zTpWu/HH2+qwgUM/3FY5wTMGZ+dTxCp8XHXlTIguwodLRlBKIFL0vjMiSWxdB/2A8LxRharu/jaD1xVkN8QWMCgdXHWDydtI15UYzX1ckHMWENGTLEZ0JH3xPPAoQ8JiS9p5irbS8c+Ri3J3DGLre9rq5XHqqCFjpG3xpn24ygv7EUpPfMMvqRGZMJ4jhnS1TGPjDmHsvtfeOO0MHHCN6rWpTllZbh5j7t5bYRvSQwKDDPV19+9r6i0MkTZ9YBthU6aGFAQKDUqFNfatSur/Lo4OFKTrqq9rXas2Oz080+zaPz7ZHeEjqoJSYifB1jMtObJeIFjugcWHjMbMRpzHbKDTx91/ewXMAKh0SNemNJ5CvBtgjwv3EWHo7aGP0f4CSOpSnsB3TtOfg7izX+djWxYmzAygdHc1hScB4mf1gmsN8a6uDMSuGp0NH1x9YUeo8vWB3hx4HJDn5JsGr5yqKDiRPtxNITCv4GQ3ypY6NcZxuZOhsBenNLLHXpSVAfR6FzjQTGGPoSW9DoDYax3HT8+HFlUYuPj3ea5d0oYlwlpYQ1B5YVJEt1ta+aY7+5I3RwDZ3FHHMKhY7v3ofeurJlhY63GsjrkAAJkIAzAu5YNOxEsqi3H33prtAx+htBCMPhP68NRO00dgpbWyh0CluPsb4kQAJeIVDUJ/qi3n5PhI6ZTY+9Mkh5Ea8QoNDxCkZehARIoLARKOoTfVFvvztCB8u5cAPo06ePim505pxf2J6DolBfCp2i0MtsIwmQQA4CRX2i1+2HPwt89vBfXbDvHfIa2a1069ZNbWKMCEJd4HgOAZObUziSciLPFbas0P5Xrpzz7cbMDu2h0LFDL7INJEAC+SZAoTNS+vXr55Tb9YoEy3cn5vMEo2+N46m5tVn78iC1Axym4SgPR3UIRBbrE6DQsX4fsYYkQAIkQAIkQAJuEqDQcRMcTyMBEiABEiABErA+AQod6/cRa0gCJEACJEACJOAmAQodN8HxNBIgARIgARIgAesToNCxfh+xhiRAAiRAAiRAAm4SoNBxExxPIwESIAESIAESsD4BCh3r9xFrSAIkQAIkQAIk4CYBCh03wfE0EiABEiABEiAB6xOg0LF+H7GGJEACJEACJEACbhKg0HETHE8jARIgARIgARKwPgEKHev3EWtIAiRAAiRAAiTgJgEKHTfB8TQSIAESIAESIAHrE8TxTWkAAAKjSURBVKDQsX4fsYYkQAIkQAIkQAJuEqDQcRMcTyMBEiABEiABErA+AQod6/cRa0gCJEACJEACJOAmAQodN8HxNBIgARIgARIgAesToNCxfh+xhiRAAiRAAiRAAm4SoNBxExxPIwESIAESIAESsD4BCh3r9xFrSAIkQAIkQAIk4CYBCh03wfE0EiABEiABEiAB6xOg0LF+H7GGJEACJEACJEACbhKg0HETHE8jARIgARIgARKwPgEKHev3EWtIAiRAAiRAAiTgJgEKHTfB8TQSIAESIAESIAHrE6DQsX4fsYYkQAIkQAIkQAJuEqDQcRMcTyMBEiABEiABErA+AQod6/cRa0gCJEACJEACJOAmAQodN8HxNBIgARIgARIgAesToNCxfh+xhiRAAiRAAiRAAm4SoNBxExxPIwESIAESIAESsD4BCh3r9xFrSAIkQAIkQAIk4CYBCh03wfE0EiABEiABEiAB6xOg0LF+H7GGJEACJEACJEACbhLwi46OTvPz8wtw83yeRgIkQAIkQAIkQAKWJJCZmZnuFxUVdcTf3z/akjVkpUiABEiABEiABEjATQIZGRlH/SIjI38MDAwc6OY1eBoJkAAJkAAJkAAJWJJAWlraLL/w8PDRJUuW/MqSNWSlSIAESIAESIAESMBNAgkJCff6iUhMZGTkC7TquEmRp5EACZAACZAACViOAKw5sbGxbymhg9pVrVr13wEBAa0tV1NWiARIgARIgARIgATyQSA9PX3N8ePHn8ApEDot/vdf+Os8T8tOPkjyUBIgARIgARIgAUsR+J8l520RycT/jEJHCZ/w8PBGoaGhvQMCApr7+flFMvTcUv3HypAACZAACZAACRgIIIQ8MzMzNj09fWNSUtLc8+fPb/+fyMFRmf8f775SsolPek4AAAAASUVORK5CYII=;" vertex="1" parent="1">
                    <mxGeometry width="570" height="516" as="geometry"/>
                </mxCell>
                <mxCell id="3" value="" style="shape=image;verticalLabelPosition=bottom;labelBackgroundColor=default;verticalAlign=top;aspect=fixed;imageAspect=0;image=data:image/png,iVBORw0KGgoAAAANSUhEUgAAAjoAAAIECAYAAAAQOIQdAAAAAXNSR0IArs4c6QAAIABJREFUeF7snQd4VMX6xt/0AiT00EIJVXrvoDQBQZpIBxFUUFH5oyKgCFwE7FcRCxYsNEFApBcBpffeO1JDCyGkt//zDffEk81usrvZTba88zz3IuycKb+Zc857vvnmGw8AhfEwecj/FStWrL6Pj09vDw+P5gDKeHh4eP/vd/5BAiRAAiRAAiRAAg5FIDU1NQnApdTU1K2JiYkLbty4sfd/DUzVxE0RrcWhoaEfeXp6PuNQPWBjSIAESIAESIAESMBMAikpKT9fvnz5TS27WHGU0ClduvQCDw+PVmaWw2wkQAIkQAIkQAIk4JAEUlNTN/3zzz+90yw6tOQ45DixUSRAAiRAAiRAAlYS0Cw7HsWKFXvCz89vpZXl8DISIAESIAESIAEScEgC8fHxnTxCQ0N/ol+OQ44PG0UCJEACJEACJJANAmLV8ShduvRZDw+P8tkoh5eSAAmQAAmQAAmQgMMRSE1NPSdCJ5FbyB1ubNggEiABEiABEiCBbBKQreceZcqUUfvMmUiABEiABEiABEjA1QhQ6LjaiLI/JEACJEACJEACaQQodDgZSIAESIAESIAEXJYAhY7LDi07RgIkQAIkQAIkQKHDOUACJEACJEACJOCyBCh0XHZo2TESIAESIAESIAEKHc4BEiABEiABEiABlyVAoeOyQ8uOkQAJkAAJkAAJUOhwDpAACZAACZAACbgsAQodlx1adowESIAESIAESIBCh3OABEiABEiABEjAZQlQ6Ljs0LJjJEACJEACJEACFDqcAyRAAiRAAiRAAi5LgELHZYeWHSMBEiABEiABEqDQ4RwgARIgARIgARJwWQIUOi47tOwYCZAACZAACZAAhQ7nAAmQAAmQAAmQgMsSoNBx2aFlx0iABEiABEiABCh0OAdIgARIgARIgARclgCFjssOLTtGAiRAAiRAAiRAocM5QAIkQAIkQAIk4LIEKHRcdmjZMRIgARIgARIgAQodzgESIAESIAESIAGXJUCh47JDy46RAAmQAAmQAAlQ6HAOkAAJkAAJkAAJuCwBCh2XHVp2jARIgARIgARIgEKHc4AESIAESIAESMBlCVDouOzQsmMkQAIkQAIkQAIUOpwDJEACJEACJEACLkuAQsdlh5YdIwESIAESIAESoNDhHCABEiABEiABEnBZAhQ6Lju07BgJkAAJkAAJkIDTCp32hQuheYFg1MiXF2UC/BHs7a1GMzIpCZdi43Ak6gG2RkRi7e07Dj3K7ev5oHlVb9Qo64UyRT0RnMfjYT+iU3HpZgqOXEzG1uNJWLsv0aH74d0wLzxrBsIrzA8exXzgkcdLtTc1OhmpNxKRfD4eKYdjkLT7gUP3g40jARIgARJwLQJOJXTyeXthWGgp9C8RggI+PmaNRERiIuZeC8fMy1cQlZRs1jX2zpQvwAPDOvqhfytfFMj7UNhklSIepGLupgTMXB2PqNjUrLLnyO8egZ7w6VIA3o8HwyPfQ2GTVUqNSkbSukgkLotAakxKVtn5OwmQAAmQAAlki4DTCJ1exUMwNqyM2QLHkIoInmnnL2Hh9fBsAcvuxb1a+GJsL3+zBU6GfjxIxbSFcVi4JSG7TcnW9d6tg+A7oLDZAsewMhE8CXNuI2nj/Wy1gxeTAAmQAAmQQGYEnELoTK4YhoEli9tkJGdfvY7xZ87bpCxLC5k8MAADW/taepnR/LM3JmD87FiblGVpIb7PFYVP+2BLLzOaP3FtJBK+v2mTslgICZAACZAACRgScHihM71qJXQpWsSmI7fs5i28evy0TcvMqrDpwwPRpZF5y21ZlaX9vmxXIl79Jsbc7DbJ5/daMXg3z2eTsrRCkrZGIf7zGzYtk4WRAAmQAAmQgBBwaKFjS0uO4XDnpGXHlpacDP3IQcuOLS05hv2gZYcPJBIgARIgAXsQcFihIz45H1auYI8+p5U5+tRZu/vsiE/Oh0MC7NuPWbF299kRnxy/F0Ps2o/4r8Pps2NXwiycBEiABNyPgEMKHdldtblRPasdj80dRnFQbrlrn912Y8nuqs0f5rPa8djsfjxIRcvRUXbbjSW7qwJmlLXa8djcfoiDcuyIi9yNZS4w5iMBEiABEsiSgEMKnTfKlcGIMqWybLwtMsy4dAUfX7hki6IylPFGD3+MeNLPLmUbFjpjeTw+XhJnl7p8+xSCz1MF7VK2YaGJi+8i4VfHjn2UIyBYCQmQAAmQgE0IOKTQOdCsod2tORo9serU2bbbJjANCznwRZDdrTlp/XiQijqv2GerduCsMLtbc7R+iFUnZkju7IqzyyRgoSRAAiRAArlKwOGEjkQ8nlm9So5CGXb0pM0jKEvE45kjAnO2HzNibB5BWSIe+71pm6395sKI/+g6IyibC4v5SIAESIAEMiXgcELHnjutTJGwxw4se+60MtkPO+zAsudOK1P94A4sPrVIgARIgARsRcDhhM7SujVRO8i2cVqygnXwfhS67T+cVTaLfl86Pi9qh5l3LIJFBWeS+eD5ZHSbbNuzpAKmhsKzor+tmmhWOSln4hA77rJZeZmJBEiABEiABDIj4HBCJyf9czQw9vDTyUn/nLR+2MFPJyf9c7R+0E+HDy0SIAESIAFbEXA4oXP+0abw9DDvoEtbQUhJTUXY39ttVZwq5/ysYHjmbDeQkgqEDYm0aT/yLKgIeNq0yKwLSwGie5/JOh9zkAAJkAAJkEAWBCh0AFDomJ4lFDp8hpAACZAACTgzAYcTOly6sn46RXDpynp4vJIESIAESMAlCTic0KEzsvXzjM7I1rPjlSRAAiRAAq5JwOGEDreXWz/RZnN7ufXweCUJkAAJkIBLEnA4ocOAgdbPs2EMGGg9PF5JAiRAAiTgkgQcTugI5Zz007HH1nJtpuTkFnN7+Odo/cjJLebcWu6Szxl2igRIgARyjYBDCh0e6mn5fOChnpYz4xUkQAIkQAKuT8AhhU4+by9sblTP7gd7ijWn5a59iEpKtstI5wvwwOYP89n9YE+x5rQcHYWo2FS79MMj0BMBM8ra/WBPsebEjriI1JgUu/SDhZIACZAACbgfAYcUOjIMvYqH4MPKFew6IqNPncXC6+F2raNXC198OCTArnWMnhWLhVsS7FqHd+sg+L0YYtc64r8OR9JG+5zAbteGs3ASIAESIAGHJeCwQkeI2XMHlj0O8jQ1yvY84NMeO61M9cOeB3zyIE+HfUawYSRAAiTg1AQcWugI2elVK6FL0SI2hbzs5i28evy0TcvMqrDpwwPRpZFPVtks+n3ZrkS8+k2MRddkN7Pfa8Xg3dy2h64mbY1C/Oc3sts0Xk8CJEACJEACGQg4vNCxtWUnJy05hrRtadnJSUuOYT9sadmhJYdPJRIgARIgAXsScAqhIwDEZ2dsWBmrHZTF8Xja+Ut298nJarDEZ2dsL3+rHZTF8Xjawji7++Rk1Q/x2fEdUNhqB2VxPE6Yc5s+OVmB5u8kQAIkQALZIuA0Qkd6KbuxhoWWQv8SIWYLHhE4c6+FY+blK3bbXWXpCMhurGEd/dC/la/ZgkcEztxNCZi5Ot5uu6ss7YfsxvLpUgDejwebLXhE4CSti0TisgjurrIUOPOTAAmQAAlYTMCphI6+dxJBuXmBYNTIlxdlAvwR7O2tfo5MSsKl2DgciXqArRGRWHv7jsVQcvKC9vV80LyqN2qU9UKZop4IzuPxsB/Rqbh0MwVHLiZj6/EkrN2XmJPNsrgu74Z54VkzEF5hfvAo5gOPPF6qjNToZKTeSETy+XikHI5B0u4HFpfNC0iABEiABEjAWgJOK3Ss7TCvIwESIAESIAEScB8CFDruM9bsKQmQAAmQAAm4HQEKHbcbcnaYBEiABEiABNyHAIWO+4w1e0oCJEACJEACbkeAQsfthpwdJgESIAESIAH3IUCh4z5jzZ6SAAmQAAmQgNsRoNBxuyFnh0mABEiABEjAfQhQ6LjPWLOnJEACJEACJOB2BCh03G7I2WESIAESIAEScB8CFDruM9bsKQmQAAmQAAm4HQEKHbcbcnaYBEiABEiABNyHAIWO+4w1e0oCJEACJEACbkeAQsfthpwdJgESIAESIAH3IUCh4z5jzZ6SAAmQAAmQgNsRoNBxuyFnh0mABEiABEjAfQhQ6LjPWLOnJEACJEACJOB2BCh03G7I2WESIAESIAEScB8CFDruM9bsKQmQAAmQAAm4HQEKHbcbcnaYBEiABEiABNyHAIWO+4w1e0oCJEACJEACbkeAQsfthpwdJgESIAESIAH3IUCh4z5jzZ6SAAmQAAmQgNsRoNBxuyFnh0mABEiABEjAfQhQ6LjPWLOnJEACJEACJOB2BCh03G7I2WESIAESIAEScB8CFDruM9bsKQmQAAmQAAm4HQEKHbcbcnaYBEiABEiABNyHAIWO+4w1e0oCJEACJEACbkeAQsfthpwdJgESIAESIAH3IUCh4z5jzZ6SAAmQAAmQgNsRoNBxuyFnh0mABEiABEjAfQhQ6LjPWLOnJEACJEACJOB2BCh03G7I2WESIAESIAEScB8CFDruM9bsKQmQAAmQAAm4HQEKHbcbcnaYBEiABEiABNyHAIWO+4w1e0oCJEACJEACbkeAQsfthpwdJgESIAESIAH3IUCh4z5jzZ6SAAmQAAmQgNsRoNBxsiHPW7IyQhp0wYMrJ3Fz/yqkpiQ7WQ/YXBIgARIgARLIOQIUOjnHOts1BYaUQ5UB0+ATGAykpuLK37Nxdcv8bJfLAkiABEiABEjAVQm4vNAJyl8QNeo0QqEixZCUlIgdf69FxJ1bTjmeQWVroVLvCfDyDVDtv7F7KS6tnWn3vuSv0AAlmj0NeHjh9IKJSIqNsnud7l6Bp5cn2vdohUc7NkFQgXyIjYnD9x/NxYmDpzNF4+fvi64DOqB24+oIyp8PUk5iQhJuXAnHxuVbseuv/e6Olv0nARJwMwIuK3QC8+RFjTqNEVIiFB4eHmpYExMTnFroeHr7olynV1G4RmvE3r6M079NRtydK3afsmXaD0Oxht0QE34eJ2aPodCxM/GmbRqgc992CC4YlDZ3zRE6oWElMfi13iheOsRoC5OTk7F59U789sMyO/eAxZMACZCA4xBwOaHjHxCIR2rUQ2jZCuolcT8yAlGR91CydDmnFzq5NW0odHKGfKPH6qJDz9YoWqKwmrvhV2/B28cbhYoWyNKikydfIF5+51mUrVQaImgO7jiKlQv+RMTte2jcqh46Pt1GWYYSExKxbO5abFi2JWc6xVpIgARIIJcJuJzQqVC5OqrVbojk5CScOXEYZ08eRYUq1VGlel0KHSsnG4WOleAsuEyWmEZNGY6wymWUGNm5aT+W/LQCo6a8iNCwElkKnXbdH8WT/drDy8sT2//cg7lfLU5Xuyxl9X/pKYggunrxOj5791tER8VY0EJmJQESIAHnJOByQkeWrETonDp2EPfv3VWjUrlabacVOsFhdVGp13h4+vhnmGEXVnyOmwfWmJx5Ret0QLnOr6UtOfnkyY/QNkMRHFYHsgyWnBCLe2f24NKar5AYE5lWjnaduVM6JTEOpxdORuR52/l/BIeURKMezyKsQUsEFy0BH/9AZeVISUpC1N2bOL5pBTbP/hwJsa7zsn7siaZo0qY+Vvy6Hkf2nFD4x37yWpZCRy+S7t2JxNdTf8bl81czDN/Q1/uhXvNaSIhPxILvlmLHhr1Ghzg4OBijRo1CtWrVEBkZie+++w47d+40dzowHwmQAAk4FAGXEzrG6FLonMedY3+jZMv+SuAYpujrZ3By7ttpvjeOIHR6T/4OlZq2NXmzpKam4trJQ1jwznOIvnfHoW4qWzbGHKFToWo5vPDWQOQNyoPDu4/jm2k/Z2hCnSY18PTQJ5G/ULD6bdOKbSZ9dfr27YsePXrA09NT5b106RImTJiAqCg6odtybFkWCZBAzhCg0MkZzjarRW/hMdeik5qaAg+INSQeV/6ei/A9y5TgKd3ueRSp1U617cLK6SatQ7mxdPXU+BkoULIMzu7ahFPb1+P6qSPw9PJC1Uc7ofXzbykrT0pyErbM/gKbZ0+3GV9HK8gcodOyYxM8NbgzvH288OfSzfj9l1Vp3RBrT+c+7dCqc3PIjiwtHd17El9N+dFodwcOHIiuXbumOUJfv34dkyZNwq1bzrlb0dHGlO0hARLIWQIUOjnLO9u1WSN0pNLk+BicW/ohIk7vSmuDT94CqDroI/gXKom7x7fgzOKpRtuXG0InM1DVW3dBp/+bCt/APLiwfxvmvDkg21y1AqZPn47y5cubVV50dDTef/997N9vuyU7w4rNETriwNypT1ukpqTi919WY9OKraqYfMF5MfCVp1GtbmUlWm6H31ViR/798vlrmPb650b7GRYWhtdffx3FihVDYmIili9fjrlz55rFhJlIgARIwNEIUOg42ohk0R5rhE5qShIurf0W4XuXZyi9Sr/3EFy+HiLP7cPJee84hdApUrYS+k6dBfHjuXH2GL4b1tlmo+iMQqfH4E5o27UlkhKT0oTOI7UqotfzXRFSsghSklNwaNcxzPlqMf7vvWEoVbZ4pkJHYPr7+6NChQoIDw+nJcdms4sFkQAJ5AYBCp3coJ6NOq0ROonRETj+4+uIi7hOoZMN9rlxqTkWHUOh4+HpgU692yIg0F/t1trwx2asWrhBNV8rLzOLTm70k3WSAAmQgL0IUOjYi6ydynUnoVOqWj3U69wPxSpWQ1DhYvD4n3MsPDzg4+cPTy9vm1t07DRsVhdrjtDRL11J7J3ioSEqIvKd8LuY9/USnDh0RtUv8XleeXcoCoUUzNKiY3WDeSEJkAAJOBgBCh0HG5CsmuMOQkecjsUHp2a7HvD09s4Uia2XrrLin9O/myN0xNG4+6COKrigJNmRJkdFzJ+5VIkdLZWtGIphYwapiMumdmfldP9YHwmQAAnYmwCFjr0J27h8dxA6zfuPQMtBr8LL2wd3Lp/H1rkzcHLr2rSYOfTRST+pKtesgOffHIDAvAEq2ODfq3Zg6ZzVyjdHnyRGT+/nu8HH1zvD7iwbT1MWRwIkQAIOQ4BCx2GGwryG5KbQSYi6g+M/vYH4ezfMa6yVuQZ//htCq9dHTORdLHnvVbWzSp8odNKDlWjHI//zAkqWLY5b1+9g+qTv01lytNxawMC4mDjM+XIx9m8/bHKEJGhgaGgoLl++rIIGMpEACZCAsxKg0HGykcsNoRNSvzPKdnwZKUkJOLNoKu6d+XeLuj3wPT9zBYpVqIbIm9fw67ghuHnhVFo1sqz12OBRaPTUEHj7+dNH539knh7aBY8+0QRIBTav2YGF36c/uFN/BMT5U5fw6dvfZLD4aJArV66sIiMXLlwYcXFxmD9/PlasWGGPoWaZJEACJGB3Ai4ndCSaq69f+uMSyleqhgpVaiApMRH7dv6FexH/RtJNiI9DSkp6E7/dqWejgtwQOoEh5VBlwDT4BAYj7u41FVww6p+jSE1JzkZPTF+qRUWWgIDHNi3H+q+nIDE+FtXbdEXjns+hYKlyacHsXMlHp2CRAmo7uD71fLazOo1crDBL56xRFhtJcnDnpTOXER+XoP4uDsgvvj0YhUMKqm3muzcfwKoFGxAdFZ3uUE8530rOwTq486jJAejevTv69OkD7//5RzFgoF2mOQslARLIIQIuJ3QKFCqCJo+2h49PxqMODJkmJiZgx99rEXHHcSO+anFuzJkPhpGStaMcsru9HPBAmcdfQLGGXSE7ngyTrc+6qtKiAzqPmoqAoAJGux0bdQ/REbdRuHQFl7LoaNvEzRlr2Tb+/UdzldOxlsRq03d4dxUQ0FgSUbR83lpsXP4woKCpVK9ePYwYMQJBQUEqS0xMDD7++GMcOnTInKYxDwmQAAk4FAEKHQqdLAMGPpyxHij4SDOUatkffgVLpDszy9ZCR2qr1KQNWgx8FUXLVYa3rx/kGIuYyAic2bEBW+bMQPuX31VnYbmSRSe7Qke4ydbxbgM7omrtivAP9FeWr/i4eFw6cwWLZi3HlYsZYykZeyL169cP3bp1g5eXF4WOQz2y2RgSIAFLCbic0LEUAPOTAAlkJFCrVi288cYbCAwMxO3btzF16lR1uCcTCZAACTgbAQodZxsxtpcEcoBA27ZtMXToUPj6+uLgwYOYPHlyDtTKKkiABEjA9gQodGzPlCWSgFMTaN26Nfr374/8+fPj/v37mDFjBvbt2+fUfWLjSYAE3JcAhY77jj17TgLpCIwcORINGzaEn5+f+ncRObNnz8bGjRtJigRIgASclgCFjtMOHRtOArYlMGbMGNStWxcPHjzA3r17sWjRIty8edO2lbA0EiABEshhAhQ6OQyc1ZEACZAACZAACeQcAQqdnGPNmkiABEiABEiABHKYAIVODgNndSRAAiRAAiRAAjlHgEIn51izJhIgARIgARIggRwmQKGTw8BZHQmQAAmQAAmQQM4RoNDJOdasiQRIgARIgARIIIcJUOjkMHBWRwIkQAIkQAIkkHMEKHRyjjVrIgESIAESIAESyGECFDo5DJzVkQAJkAAJkAAJ5BwBCp2cY82aSIAESIAESIAEcpgAhU4OA2d1JEACJEACJEACOUeAQifnWLMmEiABEiABEiCBHCZAoZPDwFkdCZAACZAACZBAzhGg0Mk51qyJBEiABByGQK1atfDGG28gMDAwQ5tu3bqFKVOm4PLlyzZvb2b1XrhwQbWJiQRsSYBCx5Y0WRYJ2JFAWP0W6Pnul/DLkw+nt/+JBeOft2NtjlN078nfoVLTtoiPjsKi/7yM83u3OE7jnLglesERHx+P5OTktN6I0Pn4449x7do1m/ewevXqeOWVV9IJLD8/P3h5ecEVhU6PwZ3QtmtLxMbE4fuP5uLEwdM2Z8oCMyfgskLHPyAQlarWQolSZeHnH4DU1FTExkTj0vnTOH/6GJKSEjk3SMCpCFDoOKbQadq0KXr06IGgoCB8+eWXOHTokFPMK73QWbZsGX7++edca7eIqnLlyuWI0GnapgFaP9kcRYoXho+vN1KSUxAZcR97tx7CqgV/Ij4uIVMOTdrUR+/nu8HXz0flO3X4LD6f8J3Jayh0cm1apVXsckLHw8MD5StXR5XqdeDl5W2UcNT9e9i1ZT2iH0Tl/giwBSRgJgEKHccUOs888wy6dOmCmJgYZQWh0DFzQuuy5YTQ8fTyxLMj+6BOkxqQ/zZM8jF86cxlfD31Z0RFPjDZicH/1wcNW9ZJ+z3y7n3MfP8XXDxjfJmPQsfy+WDrK1xO6BQOKY7GLdrB09MLly+exaljBxAT/QDe3j6oUKU6Kj5S8+Fvl87h4O4tSElJsTVTlkcCdiFAoUOhY8uJ5W4Wnaee7YxWnZrBw9MD1y7dwPL563B493FUrlkBXfq3R9mKoQrv4T0n8N2Hs5WlxzDlyReIUVOGo3hoCB7cj0Zg3oerBSt//RNrFm00OjwUOractdaV5XJCRzCImEmIj8el86fSUfH09ETthi0QWqY84uPjsH3TatyPjLCOHK8igRwmQKFDoWPLKedOQic0rCReHPcM8hcKxrV/buDzd79LZ7XJF5wXL70zGGUqhCIuJg5zvlyM/dsPZ8Bdr1lN9H+5p1ry2rpuN+TveYPy4PiB05jxnx8odGw5QW1YlksKncz4iM9Og2atlQrfvW0Dblz9x4Y4bVdUaGgo3n77beTJkwefffYZqlatig4dOkCc9k6fPo0PPvgAFSpUwAsvvIBChQohKioKCxcuxOrVqzM0omjRoujZsyfq16+v/AhkeU8cD8XhcNOmTfj999/TOSKKz8GLL76onAVPnTqF8ePHp/tdX8GECRNQs2ZNZbb/+uuvsX37dttBcNOSfAMC0XroaFRp0R55ChSGp5c3UlNTkBgXCx//AHh4eKY5I5eu0QBPT/wGgfkLYveSn7D2y0mZUtOLpZ2/fYf130xNl7/m4z3QsMezKFKmIrx9/dR9Ik7A104ewp/fTkP4uRMZyjcsc8N3H6BZ3xdRt1M/5C1UBB6eXqqMY3+twJ/fTEFCbIzRNlZq0gbN+r2EouUqwzcgj8qTlBCv/pS22NoZWVty0nYYhYSE4Omnn0bp0qXh6+ur5vz58+cxa9Ysdc9pqVOnThg4cCB8fB76aJiTDH1gDEXGnDlz0L17d7Rr1w4FChSAfJTJPbVt2zblOxMXF2dONRblsVboFClSBMKgdu3akP+WZ5L2TImIiFBtlmeRJW2299JV14Ed0K7bo0hJScXyeWux/ve/M7Bq1q4hej3XBT6+Pti9+QB++u+vGfL0f+kpSD6x5nz/8VxlCQqrXAb37kSqJa/L569muMbQouPt44UnerVBqXIllAN2YkIizp/6Bwu+XYobV25aNIbMbB4BtxU6gmfPto24duWieaRyOJcmdPLnz49du3ahYcOG6uErSZbb1q5di3r16kFEjJauXr2K9957Dzdv/nuzNG/eHEOGDEFwcLDRHsiL7OzZs/j000/TrsuXLx8mTZqEMmXK4P79++q3I0eOZLj+kUcewejRo5V4ykoQ5TA+p62uYuPWeGLkewgqUjzTPmi7rgqVKod+H/yM/MVCzdqJVb/rQLQb/rZ6Mf357fvYveRHVY+Iq25jP0Olpm2UkDKWEuNisPmX6di+YGa6n/VCZ9+KeShRuSaKVaim6tAnmWvS7kWTXkSKboePp5cXuo39Lx5p0RGe3sb96qQcewmd27dvY//+/WjVqpVR8XLv3j189dVX2Ldvn+qOrYXOunXr1EeLOOMaY7Znzx7l+6PfFWWLCW6t0BkzZgwaNGhgsgnaM2XatGmIjIw0q6n2FjqvT30R5R8pi7u3IvDl5B9x/XJ4unYVCimIgSOeRsVqD8fgysXreP+N6emWr/TLVudOXMQn476GLIeJY3NycopJAaUXOtv/3IPmjzeCn//DZ7k+3Q6/i6+n/JShbWaYfR8IAAAgAElEQVQBZKZMCbid0ClZOgz1mzyGpMRE7Ph7Le7ecUwFrQkdsdYkJSXhwYMH6mHbrVs3yPZMseCIxUUEj/y3WGwSEhJUHs2qIvlGjRqlRI58HW7cuBFLlixRZTVp0kR9vZYsWVLd2Hv37sWHH36Y9jAdMGAAunbtqn6TB/G3336bYSJpeeSHP/74A/JVymQ9geIVq6PnxK+UaEmKj8ORDUuxZc4MRIZfRZGylVCjTVc0emoIvP3804ma52euUMLixtlj+G5Y50wb0Lzfy3j0mZFITIjD71New5mdD/0Kuo/7DNVad1H/ff30EWyZ84WqIzikJFoMGIEabbqpeuOiIrHi07E4sflfy6Fe6CTGx8LHLwBRd8Kxde5XOLxuEUpUrqXEW6HQMMTHPMCKj9/C8b9XpbWzw4iJqNelv7L83Ll8Dltmf4Hjf69UVpyytZug5aDXULxSDbsJHXkxS5IPiAMHDmDBggW4c+cOBg8ejGbNmqmvbnEwlrgyxsSGNc7Ihlu7xSpy9+5ddX+KlVWz1sr9aS9rqbVC5/XXX0exYsWUONy9ezfOnTunGMkzRSxdhQsXVpx+++039T9zkj2FTtEShfHKu0MhYubS2Sv44M0v0jWpRoNH0GtoF/W7lu7euoevpvyofHm0pC1byW6r9Uv/xh+z16B6vSp49v/6ICBPgMnlK03o6OfZvq2HsWzuWuUv1G94d1SpVVFVs3H5Viz+cYU5yJjHAgJuJXTEHCwip3ipsrh39za2/7UGiYmZbyW0gKVNs2pCR0zD8tBYunQp5s2bh+HDhyvztiTNiiKCRoJsiSl99uzZWLlypfpd+/ISASTXLl++PF0bRQC98847CAsLy/Aw1VtrLl26BFmiEkGlJXmwTZ48GZUrV1YPaPl6EzM/k/UENLGRnBCPTbM+wc5F36crzJSPjhZn5u7Vi5jz5oA0YdR36izkLVgkneWm3fBxaPz080qILHx3mFqSkhg1XUZ/hIB8+XHt1GH8Om4Iou/dSVe3XNN66Bvw8vHFuT2bMW/MM2m/69slD3Mpc8l7r+LejX93oWgCy8PLCzsWfosN376vrhch02P8F8iTv5DJuu0VR0cTKNKOxMRErFq1Cr/88ovROZ6ZZTO7QseYVVUa8dRTT6F3795qGUs+JOTetmWyVuhk1gaxIMszKiAgAIcPH1aWYXOSPYWOOBkPGzMIwQWDlPPxN9P+3UbfqU87FeNGLCwS50Z2UBUrVdRozBtt2So2OhY//vdXHN13EmLlGfmfF1CybHGT1iJN6AiHpMQkbFq5Db///K/Q17dPsxSZw4x5zCfgVkKnVOkw1GnUQpnmjx7creLpOGrSC51//vkHEydOVGZg7aEq698//vgj/vzzT2gPLL3QqVixolpWKliwYKbLSmIh6tu3L7y9vbF+/Xp88803aUjEN0fW4WNjY9NZiiSD3o9HTOvvv//wxcVkHQGx4vT/8BcULFkWV47vx88je6Vb3pFSTQmd9i9PQMMegxF585oSKTcvnEKdTn3Q4eUJGaw/xkRRp1HTULdTH2VFWvPlJBxYmdE3ISCoAAZ+Mg8hYVXSiSTDdl0/cxTzxwzOIJRM+Qa1fm40mvZ+AcmJiSbrtrfQkQ8JsYz+8ENGZ1K5NyRGjogRsfQsXrw4wwBnV+jIB4IsORsu89hDiOgbb4/y9c8tS4L/2VPoPFK7Ep57sz8CAv3ThI44H/d76SnUqFdFbTWXpaw5MxahfovaaNW5WQaho1+2Ej+cD0bPSFvW6ju8u1qOSk5Kxu+/rMamFVvTzRFN6Mgurs1rdmDh98syzKGxn7yG0LASuHz+Gqa9/rl1DxFeZZKA2widgoWLolGLdvD19cPNG1exe+sGJCcnOezU0D8w9ELC0IFSQrQbEzqtW7fGc889pxwFMwsGprfciA/C1Kn/Oqe2bdsWQ4cOVb5B4mAovjpaEifoxx9/XH0JywtCBBeT9QTEN6f725/DLzCvSadiU0KnUc+haPPcaOW4q0UO7jbuv2q5SZIsfc0fNwS3Lp7GgI/moFzdZsp68sNLXdXvgz//DaHV66fLZ6wnWpmy/KRf9srObrA+U36A9F0v0gzrtrfQySz+jTn3UXaFTm59KLir0Fm7eBMGjOiptoiL+Diy7yTmfbVY7cIytRVcW7YSy4/h8pL2m3+AXwaLkcxlc7aXU+hY/+w050q3EDp58wWjcct2yJM3CM4SLDC7QkdzmJRJoF/OMpwUmX2BiaOzLFnJevyNGzeUGVocncVZWZat5Fpjy1rmTDzmSU9Adjq1fWGMWhoythsqM4tO1cc64cnXP4CXj49apjq1bZ0SNPmLlULq/+JEaY7Hmj+P/ggJc318tGWv5MSEdMth2RE6Wt16MeZIQkcvBjZv3ozPP8/4te2OQkeWrOVDR5a9xWosy2tasuY4B3tadPRLQ7KrSZawxLojEZD//GMzVv66/t8PuLcGonbj6hksOtqylbGt53prjzFnZwqd3H/au7zQ0Yuc6Af3lQOyM0REdgShI9NTs9yIQ7QmmLSvXLH0mHJUzv2p7VwtyI7Q0baYBwQFY+u8r9TSlQif2Kh7apmpVNW6yrF44w8fQfx2xMFYL6YodExHNNYLHfF9k63mhsmdhI745g0bNgyPPfaYckDOLDnK0pVYbl4e/ywKFimQ1tw74Xex8IdlOLInfbiE1yY9rwII6gWLXsjcvH4bS35aicSE9KsBj3Vqihr1H1E+OIbLVxQ6uf8sdmmhExRcAI1atEVgnnxOY8nRpoSthI747Zi7dGXMhF63bl2MHDlSxfM5ePCgsuTITi7ZjZKZg2buT23naoG27Vt2Gllq0dFvMZdYOmLZqdu5nzr88tqpQ2je7yXcv3UDa2ZMVLufAoMKpLPImGNVEZppS1cGh2tmx6Iz9Ks/1HZ0R7XoSOwqETJyH5lyCHYnoSMO0r169VI+fRLOQnyWJPyFFjPHEX10ZO6+9dErKFOhlPK1OnPsAmbP+A0idvRJhNCrk55D0eKF0+3Oqtu0Jga8/BT8A/3Neqjs23oIP3wyLy0vhY5Z2OyayWWFjjOLHBnx7Aodve9NZrsfNGdkMT3L1tb58+enm3CGu6tmzJihrDyynGXJrgq7zmIXKFz8ZuRkcv98wSbj4XR+fRpqd+yttvwbnl6etiS1YwPyFQ5RQff+mvWJcmyWgIJ+efJiz9KfUeeJPoCHRzofG03AJMREY/knb+H4Xw937emT3hlZv7tL8mRH6Dw98WtUadEBcQ/u4/epI3F216Z09ZaqVg89J3yJfIVC7La9PDMfHW2XozGHfK2hmtCR3Y0S3G/NmjVZzki9pciZfHRki32VKlVMfuTkpNDx9/dX2/DFiVt8FTNLmsOwWFzEGXjb+t0ZsmsBA719JOrxLsz/5neVR7vWMMaRqfpuXb+D6ZO+TxNSFDpZ3g52z+CSQkcvciIj7mDX1g2IjTF9SJvdKVtRQXaFjl6gyENadlNt3Zp+N4BsL5fdXBIJNrMt4poYkm7s2LEDjRo1UmvyIopk2ztT9gmIkHjmswUqIrEx60bbF8aqnVXiwyPJUOjod1P55w1CclJi2vZxzdn49j/nUKB4KGLuR6T9JmXpd2id37cV88cOzrDjq3n/EWg56FUVpXn/inlY9dk7aZ3OjtBJ23bu6YE9S2eni+wscYW6jvlExRCSZK+AgaaEjvifvPXWWyoujMSKEWumPsSCBuDJJ59E//79lZXD3KVcZxU6mi+NBFmUjQvio6cleeb06dMHnTt3VhsY7Ll0Jf6DsqtUgizKrjkRl8aWFbW21WxYFQNfeRp58gbi0tnL+Oq9n0weASFRj8UiI6eS67ePy7LV9Anfq2UtY2n42Gcg9UikY72YotDJ/vMxuyW4nNAxtOTs37UZcSZCzgu8xIR4m0ccze6gyPXZFTpShuyaevbZZyFfPvIwl4fBihUr0gIGiglaApLJg0JiiPz0009Gmy4P/LFjxyqnw/j4eLWTS++cbIv+sgxAtok36DYQ8PDElWN7seKTcQpLmxfGoEKDRxEfE6V2VuUrXCyD0NG2mKckJakgZBcP7lQxdSQ99uwotXyVmpKqfou4fjkt3o78LpGJB306H6HVGyjT/rUTB7Hpx09wYf825c/TcuCrqNG2mxJZEdf/wYJ3nlc7uLSUHaEjIkbzGxIhs2XuDOxbNgc12nZHi4GvIG/Borhz+bwSaPpdZbaYL3pLjIh28cHRAgJKbCrZtSj3oT6Ug7F69feH/j7LLCqwswodLTaXcJKdmPLMkGdCixYtIIKvRIkSadGd7Sl0GjdujBEjRqh4PZJkGV0Cnp44kfGIEm3MXnhrIGo1qqb+KieNS8A+ETP6Qz3lHtFvAdcvW5k6FkIrv1Xn5ug+qCPEIqTPS6Fji7s1e2W4nNCpXK02qlSvazYVRz0GwhZCRyAMGjQITzzxhMlzeeSB9ddff2HmzJmZCj7NL0cDa2oHitngmTEDAQma12fqLOWzYpjk+AUJIihnUUkUZEOLjmYZkSMUUlOSlVPyXz8+DAcgy2I93pmOwOCHkV/1W8u1egytJ8aGRwIArvx0HMTqo0/ZETpSTuOez6HVkNdVzB990oIPntyyRok1ewkdrU65F+SlLdZK7fwmETkS3Tcry6WEYWjfvr1JB93MzrpypqUrERiynCc7L40libouR2aUKlXKrhYdeT7Kx5ecTyZJwlxktrtU8kjsHDnYs0zF0AxHbcjvMt8O7TqmzrDSTi43Z8lL46A/OFRv/aHQyf2HPYWOg553ZSuhI1NMvh7liAj58hTrjiR5gIvZWSw85hzEKQECX3rpJfUFZa+Q9Ll/O+R+CyRw4OMvvYPy9VuqF79YaG6cO44ts6fj9I4NMLY9XFpdu8PT6PDqJHX8Qsy9u/ht4nD8c2SP6pBYbJ75bKHafSXJUCRpvZbzrloOfA3VWj2pDuOUZaqU5CRER9zGya1r1dEMhhGT5drsCh3V/o691FEPQUWKAfBAXNQ9HNu0Ahu+e1/5JcnWe3sJHXnBiciRpSfthScWgpMnT6rDKS9eNO88PNmNKAdzylKXdi6dxtZVhI70Rw4H1h9+KvyElxwjs2jRInW2npyFZU+LjrRDb7E2R+g8vBc80b5HKzR/vCGCCwSpv8vY3wmPwLolf2H7hof3jCRzoh4bPjG0XVsJ8YlY8N1S7Niwl3F0cv+xCpcTOg7AlE0gARJwAgLW7JZygm6Z3UR7BAw0u3KDjNbE0dF/DMrH12effZZ28Kq17eB1rkmAQsc1x5W9IgESyIIAhU4tdUaeHA6cWQiKnJhI1gidGjVqqFAXQUFBDFyaE4PkxHVQ6Djx4LHpJEAC1hOg0HFeoSPLZ+J/KJspZFu/HMa6evVq6ycDr3RpAhQ6Lj287BwJkIApAhQ6/wodccLWdpwJr1u3bkGsLNeuXbP5BJIdba+88oqyJGnJ3GMjJHip+P/oncXFGiUHrjKRgCkCFDqcGyRAAm5JgELnX6FjOAFE6EhwwKwC8VkzcfS+QYbXZ+XALNvbxZoTHR2N48ePK4FjrrO4NW3lNa5BgELHNcaRvSABEiABEiABEjBCgEKH04IESIAESIAESMBlCVDouOzQsmMkQAIkQAIkQAIUOpwDJEACJEACJEACLkuAQsdlh5YdIwESIAESIAESoNDhHCABEiABEiABEnBZAhQ6Lju07BgJkAAJkAAJkACFDucACZAACZAACZCAyxKg0HHZoWXHSIAESIAESIAEKHQ4B0iABEiABEiABFyWAIWOyw4tO0YCJEACJEACJEChwzlAAiRAAiRAAiTgsgQodFx2aNkxEiABEiABEiABCh3OARIgARIgARIgAZclQKHjskPLjpEACZAACZAACbik0PEPCESZsEooWToMefLmg6enF1JSkhH9IArnTh3DlUvnkJycxNEnARIgARIgARJwcQIuJ3S8fXzQpOXjKFg4xOTQRUbcwa6tGxAb88DFh5fdIwESIAESIAH3JuCSQqduo5a4fy9CWW6iH9xHamoqxMpToUoNhFWsCg8PD1w8dxKH9m5379Fn70mABEiABEjAxQm4nNDJbLw8PT1Rv8ljKF6qLGKio7Blw0rExca4+BCzeyRAAiRAAiTgvgTcSujIMFeuVhtVqtdVy1ab/1xBoeO+c589JwESIAEScAMCbit0aNFxg9nNLpIACZAACbg9AbcSOl5e3mjcoh0KhxTH9SsXsXfHX0hJSXH7SUAAJEACJEACJOCqBNxG6Pj4+KJ6nYYILVtR+efs+Hut2m7ORAIkQAIkQAIk4LoEXFbo+PkHoFHzNvAPyKN2Wcnf5c+b16/gwJ6t9M1x3TnNnpEACZAACZBAGgGXFTqynbxl284ICMybbrhlq/mt8Gs4vG87LTq8EUiABEiABEjAxQm4rNAxHDc/P38ULV4KlavVUdGSExLisWvLety9fdPFh5jdIwESIAESIAH3JeA2QkcbYhE5TR5tjzx5g+iQ7L7znj0nARIgARJwEwJuJ3RkXKvXbojylaszaKCbTHJ2kwRIgARIwH0JuKXQqVW/GcqWr4yIOzex4+91SExMcN8ZwJ6TAAmQAAmQgAsTcDuhI0tXTR/rgMA8+XDmxGEcP7zXhYeXXSMBEiABEiAB9ybgNkInIDAPSoSWQ6WqteDr66cO+2QsHfee/Ow9CZAACZCA6xNwOaFTolRZNGjWOtORi7h7C/t2/MXt5a4/v9lDEiABEiABNyfgFkJHYufExUbjVvh1XDp/WvnmyL8xkQAJkAAJkAAJuDYBlxM6rj1c7B0JkAAJkAAJkIAlBCh0LKHFvCRAAiRAAiRAAk5FgELHqYaLjSUBEiABEiABErCEAIWOJbSYlwRIgARIgARIwKkIUOg41XCxsSRAAiRAAiRAApYQoNCxhBbzkgAJkAAJkAAJOBUBCh2nGi42lgRIgARIgARIwBICFDqW0GJeEiABEiABEiABpyJAoeNUw8XGkgAJkAAJkAAJWEKAQscSWsxLAiRAAiRAAiTgVAQodJxquNhYEiABEiABEiABSwhQ6FhCi3lJgARIgARIgAScigCFjlMNFxtLAiRAAiRAAiRgCQEKHUtoMS8JkAAJkAAJkIBTEaDQcarhYmNJgARIgARIgAQsIUChYwkt5iUBEiABEiABEnAqAhQ6TjVcbCwJkAAJkAAJkIAlBCh0LKHFvCRAAiRAAiRAAk5FgELHqYYLyFuyMkIadMGDKydxc/8qpKYkO1kP2FwSIAESIAESyDkCFDo5xzrbNQWGlEOVAdPgExgMpKbiyt+zcXXL/GyXmxMFlC1bFhMnTkRgYCDef/997N+/PyeqZR0WEAgICMCAAQPw6KOPIn/+/PDw8EBMTAz27t2LmTNn4t69exaUxqwkQAIk4BgE3Ebo1KrfFGXLV1HUExMTsOPvtYi4c8sxRsHMVgSVrYVKvSfAyzdAXXFj91JcWjvTzKutz5a/QgOUaPY04OGF0wsmIik2yuLCypQpo4SOt7c3Jk+ejNOnT1tcBi+wHwEvLy+MGzcOjRo1UgLHMMl4TZo0iWLHfkPAkkmABOxEwC2ETuGQ4mjcvB28vL2dWuh4evuiXKdXUbhGa8TevozTv01G3J0rdpoa/xZbpv0wFGvYDTHh53Fi9hizhI5YBOTFeeDAAcyfPx9FixbFlClTlNARwXPp0iX07dsXDRs2VBae8PBwu/eDFZgm0LNnTwwcOBAieA4ePKgsOAkJCRgxYgTq1KmDlJQUNY7yPyYSIAEScCYCLi90fP380eTR9shfoBBioqMQmCef01p0cmtiWSN0evfujX79+qkXpyxTffnll3j77beRN29eJWzk9wYNGijrwdKlS/HDDz/kVvdYL6BEaO3atXH//n188MEHSuxIkn976623EBQUhF27duE///kPeZEACZCAUxFweaFTpXodVK5WB1H37+HC2ZOoWbcxhY6FU9QaoSMCp3379spqU7BgQdy+fRupqanKMiApJCQEUVFR2LBhA+bMmYPY2FgLW8XstiQwffp0lC9fHjdv3kyzuEn52pKjWOQodGxJnGWRAAnkFAGXFjr5CxZW1hxZLtm9dQO8vLzRoFlrpxI6wWF1UanXeHj6+GeYExdWfI6bB9aYnCtF63RAuc6vpS05+eTJj9A2QxEcVgeyDJacEIt7Z/bg0pqvkBgTmVaOdp25kzAlMQ6nF05G5PmMDsbi4Pr000/jiSeeQL58+VSRsiSyceNGzJ492+Y+H6GhocpyVKRIESxbtgwLFixQSzJNmjRRVglJDx48UAJr3rx5SE7OuGtNru3UqZOyZsh/+/n5KcuT5I2IiMC2bduwcOFCxMXFmYvI4fN99tlnqFixIu7evZvOh+qxxx5Ty1cyjmvWrMEXX3xhtC+2YhYWFqbqK126NK5fv47//ve/OH/+vMPzYwNJgAQcl4DLCh0RNQ2bt0HRYiXxz4UzOLR3G4qVKO22QufOsb9RsmV/JXAMU/T1Mzg59+003xtbCh2x7IjQ6dy5MwoUKKCqFrGwYsUK/Pbbb0aFRnZuF73Q+euvv5SVQv7NMIl1aefOnfj4448z/DZmzBi1rGYqybVnz57FtGnTEBn5r0DMTrtz+9qXX34ZHTt2VFY3GRvx0RF2o0ePRqlSpZQglSWtw4cPG22qrZi99tpraNmyZVodsoQmzutMJEACJGAtAZcVOmGVqqF67YbKL0d2WEU/iEKJUmWdTugYDqzewmOuRSc1NQUe8EBKUjyu/D0X4XuWKcFTut3zKFKrnariwsrpJq1D1ixdSZmPP/44+vfvj0KFCqkXpbZ0JdYR+TexHvz+++/4448/bCZ49EJHlsk8PT1V3YsWLcKmTZtQt25dPPPMMyhcuLBaLvvmm2+wdevWdJhff/11FCtWTPkW7d69G+fOnVO+RmIVEuuQXCvWHRFq8j9XSDVr1lS+OOJELn4669evR+vWrZU4FQucWLAyc0S2FbM333wTjRs3TkN68uRJZaFjIgESIAFrCbik0MmbLxjNWnWEOCIf3LMVly+eVXzcVehI35PjY3Bu6YeIOL0rba745C2AqoM+gn+hkrh7fAvOLJ5qdB5ZI3TEN0f+J0JD74wsy1effvqpsvKI6BAxIs7Is2bNsnYOp7tOL3Tkh8uXL0P8T/TLH23btsXQoUPh6+urlqGkPeam5s2bY/jw4WopR6wbsuXaFknvC2NOeYa+NOZck1Ue6ZcsMYqo05JY33755ResW7cuq8tN/m4JMxE5L7zwAoKDg1UMH6lbRBcTCZAACVhLwOWEjrxY6zRqiVKlw3Dj6j/Ys31jmgOsuwqd1JQkXFr7LcL3Ls8wT6r0ew/B5esh8tw+nJz3js2Ejjgby3KGWETEEqC9yKUCe24v1wsdEQMfffRRBh8P8SeZMGECihcvroTQ+PHjlWO0OUlf/oULF/DGG2+Yc1mWeXJb6IhwGzlypLKmiE+bpIsXL6rdWNeuXcuy/ZllsJSZiBy5RsbGVZYGswWQF5MACWSLgMsJnRKhZVGv8aNIiI/Htk2r8SDqXx8KdxU6idEROP7j64iLuJ5jQsewIu1FLo698vI8duxYtiauqYv1L9U9e/aorezGkrShSpUquHXrlmqPvFTNSZa+tM0pM7fzyHKVCL9KlSqp5UVZlhOxI3+uWrVKLe9JEitYjx49EB0dbVF0a1dklttjxvpJgATMJ+BSQsfPP0AtWcnS1dGDu3H+dPqXKYVO7gmdnDoCwlyhoznPij/Khx9+iBMnTqS7aypXrqx8jGQXkGyPF0uhlkSsyfKOLS065t+yts8pPjDifyTLiLKz6tChQ2rnk+xSE/8cWT4SX6p3331XRU4WK4sxsepOzGw/CiyRBEjAXgRcSuhoxzzcvnkdu7b+iaTExHTcKHRyT+jYawIblmup0JH4PlOnTlWRmiWJgBk2bBhkW7XeV8VY+11B6FSrVk05+8pykUSxFsuOWHLatWuH5557TgV4FDEo28q7d++OqlWrqqUsuUaWBt2RWU7NZdZDAiRgGwIuI3S8fXzQpOXjKFg4xCIyznbulTW7rhxh6cqiQclGZnOFjlhxtAB5sn1Z80N56qmn0KtXL7V0c/XqVSxevFgFytNi5thrGSa3fHS6du2KZ599Fj4+PliyZEm6CNUibAYNGqSctmXnmgg/cSYX53Lxa9JSbjHLxjThpSRAAm5EgELHyQ74zE2hkxB1B8d/egPx92447C1ijtCRwHgSH0aWpAx3Tmm+O2LFkN1YR44cSddXdxI60nHDnVhJSUkq0KNs19eSrZmJs7g4s0usIlcKyuiwNw0bRgIuTsBlhI4548SlK+uWrkLqd0bZji8jJSkBZxZNxb0z/25RN4d7TuYxR+jI9mVZmpElGnlpr1y5Mq2JEkCwXLly6sgK/ZKWtkTTp08fFfxQrByusHTVokULSJA+2XV15syZDDvQxIojvjn169dXjMTy9c4776Q7hNWWzJo2bYoXX3wRgYGByhfo22+/VYEdmUiABEjAWgIUOtaSy6XrcsOiExhSDlUGTINPYDDi7l5TwQWj/jmK1JSMxyfkEpa0avVC5/Tp0+ow0StXHp7w7u/vrw4aFSdjWaoRB2TNJ0UrQHNSFhEkMXZ++uknxMfHQwTBk08+iRIlSqjjICS5gtCRpSiJ8CziTnZcSYA+OXtMIhLL0p4sbUnfRdhJMtyJJf9mS2YiQuWMNC0xYGBu31GsnwScnwCFjoOPoRbnxpxmGkZK1o5yyK6PDuCBMo+/gGINuwL/e8nr25PZWVfmtNuWeQwDBsrLW4SK7CjSdktpRzjI0pTmUKu1QeLIyHKNdi6XYdvknCzxV5FjEVxB6Ej/xIoiR0DINnNTSSxc4rckefQ7sSS/LZnJMRSaX5CUben2f1vOJZZFAiTgGgQodBx8HB1D6AgkDxR8pBlKtbg+NAQAACAASURBVOwPv4Il0p2Z5ahCR/xJZOlFs8DIC1oOipQzsGS5ytiBntJTWaaRyM1ysKRYMkQYic/O3r17lW/KkCFD1FlYriJ0pM/iEzN48GDIURCyA0uYCT8Rgjt27FBBHzt06JAmQrSdWNu3b1d3kC2ZSeBCiaYsbaDQcfAHFJtHAk5AwK2EjhOMB5uYTQLm+OhkswpebmcCcnK8nCkmy4sSnVkcx02JUjs3hcWTAAm4AAEKHRcYRHbhXwIUOs4/GwYMGKB8g8SiI2dsiUMyEwmQAAlYS4BCx1pyvM4hCVDoOOSwmNUoWWbs2bOn2tUmu67Cw8OVo7S5x3OYVQkzkQAJuB0BCh23G3LX7jCFjnOO73vvvad2eWm7u8Q3SM7YkuMomEiABEggOwQodLJDj9c6HAEKHYcbErMaJLF4xPk7IiJCbetfuHAhgwWaRY6ZSIAEsiJAoZMVIf5OAiRAAiRAAiTgtAQodJx26NhwEiABEiABEiCBrAhQ6GRFiL+TAAmQAAmQAAk4LQEKHacdOjacBEiABEiABEggKwIUOlkR4u8kQAIkQAIkQAJOS4BCx2mHjg0nARIgARIgARLIigCFTlaE+DsJkAAJkAAJkIDTEqDQcdqhY8NJgARIgARIgASyIkChkxUh/k4CJEACJEACJOC0BCh0nHbo2HASIAESIAESIIGsCFDoZEWIv5MACZAACZAACTgtAQodpx06NpwESIAESIAESCArAhQ6WRHi7yRAAiRAAiRAAk5LgELHaYeODScB1yIwZswYNGjQwGinli1bhp9//tkuHTZVb2JiImbPno2VK1fapV4WSgIkkDMEKHRyhrPVtXTq1AkDBw6Ej49PhjLs+fC3usG8kASsJKAJjuTkZMTHx6crZdWqVZg/f76VJWd+2ciRI1GvXr20TJ6envDz80NSUhKFjl2Is1ASyFkCLid0vH180KTl4yhYOCRTkndvh2PH5nVISkzMWeIW1tauXTv07ds3TehoD2EPDw9Q6FgIk9kdmoAmdG7duoUpU6bg8uXLudJe7eNCKqdFJ1eGgJWSgE0JUOg4uNAxHG29hYdCx6b3AgvLZQIUOrk8AKyeBFyUgEsLnZNH9+PUsYMuNXQUOi41nOyMjgCFDqcDCZCAPQhQ6NiDqh3LpNCxI1wWnasEKHRyFT8rJwGXJUCh42RDa43Q8fLyQvfu3SH+PgUKFID8XRw+w8PD8fvvv2Pjxo1GKfj7+6NFixZ47LHHUKpUKQQEBKhrU1NTER0djePHj2PBggW4ePGik1F0zOaG1W+Bnu9+Cb88+bDzt++w4bsP0Kzvi6jbqR/yFioCD08vxEdH4dhfK/DnN1OQEBuTriPBISXRqMezCGvQEsFFS8DHPxDiy5WSlISouzdxfNMKbJ79eYbruo/7DNVad1F5Lx/dg19G9UVKcnK6ssvWboIe479AnvyFEHs/Ais+HYeTW9bYFKS1Qqd4xeqo16U/ytVthjwFCsPHL0C1KykhHpE3r2H/ivnYvWRWhj6Zajx9dGw6rCyMBHKdAIVOrg+BZQ2wVOgULVoUo0aNQoUKFdSLTHaziMiRXSWaaNm9ezc++eQT9e/6lNmOLy1fZGQkvv32W+zcudOyjjB3BgJ6obNvxTyUqFwTxSpUU+OmTyI0T2//E4smvZju5d178neo1LStSbJy3bWTh7DgnecQfe9OWj4RL32mzlL1pSQnYfuv32DTrE/Sfvf08sKgT+cjtHoDJCclYvMv07F17gybj6C1Quf5mSsUJ1MpNTUFp7atx+L/vGyW2KHQsfnQskASyFUCFDq5it/yyi0ROiJk3n77bdSqVQsJCQlYsWIFfv31VyVoRAANGzZM/ZaSkoKlS5di3rx56RrUoUMHPPnkkzh69Cj27Nmj/oyLi0NYWBgGDBiAmjVrqpewWHbGjx9veWd4RToCeqGTGB+rLBNRd8Kxde5XOLxuEUpUroUnRr6HQqFhiI95gBUfv4Xjf69KK+Op8TNQoGQZnN21Cae2r8f1U0cgIqXqo53Q+vm3lJVHhMyW2V9g8+zp6equ0qIDOo+aioCgAoiJvItlH76JMzsfWvpaDXkdTfsMVxYlYwLLVsNordB55rOFEC14css6nNu7GbcunoZvQCDqPNEHLQe+Cv98wUiIjcbq6e/i8LolWTaXQidLRMxAAk5FwKWFjn4kkpOTEP0gClf/OY+L504hIT7OqQZKa6wlQqdt27YYOnSo2pq+YcMGfP311+n6HBwcjIkTJ6J06dK4ceMGJk2ahJs3b5rFRX/t3bt38eGHH+LMmTNmXctMxgnohY5mfVny3qu4d+PfbdbN+72MR58ZCQ8vL+xY+C02fPu+WTirt+6CTv83Fb6BeXBh/zbMeXNAhuua9x+BloNehZe3D66eOIj544YgJKxK2pJVxPV/sOCd55WQsEeyVuhk1hZ9n/av/BUrPx2bZdMpdLJExAwk4FQE3EboGIqeA7u3KtHjbMkSoSNWltq1ayMzITJkyBBImbGxsfjqq6+wfft2s5FoL6aYmBh8/PHHOHTokNnXMmNGAnqhc/3MUcwfMzjdEpNcYejHs/6bqWahLFK2EvpOnQXx47lx9hi+G9Y5w3Vi/ek54Wu1/JWakowDqxaoJaGSj9RGXFQkVnw6Fic2rzarPmsy2UPo6HmJNWrB+OezbBqFTpaImIEEnIqAywkdU/QDAvOgdLmKCKtUDb6+fkhIiMeOv9fi3t3bTjVg5gqdIkWKYMKECShevDguXLiAN954w2g/tfIkEKE4Fi9evNhsHhQ6ZqMyK6M1L2WzCgZgjtCRsiRf7/e+Q4HipZXYkTWh1JQU7Fs2F2tmTDS3OqvyUehYhY0XkQAJZEHAbYSOxkEiJjdu2Q4+Pr5qCevQ3m1ONUnMFTqhoaHKP0cEj7GQ+lqns4q0LEtUUmf16tUREhICX1/fNF7e3t7q77To2GYK2ULolKpWD/U690OxitUQVLgYPDw9HzbOwwM+fv7w9PI2adHRevFIy47oPGqa8m2RdH7fVswfO9gsR97skMiO0BErVK32PVG4dAXkK1Q0rRkeHp7wCQiA/EmLTnZGh9eSgPMScDuhIw66jZq3RZFiJeEsx0Dop5c1Qsec6SkOyUuWLEl3nlDr1q3VOVtBQUGZFkGhYw7hrPNkR+jIspP44NRs1wOe3t6ZVmZq6Uq7qHHP55QDsrefvwolYE8HZH1DrRE6smOsy+iPUL7ho0rMZJYodLKeg8xBAq5IwO2Ejgxig6atUSK0rNsIncyWrkxN6sqVK6vlroIFCyqLzdq1a9X/5BwiLXHpyraPhOwIHb3T7Z3L59X275Nb16bFzDF36Upi0vSc+BXyFwuFbMsGZOkq2WGXrjq/Pg21O/ZWA3HtxEH8/cvnuLB/a5r1yRqm9NGx7bxmaSSQ2wTcTuj4BwSiWauOyJsv2KWXrmRiyU6o8uXLK3Fi6SGJcpBojx491Pz8448/MGfOnAxzlULHtrevNS9lrQWDP/8NodXrq63hslNLdlbpkzlCRx9PJyk+DjsWfofqbbsqf53EuBis/fI/ykE5qySBJiVuk8RYsuRgTkstOuJYPeCjOShYsizuXr2IuaMHpduhJu20himFTlYjzN9JwLkIuJ3QqVytNipXq6O++HZuXY/b4dedasTMXbqSTkmsm65du6rlB7HG/PDDD2b39ZlnnkGXLl2QmJiIuXPnYvny5emurV+/Pp5//nkULlyYPjpmU808ozUvZa1ELWieRAL+ddwQ3LxwKq0yWdZ6bPAoNHpqiFqOMrV01fG1yajXuS/wP38WCUgoMXi0bemyzX3RxJcgO8JMJYnPNHr0aJQrV075hq1ZswazZs0yi5ClQkcv3sLPncD3Lz6Zzo9IYul0fHUyqrfponyTuHRl1jAwEwm4HAG3EDricJsvuACq1qinfHMknTp2wCkP/LRE6IhD8tixY5UTsbx0jhw5ooIGHj58WP1dfhfB0qhRI3UcxH//+9+0Ca6vR454kOjHp06dQo0aNZR4kmCB4u8kiT46tnkuZEfoaFGRJSDgsU3Lsf7rKZCgg9XbdIX43BQsVS4twrIxoaP3yzGMl9NhxER1xIKIhWunDishpY+srO9948aNMWLECHVciKT79+8ry+KJEyeyhGSp0BEBN+TLpZDlNrFA7V76M7bMnq4CLdZ+ojcadBuEfIVC0uql0MlyCJiBBFySgMsJHVmaatm2MwIC8xodMAkcePLoAZw7dVRZOhw9SXwa+To2Jy1btgw///xzuqz16tXD8OHDla9NZkmOcPjoo4/Ssshuq3HjxqklCGNJhJIsS5QsWVJZfRhHx5wRyjxPdoSOPrKxsVpio+4hOuK22pVkKHRkp1bPCV8qUWBsiUq/pCX3zMHVC7DiE+OB9/TiWtohc2P27NlYuXJlloAsFTpSoF6gGavg/q3r6j6XqNAUOlkOATOQgEsScAuhk5KSrKIiX7l0zumiImdX6MisleUE8bcR0SMCRjvjSoIEXr16VQUJXLdunTreQZ/kOtl1JcdEBAY+PCBS8pw/fx6LFi1SB33K7xQ6tnk2ZEfoSAsqNWmDFgNfRdFyleHt66eciWMiI3BmxwZsmTMD7V9+VwUD1AuddCJGnI5XzMfqzzMe51GxcWu1uykwuKCynshZWDsXfW+04xKR+9lnn4X46thb6EgDanfspY6oKFAsVO04E6vWgzu3lGVLDjGVIyIk8CGFjm3mKUshAWcj4HJCR17GEiNHAgIykQAJ5DwBfQwnWdb87LPPsG/fviwbYo1FJ8tCrchAZ2QroPESEnBgAi4ndByYNZtGAm5BQPy4Ro0apeIvXbp0SUXojoqKyrLvFDpZImIGEiABKwhQ6FgBjZeQAAkYJyDO7YMGDVK+WwkJCfjll1+werV552NR6HBWkQAJ2IMAhY49qLJMEnAzAiNHjkSDBg3g5+eX5sslzvFyfpq5SRM6xo4sWbVqVbqo3eaWaU4+abv4r2lJOxYlKSnJbEdqc+phHhIggdwhQKGTO9xZKwm4FAERKWLNiY6OxvHjx5XAkbAEliRN6Bi7xtiOQkvKziyvqXotcaS2VVtYDgmQgO0JUOjYnilLJAESIAESIAEScBACFDoOMhBsBgmQAAmQAAmQgO0JUOjYnilLJAESIAESIAEScBACFDoOMhBsBgmQAAmQAAmQgO0JUOjYnilLJAESIAESIAEScBACFDoOMhBsBgmQAAmQAAmQgO0JUOjYnilLJAESIAESIAEScBACFDoOMhBsBgmQAAmQAAmQgO0JUOjYnilLJAESIAESIAEScBACFDoOMhBsBgmQAAmQAAmQgO0JUOjYnilLJAESIAESIAEScBACFDoOMhBsBgmQAAmQAAmQgO0JUOjYnilLJAESIAESIAEScBACFDoOMhBsBgmQAAnkJIFnnnkGXbp0MVrlnj178P777+dkc8yu6+OPP0a5cuUy5I+JiYH8dujQIbPLYkb3IECh4x7jzF6SgNMSGDNmDBo0aAC+yGw7hJrQSU1NRVxcHORPLe3btw+fffaZbSu0UWnvvfceypQpk1aal5cX/Pz8OD9sxNcVi3F5oePt7YOSpcshtGwF5AvKD18/fzWOiYkJ2PH3WkTcueWK48o+kYDLEHB0odO0aVP06NEDQUFB+PLLL53GoqAJHWcXkK7SD5e5YR2wIy4tdETcVK/TCL6+fhnQU+g44Gxkk0jACAFHFzrO+qJ11nYbThFX6QdvfvsRcFmhU7labVSuVkeRi4y4g1PHDuLO7XAkJsTbjyZLJgESsDkBCh2bI1UFuopAcJV+2GeUWaoQcEmhE1K8FBo2b6NG+OiB3bh47mS69WcOPQmQgPMQoNCxz1i5ikBwlX7YZ5RZqksKHS8vbzRu0Q6FQ4rj7MkjOHZoj1OOdGhoKN5++23kyZNHOQVWrVoVHTp0UE53p0+fxgcffIAKFSrghRdeQKFChRAVFYWFCxdi9erVGfpbtGhR9OzZE/Xr11d+BB4eHkhOTsatW7ewadMm/P777+rvWhKfgxdffBGBgYE4deoUxo8fn+53fQUTJkxAzZo1lSPg119/je3btzslb0dqdHBwMJ5++mk0atQI8t/ibCnj8+DBA0RERKBw4cI4duwYPvzwQzzyyCMYPXq0GteVK1di1qxZmXalVq1aeOONN9TYLlu2DD///HO6/I899hg6deqEUqVKwdfXV30gyNieOXMGs2fPxsWLFzOUb1jmnDlz0L17d7Rr1w4FChSAp6enKmPbtm2qPnF8NZZkfoqvizia+vs/9KVLSEhQf0pbbO1Lor0g5T6YMmUKQkJCFPfSpUur+oT5+fPnFVO557QkfAYOHAgfHx+zp40ha1sxM7sBRjJaIxCsZaZVL3NZHMtlbpQtWxb58uVT81vmWWxsrJpfixYtssjPyZp+WMrNsI7r16+rOSDjKPdSSkoK7t69q57BGzduzFB8kSJF1H1Vu3ZtyH/Lc1x7Dss9LfeGXKu/N4TLpEmT1D0ufLZu3WrUQbxt27Z49tln1T1z8+ZNfPTRR2reMv1LwOUsOoWKhKBJy/ZITknG9k2rEXnvrlOOtyZ08ufPj127dqFhw4bq4StJbqq1a9eiXr16EBGjpatXr0J2JMhk11Lz5s0xZMgQ9cI0luQGOnv2LD799NO06+ThIzeYvHDu37+vfjty5EiGy/Uv2awEkVMOQi40WsZ0+PDhKFiwoKo9Pj5evXC9vb3Txl/+Xdv+W6JECSVEZR6YsyVYxLI8tOUhK8JFxJEkeUi+9tpr6iUkvxlL8hD+7bffsHTp0nQ/61/a69atUwJctv8aliNzTdooW4D1wloe6K+++iqaNGmiXnqmkr2Ezu3bt7F//360atXKqHi5d+8evvrqK8hOJEm2FjrWMLPF1LRGIGjXWMpMa69+rpjqg8yz+fPnY8WKFWZ105p+mFWwLpO+jlWrVuHxxx9XHxeGSYT5vHnzsHz58nQ/aVZJU/Vqz+Fp06YhMjIyLVtYWBjefPNNdX8Llx9//BF//vln2u/y7++88w5KliyphOI333yjBBFTegIuJ3QqPlITVWvWR8Sdm9jx9zq1u8oZkyZ0xFqTlJSkvublYdutWzdUr15dWXDkS0IEj/y3WGzkJpM8mlVF8o0aNUqJHHlJyJfGkiVLVFnyUpGvV7lB5IW0d+9eZSHQXkADBgxA165d1W/yIP72228zYNTyyA9//PEH5EueyXoC+oeavFznzp2b7uuwffv2GDRokBIlelGjxRW5cOGCstZklp566in07t1bCSixFGov75EjR0JEsaRz586pr2qpQ74+ZW61bNlSCS2ZO2K527lzZ1o1+peXlCtfq/J1K3NNLIaa5VHmmjHL39ChQyF9E8uPiHURUzt27FCiQ+Zwr169UL58ebtZdLRt1fIBceDAASxYsAB37tzB4MGD0axZMyW+JDaLWH30Ak0DYM2LNrvMrJ9l/15pTbv1W9KlJEuZ1ahRQwl5+biSZ87hw4fVi13mWb9+/dJ4yzyYPHmysjpnlazpR1ZlGv6u1SHjL32WDw+x8okgO378uIpHJPdWQEAALl26BLF0y3NZS6+//jqKFSumBPXu3bvVPSbzSp7DYhkSK62ULXNf/qdPTz75pGIj9194eDhEDF2+fFll0e5b7eP3hx9+sLRrbpHf5YRO3caPIrRMeVy/cglXLp1DuQqPILhgIfj4PLSGxMfF4tqVizh9/BDiYmMcdpA1oSMPALkB5CtavhTkISFmX0maFUVeBvKCkxeD/itd+4ow9ZUhAki+BuQFa/gC0ltrjN24cpPKg6hy5crqpSY3H82l2ZtO2kNLvtyMfZnpX456oaONs5jTxRInLwe9RVA/J7QHtoyZCFtZkhIrzogRI5A3b171Apo6dWq6r0rplTzI5WErc+zgwYNq7LWkb5cxC6Hk0wSWiBkRxdImSXoxbqpue/no6APmJSYmQr7Uf/nll7R+6ed4ZpZNa1602WGWvVlmG6EjpWSHmbE+CG9Zrhc2Yp3Qf7Rl1mdr+FvKUD9X5HksH39iXdELX20ZXz4G5OPDmBXcWL3ygSHPdRFJIvzkHjZM4krQps1Dv1MRSnLv6pes5D4WIa4XV5b20ZXzu5TQkYdog2atUaxE6XRjJladpMREpaC1ODrxcXHYtfVPZflxxKQXOv/88w8mTpyoXj7aDac3Y2oPTb3QqVixovLdkCWQzJaVxELUt29f9YWyfv169YLVkiyJyJqysYeO3o/HnCUTR2TsSG0SQSsPyuLFi5scL1NCR5YmZTlFlhNEpIgwlYegWErkKzArUaSJZxHE8kWoN41rjPTLmXqRJL/r2yViV5ZP9eZ3wzx6fxXNKihWS1N121voyMtKLKPGvobl3hC/IRFwYulZvHhxhmljzYs2O8xsNW+tabfespEdZqb6oJUvIkov0B1F6IjlRJ6Txizc1vCUfumf9aassvJROm7cOGUdlftUPhbEyip+ZXLfi88mPzRNzxKXEjrePj5o0vJxFCwcguTkJJw7fQwXzpxIZ7kpVDgE9Zo8hoDAPLh39za2/7XGIZe39JNf/6IydAYUE6YxodO6dWs899xzahnBmNOpNiX0lhtZxpAXpZb0L0txlhNfHS2JE7SsU8sDydQLylYPZHcoR3xzxKIjy5GmnIpNCR0xbffv31+NhRYCX/xt5EEoSXO2lbmifXWK6VyEsCT5EqxSpUq6fMaYa2WK9U+/7GWqXeaMmzy8pe96kWZ4nb2FTma+P+bcR9a84LLDzByu5uSxpt3mXGMOM2cVOpYIMHPGwFyhI/nkPhHLq/gGiTiXD3tpjzGfIHPrdpd8Lit0rv5zAXt3bDI6jhJIsE7DFuorbffWPxF+/YrDjXd2hY7mMCkdy+zLKLOvCXF0kxejrC3fuHFDmVTF0Vm+7mXpQq41tqzlcDCdoEF6B1dTwtTUy1Gsay+99JKyyslYi2lbxk3GT75A9XNA8+exxsfH1Nd2dl7aWnv0YsyRhI6+b5s3b8bnn3+eYTaZ8/I3vCg7zGw1na1ptznXZMVMfMzkI0l22YkFU9thJ/3SjnOwRFCY06bsMrPG0mRYpyzzS7/FVUAs7SJUtCQfpNL3rPzs9EvI8v7asGGD8pljypyASwkdmSiNmrdFkWIlkZnQyZMvCM1bPQH/gEAcP7wXZ04cdrh54ghCR6BolhtZWtAEk/bFJssiphyVHQ6ogzcoO0JHs8qJj404AIv4FOEjvgKyzCQPWBE24twsPhCyTKYXU+Y6M7u70DFlabPmResuQseQmfRblkr1u0WN3ZquJHTkvTRs2DBI6IbMdhUKh6yEjua4r4WcMLV86OCPuxxvnksJHaFXv0krdbbV3dvh2LF5nfLNMUwicFq27YyAwLw4eXS/iprsaMlWQkf8dsxdujLma1O3bl21pCLxfDQnVNnJJbtRMnPQdDSejt4ebdu3iEdLLTr6LebyYhHLjnw5yk4hcfAVHxPZRSRLjCJcxSKnt/KZY1URfvqlK/0p0dl5aYtTpeyoclSLjjYuch/pnaj184lCJ/3dZYqZ+JmIr6HEKRIhIxYy2Yat7SCSUqyxnFjD39LngTXt0uoQR3zZOSj3pewmEz8vCRmixcwxx0dHymrcuLESiXL/iqVWLEKmNppY2j9Xz+9yQiesUlXUqNMYsTHR2LJhJWJjHmQYw6DgAmjaqiP8/Pyxd8dfuPqP4wVXyq7Q0fvemPLkFzCaM7LcNGINkO2S+mS4u2rGjBnqZSnLWZmV6+o3jq37J9tuZeecWGUMfaWkLhkH+V2Lc2MoSjWxIlt2xSwuLxMZS3FEF18c2dEhwSTF70qS3sdGEzCZ7XTROyPrd3dJWdkROhIjRB7g0dHRqk2y/VafxBol/ZY+2SuOTmblao7ambHRXoLy0pGAiGvWrMlyemSHWZaFm5nBGoFgzjWmmOl9dwx9/rQmWyMozGmTMSTyjBXxJR8DpoJYZqdd2rWaD5ypD0NzhI4+9ITsrJKPIfHNE38dcfwX/8mjR4+aOfLul83lhE5w/oJKxMh28kN7t+HS+X8jmmrDK+dgValeV4mhbZtWI/rBfYcb+ewKHb1AMRVISv+FldkWcU0MCSSJbyIRe0UYyYvUMHicw4F0kgbp/Z5kLES4iEjRkt5kLf9mKHQ0h13xpRKHZllq1LaPaw9a+ZqUJQN5UGq/SVl6p3NT8WK0r1KZV4bLldl5aWvbziVekwgxfWRnebhLIEG5FyTltNCR+t966y0V40Sct8Uvzdj2Xc0ZXL7YzV3KzQ4zW01pawRCVtdkxky/PGtsGVAiJb/yyisqYrK9l65k3kkcMbHUyT3zySefZLpryRoBpo2T9hFizOFe7qc+ffqgc+fOaoeksaUrySMfK+LTpN8hqLcUmQrNYKu54uzluJzQkRdwrfrNULpcRSQkxOPArs24ce1hcCV5mJYtXxnVajeEp6cXTh074JDLVtLW7Aod7QWmhQaXl4R8aUq0US1goJhTJYib3DwSQ+Snn34yOp/l4TV27Fj1Va0FhNM7Jzv7TeAo7df8oaQ9J0+eTNvqLwHF6tR5eECtOCDKC9VQ6GhbzGUsZZ7L150Wj0O/RVp+k6BjWrwdKdMw1LzE5JCdHBIHRPx55IUgO7jkpWAYsEyuz85LWz/PZY5KoELxO3j00UdVoEI5QuLatWtKoOl3ldlizPSWGBHt8vLV4qJIfB/ZtSjtMxaRVl+//v7Q32eGW+z112SHmS36LmVkJVqM1ZMdZvplcHnpi/VLgpsKPxFB4lSvRX+3t9DRQmdofTTlaK79nh2ho32EyNwSS5Y8Z+U52qJFC2WVkaVnLYq4MaGj/8jRx8vRW3m1jx/DqOO2mivOXo7LCR0ZEPHBkXg6BQs9PB5Bi6PjqzzbvdXL4sKZ4+ocLG1XiqMNpC2EjvRJIuk+8cQTFiH/2QAAIABJREFUJs/lkZvvr7/+wsyZM02eZyXlaH455j4YHI2nM7RHHyvDsL3y4JfI1vKyEPFhKHQ0y4g8/GRO65chZVlMxk8LWa/fWq7VY2g9McZLdtxJnCWx+tjypa2P/KovVws+KFGY5avXXkJHq1PuBXkByceSdhaRqWMvDPkYWtwMf8/srKvcikP1/+2dB3hVxfb2VxoJgVBCJxC6FOkQepcqTRBEEBTB3vBiB/2D14LtetEPERuiCAgiKoKAgCC99957hwCBkJ7veYc7cefknGSfBufsvPM8PhrPLjO/mb3n3WvWWuOO0HGFme3yqy0j9DdyhiE3DI71Zh4dZL3Ge1E7B+fkBOyO0DH61th7rvDhiUzo2F/Oth7GZIL2lqiMS1qw4mK/LHu5nvzh/efNOlpS6AAYBE35ylWlXMWqkj+ioFLMEDwXzp6Wvbu2yJXYi97k6va1PSV0UBF8PeLrGA+FDuXECxzRObDwmNmIU4cww9eDG3i63b0OLwDLBaxwSNSoN5bEyw9p4WFN0VFTtpOj0f8BvgBYmtq9e7e6j3EZE387mlgxNmDlg6M5LCk6sgMvWDhPog72rBSesE6g/tiaAlueoODlj69fTHbICAurlreEDiZYvZ8Y7o2/wRBWNUwc9jYytdeBaAM2M8VSl7ZM6OOsJnRcZYYxhr7E1gd6g2H4Np04cUJZ1LDBpb0s79k9ca4INqMVE9f2ptDB9bHsZNwwVo8x+NTBigmLLPzvjPUwihidLwfjyLZ06dJFfdBizGFpFR8jxi1avPe28p8rW1bo+E8XsKYkYI6A0WH5dlkBzNXUP45yZYL0j5aZq6Ur7XflHHO1cf0oV+ukz8Od7QUAuF4jnulrBCh0fK1HWB8ScEDAE5YTwv2HgKsTpFUYutJ+V87xNi9X66SX47Hkw8AKb/fS7b0+hc7t5c+7k4BpAhQ6plGZOtDVCdLUxf3gIFfa78o53kbhbJ2wfAYfHSTwg4M9N8T0dg/d/utT6Nz+PmANSMAUAQodU5hMH+TsBGn6wn5yoG4//EXgs4d/64KlHOQ1si2+wAybxpYrVy6janrbiJzSDyCSDuHr2v9MBaUcPqy29YCPEIt1CVDoWLdv2TKLEaDQ8WyH+sKk7dkWOXc1o4+K7ZmOfMB8gZnOS2Nb55yEjn5+kJ4B4e3YhdyYUsA5ejzanwhQ6PhTb7GuJEACJEACJEACThGg0HEKFw8mARIgARIgARLwJwIUOv7UW6wrCZAACZAACZCAUwQodJzCxYNJgARIgARIgAT8iQCFjj/1FutKAiRAAiRAAiTgFAEKHadw8WASIAESIAESIAF/IkCh40+9xbqSAAmQAAmQAAk4RYBCxylcPJgESIAESIAESMCfCFDo+FNvsa4kQAIkQAIkQAJOEaDQcQoXDyYBEiABEiABEvAnAhQ6/tRbrCsJkAAJkAAJkIBTBCh0nMLFg0mABEiABEiABPyJAIWOP/UW60oCJEACJEACJOAUAQodp3DxYBIgARIgARIgAX8iQKHjT73FupIACZAACZAACThFwFJCJzgkRJq26iiRRUuYgpCcnCSr/14gsRfPmzqeB5EACZAACZAACfgXAQodCh3/GrGsLQmQAAmQAAk4QcBSQgftDg0Nk4DAwGwRRFeoItVrNZAb8ddl5ZJ5cv3aVSeQ8VASIAESIAESIAF/IWA5oZMT+DyhYdK0dScpVLiIHNizXXZuXZ/TKfydBEiABEiABEjATwnkOqFTtnxlqdeopSQlJsrqv+fLlcuX/LTrWG0SIAESIAESIIGcCOQqoRMSkkeatekshSKLytFD+2TL+hU58eHvJEACJEACJEACfkwgVwkdbc1BtNWqJfNozfHjgcuqkwAJkAAJkIAZArlG6BitOcePHpQt65ZLWlqaGUY8hgRIgARIgARIwE8J5Bqho605aampsnrZArl4/qyfdhmrTQIkQAIkQAIkYJZArhA6xkSCp08ckQ2rl9KaY3aE8DgSIAESIAES8GMCuULoREVXlPqNW0l6WpqsWbFQLpw97cddxqqTAAmQAAmQAAmYJWB5oWO05kDgrFm+UFJTU8zy4XEkQAIkQAIkQAJ+TMDyQkdbc9BH61f+JWdOHfPj7mLVSYAESIAESIAEnCFgaaETFBQsTVp2kKIlSsmlC2dl9bI/JSU52Rk+PJYESIAESIAESMCPCVha6JQsHS0xzdtJQECAbF63XI4fOeDHXcWqkwAJkAAJkAAJOEvAskLHaM25fOmCrFo6X5AokIUESIAESIAESCD3ELCs0DFac7ZuWKm2fGAhARIgARIgARLIXQQsKXSM1py4q5dl5ZJ5kphwI3f1LFtLAiRAAiRAAiQglhQ67FcSIAESIAESIAESAAEKHY4DEiABEiABEiAByxKg0LFs17JhJEACJEACJEACFDocAyRAAiRAAiRAApYlQKFj2a5lw0iABEiABEiABCh0OAZIgARIgARIgAQsS4BCx7Jdy4aRAAmQAAmQAAlQ6HAMkAAJkAAJkAAJWJYAhY5lu5YNIwESIAESIAESoNDhGCABEiABEiABErAsAQody3YtG0YCJEACJEACJEChwzFAAiRAAiRAAiRgWQIUOpbtWjaMBEiABEiABEiAQodjgARIgARIgARIwLIEKHQs27VsGAmQAAmQAAmQAIUOxwAJkAAJkAAJkIBlCVDoWLZr2TASIAESIAESIAEKHY4BEiABEiABEiAByxKg0LFs17JhJEACJEACJEACFDp+Nga6d+8uDzzwgJw4cUJefPFFP6s9q0sCJEACJEACt5aAZYVOSEgeqXhHDYmucIfkDc8nAQEBkpaWKlevxMrBvTvl1PHDkpaWdmtpe+BuXbt2lUGDBsnu3bvlzTff9MAVeQl7BNq0aSNgXaZMGcmTJ4+kp6fL1atXZcOGDTJlyhS5cuVKtuDatWsn3bp1k1KlSqnzU1NTJTY2VlauXCkzZsyQhIQEgicBEiABErgFBCwpdAoXKS6NW7SX0LAwhwjPnz0l61f+JcnJSbcAs+u3aNGihZowp02bJlu3bhVMoI888ohs27ZN3nvvPSlYsKA88cQTauL85JNPXL8Rz1QEihcvLs8884zUqFFDiWN75cyZM/Kf//xHDh06lOXnoKAgGTZsmDRp0kTw37YFgunAgQMyZsyYHMUSu4QESIAESMB9ApYTOqFheaV52y4SUaCQnD9zUnZu2yBXL19SX+ShoWFSoUp1qVK9tgQGBsn+3dtk17YN7lP04hVGjx4ttWrVUkJm7ty5smfPHvnXv/6lhM6ff/4pQ4cOlaioKImLi5NPP/1UNm3a5MXaWP/STz/9tLRt21ZZ+8D4p59+kr1790rVqlVl8ODBUqVKFSWA1q9fr4SmbcExd999twQGBsqxY8eUQMWx6MMBAwao81Hw/z766CNl6WEhARIgARLwHgHLCZ3SZctLw6ZtJTHhhqxY8odcj7uahV6Dpm2kTHRFuXj+jKxZtlBSUpK9R9jNK8Ni079/f2ndurWEhISoybNEiRJy9OhRKVeunISGhsqpU6dk1qxZsnTpUjfvxtPBe/jw4UpQQqQYS9myZWXkyJFSrFgxtYz1wQcfqCVEXSpWrCivvfaaREZGqn6CSDUuceHaI0aMkMqVK0t8fLx8/vnnsmrVKkInARIgARLwIgHLCZ2qd9aVajXry434a7Js0RxJuBGfBV/Nuo2kUtWacunCWVm97E9JSfZdoaMrD18R+ObUq1cvY0nk0qVLMnPmTFm0aJFdy8BDDz0kPXr0kPPnz8s777yjBFLfvn0lOjo6w28Eyy8TJ06Uffv2ZeEUFhYmLVu2FPir4P558+ZV94Z17Pr167Jr1y6ZPn26HDlyxItD1Lcu/eqrr0pMTIwkJSXJd999J/Pnz8+o4MCBA6Vnz57KGgSR9Ouvv2apfPv27ZUVDn47y5Yty3a5Ef0N6xAsSAsWLJBvv/3Wt2CwNiRAAiTgBwQsJ3TgfFyvUQs12cAH58ypY5m6ISgoWJq07CBFS5RSv+EYf3BKhu8IJr6GDRtmOMcePnxYCQ04yNorWuhcuHBBLWlhSQZWIdty+fJlGT9+vGzcuDHTT9rx2d45+kBYLL788ktZs2aNHwx396uohU5ycrJMnjxZLSfqAjFZrVq1DGF5/PjxTDe09f+BQHz55ZftitTq1aur3woUKKCuQQuQ+33HK5AACeROApYTOvnyF1A+Ooi0uhF/XdatXCyXL11QvYsvY1h87qhRV9LT02Tjmr/l1HHftkbAqgLB0qpVq4xlKiydnDx5UvnmQITAuVU7KxuHsRY6sMCgQNBt3rxZiaOLFy8qn5PmzZsrKw0cnTFRG31GOnfuLAhn37Fjh/Ipwb/hK4QlGlgvateurZjCsvPGG2/kiicIS08NGjRQwmPs2LEZ4rB06dKKAcTMwYMHlUgxFghUWHLwuy4QoO+++65ahrQt8OlB+oD8+fOrnxITE+Xrr7+Wv/76K1dwZiNJgARIwFMELCd0ACYquqKy6sB6k5qaopyOjx7aJzXrNhb48KAc2LNd9uzY5PPWnLfeektFANk6I+/cuVMtWenJEz4jcEaGkNFFCx38DQvEH3/8Id9//33G7xA4uD4cbXH+xx9/LNu3bzc1tuBvAh8ULINhCQ3+Kvv37zd1bk4HwUm3QoUKOR2mfofgwPEQat4uRh8ciJNRo0YpJ3AUOBlD3MA/x9ZRuV+/fmoJEaIV9QUvLAVmV3f0zQsvvCCNGjVS10d/o536ft5uK69PAiRAAlYhYEmhg86JLFJc6jdpLfnyR2Tqq6SkRNmxea0cP3LAL/oQPh0dO3ZUuVswmevlpC1btuQYXq6FDqw08PH45ptvsrQZjs69e/dWfjew9Pz888+muehlHE+LDV8UOhAesLDAPweWMfjfTJ06NYNVnTp11O/h4eEZQkeH/sMChPOxlIUlQqQMQD+a4VapUiV1D1iJWEiABEiABJwnYFmhg/Dy2g2aSpFiJTPlQ0HSwGOH98vOLet9OtrKUVdqoYOJDxFA2RUtdLKbUHVeHkRvzZ49WznYmi3eEjpm738rj4PlrFOnTkqwINIK1hzjMp+t0EEU3FNPPSWI1MJx8H+aMGGCisIy0y+3sm28FwmQAAlYmYAlhU6ZcpWkbgx8T4LlcuxF2bJ+hUh6utSo3VCKlYxSwudK7EVZu2Kxis7yp+LMFhBmJlTjBG0vCghWCYirmjVrqqgtRAvpEhwcrP42Y5nwJ8a2de3Vq5fcd999qq2OkgUal66wPQeWsGDdwZIjBCSsZbq89NJLKqGg1bn5c5+z7iRAAtYhYDmhg2iqJi06SGBQkOzbtUX27tyilmV0gY9O3ZgWgi0izp05KetWLFZ+PFYszgodRBAh1FwXWHsQ6aUjfxwxsvKEbRQ5586dkw8//NBuRmRjjh3NCcdjudA2Kg7WIDhy67B/2+gsK45FtokESIAEbhcBywkdnQwQkVarls63u8VD5ao15c66jSQ5KVFWLV0gl2NvRmVZrZgROoiswnGI3vrtt99UyDQKHJThcwLLBIQMfHzwDyZnXby1dOUrPjrwX4ITcXaWHOOYgUM2fGogrBGJNm7cOIHYMRZEzEHoYA8se9FZVhuDbA8JkAAJ3G4ClhI6wSEh0rRVR4ksWkKFja9fZT8Ut3SZ8hLTvJ1ijzw6p074doi5q4PEjNDBPlkdOnSQGzduKEdZnalXOynj3hBAP/zwQ5ZqWFnoOCtyAOexxx5TjuOIcIMlB1FxtkUnDISwxBYeyEHkqMAf6I477pBr164pR2YWEiABEiAB5wlYS+gEh0iTVh2UA/L1a3Gyauk8ib+e1QfnzjoxUrlarVxv0UG49CuvvCJFixZV1gWEmuvwZS2SMGkj4uv333/PNLqQF+bRRx9V51pt6coociAwELZvbwNP28cNEVnYEBS5b5DbCDlyHG0BkVM4P0QOcvbAhwpl3bp1aiNR7o3l/EuOZ5AACeRuApYSOuhKvQUE/vvqlVjZsm6FXLl8UYUEh+UNl4pVakilqneqTT1zi48OtitAQkH44OiJEs7F2AUdviVwmMX2AkYLhDErMjL4wvKAzS2RyA7bHMDHRO/ObSWhY2vJ+fHHH1WOIXsFYwp7WhnFDHLp6Nw3yCuEEHTkJjJu6onzHIX76/tgCQwWMywdojBhYO5+UbP1JEACrhOwnNAJDg6ROjHNJapshUxh5baI/DXqypmuNiYMxHkQOZgwsbM2wskRfQaRgx26bfdlMm5Aae+euBasHcjODKvPrUra50z7XTnWGf8ge9tAgBs29sTGneBrW+C/Y8Y6ExERodIH6N3OcR1nw/9daT/PIQESIAGrEbCc0EEHYYIpUrSEVKlRRwoXKaYirFCSk5PkyqWLcvjAbrXPlT/sceXOgDNuAQFhgnBwFEy2sFJgh+4ZM2Y43JRT76+F5ROESmthhGUcbCaqNxql0PlnvyvwhaUL0VrwfSpcuLD6G/zPnj0rv/zyi+ltHGB1w07qEE8UOu48CTyXBEggNxOwpNDJzR1qbLsZZ2Sy8m0C2sLkyFfKt2vP2pEACZDA7SdAoXP7+8BrNaDQ8RraW3JhWNQQil6yZEm1P9aYMWNMOUXfksrxJiRAAiTgJwQodPyko1ypJoWOK9R845zy5cvL448/rnx0sMSKDVknTZrkG5VjLUiABEjAjwhQ6PhRZzlbVQodZ4nd/uPh1zNgwACBMzJ8ouDbs3TpUvniiy8YWn77u4c1IAES8EMCFDp+2Glmq0yhY5aU7xyHsP6BAwdKSkqKchKH0zd2rWchARIgARJwjQCFjmvceBYJkAAJkAAJkIAfEKDQ8YNOYhVJgARIgARIgARcI0Ch4xo3nkUCJEACJEACJOAHBCh0/KCTWEUSIAESIAESIAHXCFDouMaNZ5EACZAACZAACfgBAQodP+gkVpEESIAESIAESMA1AhQ6rnHjWSRAAiRAAiRAAn5AgELHDzqJVSQBEiABEiABEnCNAIWOa9x4FgmQAAmQAAmQgB8QoNDxg05iFUmABEiABEiABFwjQKHjGjeeRQIkQAIkQAIk4AcEKHT8oJNYRRIgARIgARIgAdcIUOi4xo1nkQAJkAAJkAAJ+AEBCh0/6CRWkQRIgARIwDMEXn31VYmJibF7sdmzZ8t3333nmRt58Cp16tSRF198UcLDw7Nc9fDhw+o3FscEKHQ4OkiABEjAxwhUbNhS+vzfZxKaL0L2rVok09941Mdq6L/V0UInNTVVEhMTMzXkjz/+kGnTpvlc42rWrCnPPvtsJqETGhoqQUFBQqGTc3dZVuiEhOSRKjXqSFTZCpI3PJ8EBARIYsINOXnskOzZsVmSk5NypsMjSIAESOA2EPB1oRMRESGDBw+W2rVry969e+Wjjz66DZRcu6UWOufPn5d33nlHjh8/7tqFbvNZYF6hQgUKHRP9YEmhU7xklNRv3FpCw8IkPT1dCRwInTyhYerfN+Kvy7qVi+XypQsmEPEQEiABEri1BHxd6JQtW1ZGjhwpxYoVk/Xr18t77713awG5cTcKHTfg+emplhM6hSKLStPWnSRPnlA5dfyIbFm/IsN6E54vvzRo2kYiixSXy7EXZfXfCyQpMcFPu47VJgESsCoBCh3v9SyFjvfY+uqVLSV0AgMDpW6jllK2XCWHQiZ/REFp3raLhIbllc3rlsvxIwd8tW9YLxIggVxKgELHex1PoeM9tr56ZUsJnbC84dLyrq4Sni9C9u7cInt2bLLLHVadMtEV5fyZk7J2xSKBU5qvFW0azpcvn4wdO1Zq1KghnTt3Fjig7du3T95//32pXLmyPPbYY1KkSBGJi4uTGTNmyLx587I0pXjx4tKnTx9p2LChFChQQC3foc1Yo16yZIn88ssvmRg0a9ZMnnzySeX4hvX3N954wyGjUaNGqXX6+Ph4+fzzz2XVqlW+htJv6mOc3Nb89JUs/up9ad7/SanfdYDkL1JMAgKDJPF6nOxcOkcWTXhHkm7EZ2pbwRJR0rj3w1IxppUULF5aQsLCVV+npaRI3KVzsmvJHFk2+ZMs5/UaMVbubNdDHXt8x3r5fnh/SbN5JsrXbSq93/h/kq9QEblxNVbmfDxC9iyf71G2NVrfLY37DJXiFapKnrz51LWTE2/IlbOnJDhPHgkJzSu/vjdcDm1YLnU795XOz70pgYFBsvjrD2TtzG+yrUuj3g9L+8deVccs+vI9WTfr24zjC5UsKy0HPiNVmt4l4QULS0BAoGJ2+ewJ2fbnz7Jy2udZeODkDk+MkCZ9H1V9MvPfT8ulE0fkrkdfEfQjnIjT01Il7sJZWTb5U9kyb4bd+uXJGy7thr4s1Vp2knyFi0pgULCkp6dJcsINCQnLq+riaWdkPdFrJ9Z27dpJr169pESJEsq5NSkpSXbt2iVffPGFnDt3LqPe2ifEbKfb84F56KGHpEePHup9geudPn1aBg0aJIgqwvsmLS1NLl26pN5lf/31l9lbOXWcs0LHuEyHqKzp06erOjdt2lS9T1GuXbsmixcvlqlTp9p9V2KJr2vXrlK3bl213If3uH4Px8bGysqVK1WbExLMrzDQR8d8t1tK6BQuUkwtW8ERef3Kv+TUiSN2SVSpXltq1G4o8dfjZPniuZJgM2GYx+e9I/XDVahQIVm7dq00atRI8uTJo26Il8GCBQukQYMGAhGjy8mTJ+Xtt9/O9HJq0aKFDBkyRAoWLGi3svBhOnDggHz88ccZ58HR8M0335Ry5crJ1atX1W/bt2/Pcn716tXl5ZdfVg97ToLIe6Ssc2Wj0Nk4Z6qUrlpbSla+U70QjQV9hslv5ptPZpqA+731ldzRrL1DIDjv1J6tMv31R+T65YsZx0G83P/uRHW/tNQUWfXjBFky8T8ZvwcGBcmDH0+TsjVjJDUlWZZ9/6msmDLOY+Bx/XtGjJXqLTuriR51SE5MkAAJkJC8Nyd7FC0oIHQq1G+uopLCIgoKROHCCe9mW5+7HntVmt73mCTFX1OiBNdAqdmuh3R8+v+UgLNXNLNZbz8nl89kdlo1Cp11v0ySBt0fkPCCkVkuk5KYoHiumfl1pt+qNGkndz//thQoVirbuntL6Bw9elTwzmjcuLESOLYFIgQfVNpZ19NCBxFOHTt2zBALxvtDbEE0/P777x4bZ/pC7gidpUuXSqVKlQTvZ9uCsbJmzRq7jtnZhbTjOvo9PGbMGLly5YqpNlPomMKkDrKU0ClQsLA0w7JUaJhs37xGDu3bZZdE6TLlJaZ5O0lOSpRVSxfI5Vjfc0rWQgfWmpSUFPXFMH78eLnnnnsEoYaw4OALCIIH/w2LDV4OOEZbVXDc8OHDlcjBFxS+kGbNmqWuha+Rvn37SlRUlJpIN2zYIB988EHG18jAgQOlZ8+e6rc///xTvvzyyyws9TH44bfffpMffvjB/MjjkVkIGIUOLBmwYMRdPCsrpoyXbX/OlNJV66iJsUjZipIYf03mfPSK7Pr7j4zr3PvGOCkcVU4OrF0ie1ctlNN7twtERI3WXaXdo68oKw9ExPLJ/09ZGYylWsvO0m34u5K3QGGJv3JJZn/wkuxfc/OLuu2QF6TZ/U8oi5I9geVuV3Z+ZrQ06PGAusyBdX/LgnFvZogKCJA+o8ZLdO1GmYROsfJ3SP93JwqsWGaEQNfhY6R+1/vlyrlT8uOIIXLu8F4xWqkgorbM/0lWTh0vN+IuK2YtBz0rRcpWUs/AvtWL5adRj2cSllrogGl6WpoEBgfLyV2bZemk/8rRrWuUtaflA89InvB8cvbQHpn8wgBlDUMpVaWm9Bk9XmBNghDavvhXWf7DOLly9qSgbbXu6imN7x0iwaFhptrnTB/oSReTKwreL8uWLZOffvpJWRrwYQQrLQqsFLDU2hZXnZG1RQcWZXywBQcHKws1QrphRYK1595775W8efMKhBgsxni/ebK4I3RQZ7hIXL58WWbOnKks4vXr1xe0q2jRonLjxg2ZMGGCrFixIlOVX3jhBSlZsqRs2rRJ1q1bJwcPHlTiEu9hWIdwLpigD/CPmUKhY4bSzWMsJXTggNysTWcpWLiInDl5TNav+ks9TLYlQ+gkJymH5NiL580Tu0VHGl8keAB+/fVX9YXzxBNPSIcOHVQttBUFggYJo0JCQmTy5Mkyd+5c9bt+oB19HUEAvf7661KxYsUsS09Ga429Fw4e0rfeekuqVq2qTM34Ejl06NAtomPN2xiFjiNLQosBT0vrh56XgKAgWT3jS1n8pbloF1guuv7rXTXpHt60Un54aWAWiC0eeEZaPficBAWHyMndW2TaiCFSomK1jCWr2NPHZPrrj8r5I/s81gFGsXFo4wqZ9trgLMtE2lJltOigAo9+MUdZvI7v2CCThvVVdarcuK1gKQ7ll3efV6IPRV/j/NH98t3z/ZTg0P/PkcUFIqv/e5OUKLEnLLXQwfWx1LVp7lRZ8Nm/M9V/4Ic/KOtTQtwVZUkCexS9XJialGjX2uNNHx2jdQEfQHivGJe8YSWGwMDEfObMGWXdNS5hof7uCh1cA+81fER9++23mZZ79HI4PsgwmduzJrszAN0ROrgvLFyffvpppvdd+/btZejQocrqjmUoWMHNFljd8V6HuNu2bZvibaZQ6JihdPMYSwkdNKjqnXWlWs36kpaWqvLlHNy7I0PsQImXiion1Ws3lHz5I1Q0lj8InWPHjsno0aOVSVN/EWEtFy+IRYsWqfVtW6FTpUoVtawUGRmZ7bISLET9+/dXX1YLFy5UXyO6wDcHa8r4SjFaivC70Y/H38JLzT8et/ZI4+R2ev8Omfbq4ExLTKiNrR9PTks2ugVGC8iZAzvlq8e7ZWkcrD99Rn2ulr/gX7L5j+lKSERVr6sm6jkfvya7l2X1AXOHUpuHh0uLAU9JanKyzP/sTdk898csl3MkdO5/5xvB8s9XCuQ8AAAgAElEQVTZg7vl6ye7K4HR7pGXpVm/x0QCApXfzsIJ76jr2Yqi0tXqyH3//kIiipSQE7s2yXfP32fXD6dZv8elzZAXlPjbNPdHmfvxaxn100IHrDbOmSbzPnkjS91t/XiwZAYrzgMffC+RUeUd3vtWCJ3sloeGDRsmrVq1svvse0Lo4AMU7xt7lmJbP56tW7e6M8SynOuO0IHg+/DDD7N81MHvBgKtVKlSSgjh3WnWEmUUjc4k/6PQMT8sLCd04J+DZaliJUorChA8iQkJyvyMSCujv4O/CB2jkNAvAaOjnz2hAwfDRx55RJmis0trbrTcbNy4Ud599x9fh+y+UuAEjfX15ORk+eabb5TgYnGPgDcnNzNCB7XHcf3e/koKl4pWYkcCAtSyzMbZU2T+uNHuNdDO2VqsGJeUbA9zJHQ6PT1KGvUerJZ7YH2CpWnwJz9J2ZoN1SUgFic+fY+E5isgD42dLsXKVVEO1D+NfjLDmRnLg9n5+ETXipG+oydIeKFItZT348ihWYROanJSFgfn7EBBnPUa+YmEhueXdbMmyYLPsn7Be3MsmJno8fHTu3dvZWkxWol1u9y16OC9Ye+6Hh9gdi5opv3G08y2FckHq1WrpoI8nElESKHj/V63nNABMoiZqOiKckeNOoJwchV5kpYq16/FyYmjByUpMVHqNGymEgfCGflG/DXvk3byDo4eLrNCBx7+WPtFye6Fkt1D5siEDWdlLFvhXG+tozuJyxKHe2JyK3NnA2nQbYCUrHKnFChaUgICbzryQrCEhIYpZ19HFh0NsXqrLtJt+Bjl6IviaEnJE9C1pcUoVswKHb2MB38mLAthCQqiJDR/hHJkTkqIV8tXuLb259GiJrsoLOP9sxOI2lrjrNDR9w4KyeNQZHliLDjqHzMTvX5/YIkafn222yKYnfxt66DfX1YUOporAjjg77h79+5MzccyPz4O4SoASztWGHRxZTsHWnTMv4EsKXRyar6Ouoq9eE5W//2nT24H4QtCBxy15QYOi1owaWsR1qMdOSrn1Af8PSsBdyY3LDvBB6d2h97KKTa7kpPQadLnEeWADEdYRxFenuo/d4SODjFHXeZ/OkryRxZX/kvwwwGDotGV1fLVwQ3LVIRWcJ7QDMsLhU5MtpYH44fSlClTskQ/UehkfQK00Llw4YKyjOMjEAVi8fHHH5c2bdrYjW4zXolLV556s2S+Tq4TOkFBwdKkZQcpWqKU8t/ZsWWdd8i6eVVPCR04KJtdurLna4OIgueff16Qz2fLli3KkoNIrubNm2cbeu5m83Pl6e4IHaMj8cXjh1T4954VCzJy5phdujJGAyGfiwiWrlK9tnQ1dPxvKqzdFYuODjFHvhnk0qnUsJXyYdo0Z6pyuq511z1q+WrNjK+UCER7dGi5GasKBqFx6co2ustVi07DnoOkwxMjlfBytGzmzljI6eExY9GBNRhRl7C8YDfv+fMz50yi0MlKGVYchJ7DjwfvyVOnTqmDEEV23333KT9IhPP//PPPKmWIzpnDpaucRqz7v+c6oYNEgfUat5T0tHRZvWyBXDx/1n2KXriCu0LH6HuTnSe/dkaGGdWeido2umrcuHHKyoOIDGciBLyAyHKXdGdy074pCA1Hzhcd3aMhmRE6xnw6WAZaPeMrqdm+p/LXSU6IVxFFcFDOqYSFhalklnCez2nDxL6jPxeEtiOq6Zd3hmWEtOt7GMPebaOujG3aNGeaVIpppZbbEHaPhINIKAgnZyTri7nnQbkWeyEjtNwoYBxFoaEO2hkZz8eKqeNl6bf/RNO4KnSMOYAchcZ3e2GM1O3S72Zou4d3LzcjdHTkEyIqMYHv378/U7cb308IlUbgg5li1aUrY/CH7XtR++44yklGoWNm5Lh3TK4SOiVKlZH6TVqrfbCOHd4vWzestBt+7h5Sz5ztrtAxChRHuR0QXo5orujo6GxDxLUYQstWr16tEozhxY91e4S9s3iGgDtCJ2MJyJAnRtcKy1ptBg/PyMviaOmqy7C3pEG3/ipiSefLQT4ZHZaOhHkzRz+lrCSOCvy6MOlhV2U4ssISMHHiRIfHG8Plt8ybLnP+809Uk9G6hAvYCh38P91uRF4VKVNBYs8cV+HjyDiM0O7CpcupqKySlWuoJS0dWg4mD42dIWVq1Jek+Osy978jZMdfszPVE8Jv4EdTVKbmuAtnVGi9se2uCh3kKtLO0fYsWe0fe005WcOHB+VWC50mTZqozOj58+d3uGEn3i8QQOXLl3cqvYRVhQ4+/pD2w57ztvalsV3SQt+C4/333y/dunVToelcuvLMu9T2KpYXOiF5QqVI0RJS8Y4aUrR4KfWFdPH8GVm7fJFP+uboDnJX6OA6iJp6+OGHBV/YyJeBSWfOnDkZCQNhTkXCQDycyFI6adIku6MMznOvvfaacqBLTExUkVyO8mt4Z5jmjqu6I3R0ZBKS1+1c8rss/PwdtX1Czbt6CnxuIstUyIg4tCd0jH45tvlydEI/ODKf2rtNWUWMmZWNvYNJ8plnnlE5QVAcOWbqcyBmEOUVUbSkEjLLp4yTjbN/kFrte0mrB4dJ/shiqh2IjrIndHTUVkpSoloKMoaA3zPiv2r5Sv9mzLeD+9e7u590evr/1FYZuPaG3ybL2p8nZiQMxP2RnBFMER2lQ9V13V0VOjgfEWMx9wxSovLEzg0y5z8j1GWRwblyTGtJjI9T9QYXbwkdWNzwzCNZoC4tW7aUBx98UD3r+B35YHbssC9stf8ezoXFB/l4csp54+9CB8kNP/vsMzlx4oRChnfrgAEDlJMx3ATggAxrmHFbIW1Bw/9Djh0wx3sUrLt37y6lS5fOeDYpdLzzrrec0MF+V63ad5O84fmzEINj5dFD+2TnlnWSkpLsHaIeuqonhA6qgpfW3XffrR5CewUPH9KaY1+b7Pb80n45+hp4OX7yySceai0vAwLuCB3jEo89msj2ez32gnLQtRU6iNTqM+ozlVPG3hKVcUkLz5Ct5cV4P4xbiGLsm4RiJrrGKLJs646Q8RO7N0u9Lv3sCh2d8VjdK/GGckpGhmMlZLreL52fHqWcqlF0aLnxHrbWE9v7IxHgtoWzlMXHdv8vd4SOkantPdEH2DKidsfeKo+Rt4SOvi/y6SDYANYFfMSgQOTAEmeb4ddYV3wAvfTSS5m2oTH+nt1eV2bGhbfeCmaW7mzH9MiRI9UeVSh4BiBUkAtIR0vZ20pHXwPiHwkBEa1qryAxIjItlylThhYdL3W65YVOUmKCxF+/ppaqTh4/LPjbH4qnhA7aijw72CICLyZ8gaDAEQ5RAbDwmNmIEwkCn3rqKfWlzg08vTOC3BE6qNEdTe+SloOeU0stsG7A+Tb+SqzsX71YbS8A6wWSARqFTiYRk03iO+R+6fHyh2ovJ0eZhDUVoyXR7IRWt8t9yoJToFhJ5QCdEHdZdi6ZI4u/ek9FUhk3z9T7VOF+OuEgtqe4dPKIyviM5SAUY2I+/J2d4y+2akBIvt5MNOnGdbVNBKK2jNtsGHveHaGj69fxqdeVEzXEGETVmYO7ZPnkT9WWE3pZzltCR3/Y6H2u8DcEDvJpwV/PNhuyvVGPpUo4LmPLCAQsGPOUWVHoaEGo2wmRiD3B8LGIjPSOPhaxoTK23IGbAJaoIIxg7cTWO9hKAttuxMTEUOh459VqvczIXuLEy5IACZgkYBTpEMVjx45Vk6erJcNh+X+7hBuFjqvXzM3nOWvRsBorZ9vvaoSZt7kxj455wpaz6JhvOo8kARLwBoFatWqpFATY1d4TCSUdZUb2Rt1zwzWdneitxsTZ9lPo+P8IoNDx/z5kC0jAZwjARA+/MDi5w6z//fffZ9ow0pWKUui4Qs3xOc5O9J69++2/mrPtp9C5/X3mbg0odNwlyPNJgARUUkn4GMA5E/4L8AFDosrp03POu5MTPgqdnAg597uzE71zV/f9o41RUHAqNhZEn3pquwtPkqhZs6Y8++yzEh4ennFZV7aN8GSd/OlaFDr+1FusKwn4KAFMHrDmXL9+XXbt2qUEzpEjRzxSWwodj2DMuAiFzqtKlNsr9rLI+4JFR2/cbBQ6uv7OhKR7diT5z9UodPynr1hTEiABEiABEiABJwlQ6DgJjIeTAAmQAAmQAAn4DwEKHf/pK9aUBEiABEiABEjASQIUOk4C4+EkQAIkQAIkQAL+Q4BCx3/6ijUlARIgARIgARJwkgCFjpPAeDgJkAAJkAAJkID/EKDQ8Z++Yk1JgARIgARIgAScJECh4yQwHk4CJEACJEACJOA/BCh0/KevWFMSIAESIAESIAEnCVDoOAmMh5MACZAACZAACfgPAQod/+kr1pQESIAESIAESMBJAhQ6TgLj4SRAAiRAAiRAAv5DgELHf/qKNSUBEiABEiABEnCSAIWOk8B4OAmQAAlYgcBDDz0kPXr0sNuU9evXy3vvvWeFZmZqQ9euXWXQoEESEhKSpW1WbbPlOtGFBlHouACNp5DA7SBQp04defHFFyU8PFxy00v51VdflZiYGImPj5ePPvpItm7dejvwW+6eWuikp6dLQkKC4N+6bNy4UcaOHWu5Nnfo0EH69++fSeiEhoZKUFCQJZ+pJ157SGo3qiGXzsfKZ299K6ePn7Vcn5ppkF8InaCgYKlQpbpUqV5b8uQJlZPHDsuG1UtybF9AQIBEla0glarVlAIFC0tgYJAkJyfJ2dMnZN+urRJ3JTbHa/AAEvAVAhQ6vil0mjVrJr1795YCBQrIZ5995jdCTAud3Cwgy5YtKyNHjpRixYrdMqHT7K4Y6dy3nRQpXlhSU1Lll+/nyZI5K5x6zfR4oJN07NVGAoMC1Xnb1u2SCWO+y3INCp2bSHxa6EColC1fWWrUbiihYXkzOtGM0AkJySP1G7eSklHRdgdQamqKbF63Qk4eO+TUAOPBJHC7CFDo+KbQ8VfB4K/19uTzdyuFTq2Y6tJzYGcpVbaEYG5DSUlOcVroVKxWTh59aaAUjCyQgYJCJ/tR4ZNCB4OgVJnySuDkyx8haWmpcvzIASlZOloJnpyETmBgoNRp2FyiK1QRCJo92zfJkYN71X8XLFxE6jVqqSw8SUmJsnb5Qrl04Zwnnx1eiwS8QoBCh0LHkwOLQkfkVgid6nXvkO79O0i5KmWVwLkaGydXYuOkbMXSTgsdWHCefmOIVK9TRRITEiUoOFiCg4No0cnhwfBJoROWN1yat+0i+SMKyuXYi7J53XJJSkyQVu27Sd7w/DkKnSLFSkjTVp0kMChItm5YKUcP7cuEAeKpaetOki9/ATl94ohsWL1U0tLSPPkO4bVIwOMEKHQodDw5qCh0bo3QGfrCAGnQoo6kpqbKjo17ZebE36XvkO7Kd8ZZi077nq0Ey1b4mF+7dJPUbVpT8oaHUej4o9BBnStXq6UcxA7s2aEsMRA/ZoVO3ZgWUq7iHXL50gVZtXS+8suxLZWr1pQ76zaSxMQEWbVknlz1MX8d/aWRL18+5RRYo0YN6dy5s8Bxbt++ffL+++9L5cqV5bHHHpMiRYpIXFyczJgxQ+bNm5elrcWLF5c+ffpIw4YNlR8Bvirw0J0/f16WLFkiv/zyi/pbF/gcPPnkk8rpde/evfLGG29k+t14g1GjRknt2rWVo+jnn38uq1at8uS7OFdeKywsTB544AFp0qSJFCxYUD0HcBRNTExU/Y/+087I1atXl5dffln169y5c2XixInZMjOKpdmzZ8t332Ve12/Tpo0gMqVMmTKSJ08edV/07f79+2Xy5Mly5MiRLNe3veYPP/wgvXr1Ejh+Fi4M37hAdY2VK1eq+8Hx1V7B+ISvS7ly5QQMUJKSbj67qIunfUn0RI/n4J133pESJUpI3759JTo6Wt0Pz8ShQ4cUUzxzumQXueMIvi1rTzFz5wFxRejYs4C0a9dO9Tf4Yayif7dt2ybffvutnDuX2VqO3+FYjrFRvnx5iYiIyBjfN27cUONr5syZWfyc2rdvLw8//LAaF1euXJGPP/5YduzYkan5uPabb74peCbQdwsWLJBvvvkmW0S3wqIDQdO9f0dZMmelrFq8XtVH+844I3Sw5PXkyMFStESkHNx9RBb8vEQeHt7fKaFT4Y5o6XhvGylaPFL59yTEJ8jOTXtlxtezJe7KNXeGk0+f65MWHXvEzAqd0LAwadG2q+QvUFD27Ngke3duyXI5WHQaNG0jhSOLqd9g0fE1Xx39ABYqVEjWrl0rjRo1Ui9fFFif8BA3aNBAIGJ0OXnypLz99tuZXi4tWrSQIUOGqAnTXsFEduDAAfXi0C8lvHzwwsCEc/XqVfXb9u3bs5xunGRzEkQ+/RT4UOXQp48//rgSr9kVLXRKly6thCjGgZlILIhlTHAQSxAuEEcomECGDRumJiHtP2B7f0xgP/30k/z666+ZfjJO2n/++acS4BUqVMhyHYw11BGRU0ZhjQnqueeek6ZNm6pJz1HxltC5cOGCbNq0Sdq2bWs37Pjy5csyfvx4QSQSiqeFjivMPDFk3RU6YIZSr149u2MG75V3331XCRNdjGPFURswzqZNmyZz5szJdMjQoUOlU6dOaozs3r1b8JFlHEcDBgyQe+65R/2OyDyIV+Pv9u53K4SOvfu6InQe/ld/adiyjlyPi5fvP50hqalp8shLD5gWOnu3HZRGberZfcaO7Dsmn739rbq2FYvlhE6hwkWlWZtOEhySR9atXCxnTh7L1G8lSpWReo1aCQSRLhBDEEW+VPQDiAkvJSVFrl27pl62eJBr1qypLDiwuEDw4L9hscHXL47RVhUcN3z4cCVyMEn89ddfMmvWLHUtTCr4eo2KilIvqQ0bNsgHH3yQ8WIYOHCg9OzZU/2GF/GXX36ZBY8+Bj/89ttvgi95FtcJVKxYUV566SUlWtCXy5YtU1+3sDhgPLRq1Uq6deumBK9R1EA4QFgcPnxYhZ9nV+69917p16+fsg7BUqgn7+eff14gilEOHjyo7ot7IBoFYwv3xn0xdmC5W7Nmjd3JS1udLl26pMYaLIba8oixZs/ypycwWH4g1iGmVq9erUQHxvB9990nlSpV8ppFR4dV4wNi8+bNMn36dLl48aIMHjxYmjdvnuPE6YpgME74rjBzfZT9c6Yr9TYKA9QbY+L69evqHQFhgo8kWIOrVaum3lsQLEZhXKtWLXniiSfUxxXeObD8QAhhnEGoaN4YB2+99ZYa+7rgPTZixAg1niBg/vjjD5k0aZL62fiuwwfbhx9+qKxxORV/ETrNOzSSPkO6S0hIsCybv1pZYOD7Y1bo6DGelJgsy+atlkW/LZOChSPkwWH9pEz5Uk4voeXE1dd+t5zQKVq8lDRp1UFZPVb/vUBiL958UPASrXpnPRWijsn7wrkzSuxEFCiUo8/P7eg04wOIhxovi6lTp6qXBMy+KNqKgoccExwmBuNXus4/gkkT5/7++++ZmoIXx+uvvy6YYG0nIKO15ujRo+rrCYJKF3w14UVUtWpVwaQ2ZswYUy+W28HSX+6pxUZycrLd/nLko6P7+fTp08oSp4URwmZhETSOCT25oc8gbLEkBSvOM888I/nz51cTkO1XOPghsRwmIoyxLVu2qL7XxVgvexZCHKcFFp5DiGLUyXaCcnRvb+XRMSbMA3NMnN9//73dMZ6dZdMVweAOM0+NZ1fqbXwvoR5nzpyRTz75JNPSHpa+n3rqKcmbN68SxBAdZgreKRizYINlLONHmz4f7xu86yIjI5W1edy4cWo86iUrvOvQh/aW8O3VwR+ETkTB/DLs349K6eiScvzQSRn374lqmckZoYO234hPkNk/zJe/563OQNGgeW154Ok+EpY3VNYt2yyT/vujma7yu2MsJ3RKlykvMc3bKb8cLXSw7FUvpoUUL1VGRXAhCuvA3p3SsGkbKV22vM8LnWPHjsno0aPVl49+OcG8izXwRYsWqReDrdCpUqWK8t3ACyG7ZSVYiJBAKzg4WBYuXCgTJkzIGMRYEqlbt67dl47Rj8fMkonfPRm3uMKw4kBMlixZ0mF/ORI6WJrEcgqWYCBSIEzh0wBLia31x54o0uIZkwR8GjCmbItxOdMoknCcsV74isbyqXG5wvYYo7+Ktgri69/Rvb0tdLLz58CzAb8hCDhYen7++ecsbFwRDO4w89TQdKXeRmGA8QZfQVvLiTviQdcJwtMo0I1t7t69uxLdGNsQxxDrHTt2VB+weIfZsz47YuZOXd3pB2eWru5/vJe06NhIYI2Z+vks2bD8pjuGM0InOSlZZk9ZIItnL89Ubfj9PP3GwxJZrLBDh2Z32ukr51pe6ARIgDRs1lbyhueTG/HXVQTX+bOnFP+GTdtKVHQFnxc6RiFh60B5/Phxu0IHDoKPPPKIcl6153SqB6DRcoNlDEyUuhgnSziSwldHFzhB4+WCF5KjCcpXBrk/1AO+ObDoYDnSkVOxI6GDFz+cl9EXOnMw/G2w3ISinW0xVrTzOJanIIRR4MuApQbjcfaY6WvC+mdc9nInGgxLEWi7UaTZ3tvbQic73x8zz5ErgsEdZp4az67U2ygMzCyVOltXM0IH18TYhd8iCkQoLIWOLILZ1cHXhU7NBtXkwefuk3wR4bJq0XqZMv4foe2M0HGUGZlCx9kR6uXjzToj66Wr9LR0OXf2pJQsXVZlRL54/oxyOk64cdPZKjg4RC1xFSlW0pJCRztMoq2OvozwW3YvLqOVASZqmIex/o2veyxd4Fx7y1peHgqWvLzRwdWRMHU0OeqlAljl0Nfr1q1Tggb9p9Mm6DGg/Xlc8fFxNAm5M2nr+mQnsm6n0DG2DT5TWKaxLa4IBneYeeoBcKXenhA6cHzHRxKi7EqVKpURYYd2YfkKH2fZWXRwnHHZHX/DyoixBOu1M8WXhQ6iov711uNSqXp5OXvyvIx7a6JcPHspo3kUOuZ72nIWncJFiqkcOciMrNX+/j3bZN/OrSpMXRdsJdGsTWeVQNBRdJZ5jJ4/0tEDaNai4wmhg1Zpyw2WFvRkqb9yYTp25KjseSLWvqI7Qkdb5eBjAwdgiE/4SMBxGBMA/BogbKZMmZKR7t4opsw6M+d2oePI0uaKYMitQgftxlKpMVrU3pOdk9AxOu7jfGcckI3382Who7d5wNLqL9/9IUv/yJy6g0LH/JxgOaEDy0/Lu7pKeL4Ilfl4y/oVcvrE0SxEkBm5Wdsuau8se9FZ5hF650hPCR04j5pdurLna1O/fn21pIJ8PtoJFZFciI7IzkHTO1Sse1Ud9g3x6KxFxxhijskYlh18MSPEFuZ8+JggighLjBCusMgZrXxmrCogb1y6Mm6u6c6kDYdoRFT5qkVH9wueI6MTtXEkUuiYey5hhYGvIfIUQcjAQoYACSyp6mJm6QpWH/gkwoleF/jnWG3pSvvxmKP7z1HG7SBy2uuKS1fO0vXy8WaXrrBWCydjbCFx4expWbN8YSZLjq6mThgIv52VS+bJ9WtXvdwC5y7vrtAx+t4ghBPLTvaKdkYGN1gDEA5qLLbRVYhywGQJp9nsrutca3k0wm7x8oZVxpFzN8J277rrrkwJAzU5LVYQsgsHdEwm6EuY8uHPgAgYRKLA7wrF6GOjBYyjSBccb3RGNkZ34Td3hA7C6ZEYESHKqJPOzaLbZYyy8VYeneyuqx21s2OjJ2c4cyMh4vz583Mc0O4wy/HiJg9wRaC5s3Rl9Hey9flzRugY0xHgWUHRomfFihVO7bruqkUH4fB4ByJQxNbx3gx+M87IFDpmSJo7xnIWHTQ7Krqi2tBTJF02r10uJ2w27jRuAYHtIWD18bXirtAxChS8pBFNhZeAsRi/sLILEddiCOciv0njxo2V859tjgxfY+hP9TH6Pdmzbjz44INy9913ZyS0sxVD2o8FvlRwaMZSow4f187GyE2CJQOkCdC/gZHR6dxRojWEhyOfDcaV7XKlO5O2DjvHFzmEmDGzM5YnkEgQzwLKrRY6uP8rr7wiRYsWVbmF4JdmTLGgx5d2BoclzexSrjvMPDWub7XQMS7P2lsGRKbkZ599VmVMdrR0BVEMwY8PAr1cBWulthQ5SqXhiJkrQqd169YqohFWbogcRHkZ80qZ6R8zQien63DpKidC//zus0InJE9opgyOYWHh0rhle7UVBJIAbt34z3ol1jCTkxIzWhUcEiKNW7QXOCYjzHznlvVy4ugB5Zhp3NQTVhyEoF+/9k9+GPPovHuku0JHT2A6bTomCXxpIqmXThiIiQtJ3GyTb9m2DC/81157TVkKdHIzo3Oyd0nknqsjTLxLly7KYrNnz56MUP9Bgwap7LPoQ0wA6AdboaNDzNGXOB/p8bUVzxgijd/Onj2bkW8HdI2p8xHBgnBd5F1CNmx8uSKxJCK4sHyDc5Ezybjc4M6kbRznaB8SFSIJJiYTJCrEFhKnTp1SAs0YVeaJUWG0xEC0Y/LVmXSRmwpRi6ifMZWDvfsanw/jc5bdl747zDzRdlzjVgsd4zI4ouxg/UJyU/CDCIJTvc7+bk/o2CbUNObLgQCC9Q0fDBCj+LAzIz5cETqwaCNDsy54VpH/x1FBHpzS5Uqqj0Nd2t/TSm3MiS0gEPK9b8fN5IaYo04dPWNqOwYKHfNPgs8KHR36baYp9nYzh9WmccsOKiGgvZKYkCBrVyyS2Iu+uXO5J4QO2m1rCbBlgRf70qVL5Ysvvsg2Xbr2y9HnO4pAMdNfPMY+AWPmV9sjdFp87EWFLMi2QkdbRiBa8LI0LkNiWQz9h/2wUIyh5fo+ttYTezXEFzQmEFh9jMXdSduYF8V4XZ18EBPW/fff7zWho++JZwFCHhOS3lPM0bYXtnyM2xPYY5fdXle3Kw/VrRY6Rt8ae9uMoL+xFKT3zDL6kRmTCeI4e0tUxj4w5h7L7n3jitDBxwjeq1qU5ZSWoW23FtLrwS4SHBKc46vPmb2vKHRyxJlxgG5LU3gAAAVvSURBVGWFDloYFBQsFapUlwqVq6s8Oni4EhNuqH2t9uzYbHezT/PovHukp4QOaomJCF/HmMz0Zol4gSM6BxYeMxtxGrOdcgNP7/U9LBewwiFRo95YEvlKsC0C/G/shYejNkb/BziJY2kK+wHdfA7+yWKNvx1NrBgbsPLB0RyWFJyHyR+WCey3hjrYs1K4K3R0/bE1hd7jC1ZH+HFgsoNfEqxa3rLoYOJEO7H0hIK/wRBf6tgo195GpvZGgN7cEktdehLUx1Ho3CSBMYa+xBY0eoNhLDedOHFCWdRiY2PtZnk3ihhHSSlhzYFlBclSHe2rZttvrggdXENnMcecQqHjvfehp67ss0LHUw3kdUiABEjAHgFXLBpWIpnb24++dFXoGP2NIITh8J/TBqJWGjv+1hYKHX/rMdaXBEjAIwRy+0Sf29vvjtAxs+mxRwYpL+IRAhQ6HsHIi5AACfgbgdw+0ef29rsidLCcCzeAbt26qehGe875/vYc5Ib6Uujkhl5mG0mABLIQyO0TvW4//Fngs4d/64J975DXyGqlQ4cOahNjRBDqAsdzCJjsnMKRlBN5rrBlhfa/cuScbzVmVmgPhY4VepFtIAEScJoAhc5D0qNHD7vcblckmNOd6OQJRt8a21Oza7P25UFqBzhMw1EejuoQiCy+T4BCx/f7iDUkARIgARIgARJwkQCFjovgeBoJkAAJkAAJkIDvE6DQ8f0+Yg1JgARIgARIgARcJECh4yI4nkYCJEACJEACJOD7BCh0fL+PWEMSIAESIAESIAEXCVDouAiOp5EACZAACZAACfg+AQod3+8j1pAESIAESIAESMBFAhQ6LoLjaSRAAiRAAiRAAr5PgELH9/uINSQBEiABEiABEnCRAIWOi+B4GgmQAAmQAAmQgO8ToNDx/T5iDUmABEiABEiABFwkQKHjIjieRgIkQAIkQAIk4PsEKHR8v49YQxIgARIgARIgARcJUOi4CI6nkQAJkAAJkAAJ+D4BCh3f7yPWkARIgARIgARIwEUCFDouguNpJEACJEACJEACvk+AQsf3+4g1JAESIAESIAEScJEAhY6L4HgaCZAACZAACZCA7xOg0PH9PmINSYAESIAESIAEXCRAoeMiOJ5GAiRAAiRAAiTg+wQodHy/j1hDEiABEiABEiABFwlQ6LgIjqeRAAmQAAmQAAn4PgEKHd/vI9aQBEiABEiABEjARQIUOi6C42kkQAIkQAIkQAK+T4BCx/f7iDUkARIgARIgARJwkQCFjovgeBoJkAAJkAAJkIDvE6DQ8f0+Yg1JgARIgARIgARcJECh4yI4nkYCJEACJEACJOD7BCh0fL+PWEMSIAESIAESIAEXCVDouAiOp5EACZAACZAACfg+AQod3+8j1pAESIAESIAESMBFAhQ6LoLjaSRAAiRAAiRAAr5PgELH9/uINSQBEiABEiABEnCRQEB0dHRKQEBAkIvn8zQSIAESIAESIAES8EkC6enpqQFly5Y9GhgYGO2TNWSlSIAESIAESIAESMBFAmlpaccCoqKifg4ODu7t4jV4GgmQAAmQAAmQAAn4JIGUlJRZAZGRkUMiIiK+8ckaslIkQAIkQAIkQAIk4CKBuLi4oQEiEhMVFfUqrTouUuRpJEACJEACJEACPkcA1pyTJ0++p4QOalemTJlPg4KCmvhcTVkhEiABEiABEiABEnCCQGpq6poTJ048h1MgdBr+79/w13mFlh0nSPJQEiABEiABEiABnyLwP0vO+yKSjn+MQkcJn8jIyFphYWFdg4KCGgQEBEQx9Nyn+o+VIQESIAESIAESMBBACHl6evrJ1NTUjQkJCXMvXbq0/X8iB0el/3/p50/ffJ90SAAAAABJRU5ErkJggg==;" vertex="1" parent="1">
                    <mxGeometry x="570" width="570" height="516" as="geometry"/>
                </mxCell>
            </root>
        </mxGraphModel>
    </diagram>
</mxfile>